SplineFontDB: 3.2
FontName: Nunito-Medium
FullName: Nunito Medium
FamilyName: Nunito Medium
Weight: Medium
Copyright: Copyright 2014 The Nunito Project Authors (https://github.com/googlefonts/nunito)
Version: 3.602-ef
ItalicAngle: 0
UnderlinePosition: -94
UnderlineWidth: 28
Ascent: 800
Descent: 200
InvalidEm: 0
sfntRevision: 0x00039a1d
LayerCount: 2
Layer: 0 1 "Back" 1
Layer: 1 1 "Fore" 0
XUID: [1021 965 1680887925 9454252]
StyleMap: 0x0040
FSType: 0
OS2Version: 4
OS2_WeightWidthSlopeOnly: 0
OS2_UseTypoMetrics: 1
CreationTime: 1592915285
ModificationTime: 1719074315
PfmFamily: 81
TTFWeight: 500
TTFWidth: 5
LineGap: 0
VLineGap: 0
Panose: 0 0 0 0 0 0 0 0 0 0
OS2TypoAscent: 1011
OS2TypoAOffset: 0
OS2TypoDescent: -353
OS2TypoDOffset: 0
OS2TypoLinegap: 0
OS2WinAscent: 1077
OS2WinAOffset: 0
OS2WinDescent: 300
OS2WinDOffset: 0
HheadAscent: 1011
HheadAOffset: 0
HheadDescent: -353
HheadDOffset: 0
OS2SubXSize: 650
OS2SubYSize: 600
OS2SubXOff: 0
OS2SubYOff: 75
OS2SupXSize: 650
OS2SupYSize: 600
OS2SupXOff: 0
OS2SupYOff: 350
OS2StrikeYSize: 28
OS2StrikeYPos: 290
OS2CapHeight: 705
OS2XHeight: 484
OS2Vendor: 'NONE'
OS2CodePages: 20000197.00000000
OS2UnicodeRanges: a00002ff.5000204b.00000000.00000000
Lookup: 1 0 0 "'aalt' Access All Alternates lookup 0" { "'aalt' Access All Alternates lookup 0 subtable"  } ['aalt' ('DFLT' <'dflt' > 'cyrl' <'BSH ' 'CHU ' 'dflt' > 'latn' <'AZE ' 'CAT ' 'CRT ' 'KAZ ' 'MOL ' 'NLD ' 'ROM ' 'TAT ' 'TRK ' 'dflt' > ) ]
Lookup: 3 0 0 "'aalt' Access All Alternates lookup 1" { "'aalt' Access All Alternates lookup 1 subtable"  } ['aalt' ('DFLT' <'dflt' > 'cyrl' <'BSH ' 'CHU ' 'dflt' > 'latn' <'AZE ' 'CAT ' 'CRT ' 'KAZ ' 'MOL ' 'NLD ' 'ROM ' 'TAT ' 'TRK ' 'dflt' > ) ]

StartChar: .notdef
Encoding: 65536 -1 0
Width: 500
GlyphClass: 1
Flags: W
LayerCount: 2
Fore
SplineSet
50 -180 m 1,0,-1
 50 705 l 1,1,-1
 450 705 l 1,2,-1
 450 -180 l 1,3,-1
 50 -180 l 1,0,-1
100 -130 m 1,4,-1
 400 -130 l 1,5,-1
 400 655 l 1,6,-1
 100 655 l 1,7,-1
 100 -130 l 1,4,-1
EndSplineSet
EndChar

StartChar: A
Encoding: 65 65 1
Width: 733
GlyphClass: 2
Flags: W
AnchorPoint: "Anchor-3" 695 0 basechar 0
AnchorPoint: "Anchor-2" 367 0 basechar 0
AnchorPoint: "Anchor-0" 367 705 basechar 0
LayerCount: 2
Fore
SplineSet
75 -7 m 256,0,1
 57 -7 57 -7 46.5 1 c 128,-1,2
 36 9 36 9 34 23 c 128,-1,3
 32 37 32 37 40 54 c 2,4,-1
 313 672 l 2,5,6
 322 693 322 693 336 702.5 c 128,-1,7
 350 712 350 712 367 712 c 256,8,9
 384 712 384 712 397.5 702.5 c 128,-1,10
 411 693 411 693 421 672 c 2,11,-1
 694 54 l 2,12,13
 702 37 702 37 700.5 22.5 c 128,-1,14
 699 8 699 8 689 0.5 c 128,-1,15
 679 -7 679 -7 661 -7 c 0,16,17
 641 -7 641 -7 629 3.5 c 128,-1,18
 617 14 617 14 608 34 c 2,19,-1
 537 200 l 1,20,-1
 580 176 l 1,21,-1
 152 176 l 1,22,-1
 195 200 l 1,23,-1
 124 34 l 2,24,25
 115 12 115 12 104 2.5 c 128,-1,26
 93 -7 93 -7 75 -7 c 256,0,1
365 600 m 1,27,-1
 209 231 l 1,28,-1
 185 252 l 1,29,-1
 547 252 l 1,30,-1
 524 231 l 1,31,-1
 367 600 l 1,32,-1
 365 600 l 1,27,-1
EndSplineSet
Substitution2: "Single Substitution lookup 29 subtable" ordfeminine
Substitution2: "'aalt' Access All Alternates lookup 0 subtable" ordfeminine
EndChar

StartChar: Aogonek
Encoding: 260 260 24
Width: 733
GlyphClass: 1
Flags: W
LayerCount: 2
Fore
SplineSet
676 -193 m 0,0,1
 626 -193 626 -193 596.5 -166 c 128,-1,2
 567 -139 567 -139 567 -94 c 0,3,4
 567 -62 567 -62 583.5 -33 c 128,-1,5
 600 -4 600 -4 628 17 c 1,6,-1
 630 3 l 1,7,8
 623 9 623 9 618 16.5 c 128,-1,9
 613 24 613 24 608 34 c 2,10,-1
 537 200 l 1,11,-1
 580 176 l 1,12,-1
 152 176 l 1,13,-1
 195 200 l 1,14,-1
 124 34 l 2,15,16
 115 12 115 12 104 2.5 c 128,-1,17
 93 -7 93 -7 75 -7 c 256,18,19
 57 -7 57 -7 46.5 1 c 128,-1,20
 36 9 36 9 33.5 23 c 128,-1,21
 31 37 31 37 39 54 c 2,22,-1
 313 672 l 2,23,24
 322 693 322 693 336 702.5 c 128,-1,25
 350 712 350 712 367 712 c 256,26,27
 384 712 384 712 397.5 702.5 c 128,-1,28
 411 693 411 693 421 672 c 2,29,-1
 694 54 l 2,30,31
 703 35 703 35 700.5 20 c 128,-1,32
 698 5 698 5 685 -2 c 0,33,34
 674 -8 674 -8 661 -20 c 128,-1,35
 648 -32 648 -32 639 -48 c 128,-1,36
 630 -64 630 -64 630 -84 c 0,37,38
 630 -111 630 -111 646.5 -125 c 128,-1,39
 663 -139 663 -139 688 -139 c 0,40,41
 696 -139 696 -139 704.5 -137.5 c 128,-1,42
 713 -136 713 -136 721 -133 c 0,43,44
 736 -129 736 -129 744 -134.5 c 128,-1,45
 752 -140 752 -140 754.5 -150 c 128,-1,46
 757 -160 757 -160 752 -169.5 c 128,-1,47
 747 -179 747 -179 735 -184 c 0,48,49
 720 -190 720 -190 705 -191.5 c 128,-1,50
 690 -193 690 -193 676 -193 c 0,0,1
365 600 m 1,51,-1
 209 231 l 1,52,-1
 185 252 l 1,53,-1
 547 252 l 1,54,-1
 524 231 l 1,55,-1
 367 600 l 1,56,-1
 365 600 l 1,51,-1
EndSplineSet
EndChar

StartChar: AE
Encoding: 198 198 28
Width: 984
GlyphClass: 2
Flags: W
AnchorPoint: "Anchor-2" 488 0 basechar 0
AnchorPoint: "Anchor-0" 487 705 basechar 0
LayerCount: 2
Fore
SplineSet
45 -7 m 0,0,1
 24 -7 24 -7 13.5 1.5 c 128,-1,2
 3 10 3 10 3 23.5 c 128,-1,3
 3 37 3 37 11 52 c 2,4,-1
 394 678 l 2,5,6
 402 692 402 692 414 698.5 c 128,-1,7
 426 705 426 705 442 705 c 2,8,-1
 899 705 l 2,9,10
 919 705 919 705 929.5 695.5 c 128,-1,11
 940 686 940 686 940 668 c 0,12,13
 940 649 940 649 929.5 639 c 128,-1,14
 919 629 919 629 899 629 c 2,15,-1
 485 629 l 1,16,-1
 506 659 l 1,17,-1
 567 371 l 1,18,-1
 535 396 l 1,19,-1
 879 396 l 2,20,21
 899 396 899 396 909 386 c 128,-1,22
 919 376 919 376 919 358 c 0,23,24
 919 339 919 339 909 329.5 c 128,-1,25
 899 320 899 320 879 320 c 2,26,-1
 551 320 l 1,27,-1
 573 344 l 1,28,-1
 637 47 l 1,29,-1
 601 76 l 1,30,-1
 899 76 l 2,31,32
 919 76 919 76 929.5 66.5 c 128,-1,33
 940 57 940 57 940 38 c 256,34,35
 940 19 940 19 929.5 9.5 c 128,-1,36
 919 0 919 0 899 0 c 2,37,-1
 599 0 l 2,38,39
 563 0 563 0 555 36 c 2,40,-1
 519 203 l 1,41,-1
 552 176 l 1,42,-1
 162 176 l 1,43,-1
 199 201 l 1,44,-1
 93 23 l 2,45,46
 84 8 84 8 73 0.5 c 128,-1,47
 62 -7 62 -7 45 -7 c 0,0,1
433 597 m 1,48,-1
 215 230 l 1,49,-1
 206 252 l 1,50,-1
 531 252 l 1,51,-1
 514 228 l 1,52,-1
 435 597 l 1,53,-1
 433 597 l 1,48,-1
EndSplineSet
EndChar

StartChar: B
Encoding: 66 66 30
Width: 679
GlyphClass: 2
Flags: W
AnchorPoint: "Anchor-2" 342 0 basechar 0
AnchorPoint: "Anchor-0" 341 705 basechar 0
LayerCount: 2
Fore
SplineSet
135 0 m 2,0,1
 111 0 111 0 98 13 c 128,-1,2
 85 26 85 26 85 50 c 2,3,-1
 85 655 l 2,4,5
 85 679 85 679 98 692 c 128,-1,6
 111 705 111 705 135 705 c 2,7,-1
 372 705 l 2,8,9
 445 705 445 705 496.5 683 c 128,-1,10
 548 661 548 661 575 620 c 128,-1,11
 602 579 602 579 602 521 c 0,12,13
 602 456 602 456 564 412 c 128,-1,14
 526 368 526 368 460 353 c 1,15,-1
 460 368 l 1,16,17
 534 359 534 359 576.5 313.5 c 128,-1,18
 619 268 619 268 619 195 c 0,19,20
 619 101 619 101 557.5 50.5 c 128,-1,21
 496 0 496 0 384 0 c 2,22,-1
 135 0 l 2,0,1
175 73 m 1,23,-1
 374 73 l 2,24,25
 452 73 452 73 490 103.5 c 128,-1,26
 528 134 528 134 528 197 c 256,27,28
 528 260 528 260 490 290 c 128,-1,29
 452 320 452 320 374 320 c 2,30,-1
 175 320 l 1,31,-1
 175 73 l 1,23,-1
175 394 m 1,32,-1
 358 394 l 2,33,34
 434 394 434 394 472.5 424.5 c 128,-1,35
 511 455 511 455 511 513 c 256,36,37
 511 571 511 571 472.5 601.5 c 128,-1,38
 434 632 434 632 358 632 c 2,39,-1
 175 632 l 1,40,-1
 175 394 l 1,32,-1
EndSplineSet
EndChar

StartChar: uni0181
Encoding: 385 385 31
Width: 809
GlyphClass: 1
Flags: W
LayerCount: 2
Fore
SplineSet
265 0 m 2,0,1
 241 0 241 0 228 13 c 128,-1,2
 215 26 215 26 215 50 c 2,3,-1
 215 635 l 1,4,-1
 184 635 l 2,5,6
 130 635 130 635 104 610 c 128,-1,7
 78 585 78 585 78 533 c 2,8,-1
 78 514 l 2,9,10
 78 505 78 505 74 496 c 128,-1,11
 70 487 70 487 61.5 481.5 c 128,-1,12
 53 476 53 476 39 476 c 0,13,14
 26 476 26 476 17.5 482 c 128,-1,15
 9 488 9 488 4.5 497 c 128,-1,16
 0 506 0 506 0 516 c 2,17,-1
 0 537 l 2,18,19
 0 619 0 619 48 662 c 128,-1,20
 96 705 96 705 192 705 c 2,21,-1
 502 705 l 2,22,23
 575 705 575 705 626.5 683 c 128,-1,24
 678 661 678 661 705 620 c 128,-1,25
 732 579 732 579 732 521 c 0,26,27
 732 456 732 456 693.5 412 c 128,-1,28
 655 368 655 368 590 353 c 1,29,-1
 590 368 l 1,30,31
 664 359 664 359 706.5 313.5 c 128,-1,32
 749 268 749 268 749 195 c 0,33,34
 749 101 749 101 687.5 50.5 c 128,-1,35
 626 0 626 0 514 0 c 2,36,-1
 265 0 l 2,0,1
305 73 m 1,37,-1
 504 73 l 2,38,39
 582 73 582 73 620 103.5 c 128,-1,40
 658 134 658 134 658 197 c 256,41,42
 658 260 658 260 620 290 c 128,-1,43
 582 320 582 320 504 320 c 2,44,-1
 305 320 l 1,45,-1
 305 73 l 1,37,-1
305 394 m 1,46,-1
 488 394 l 2,47,48
 564 394 564 394 602.5 424.5 c 128,-1,49
 641 455 641 455 641 513 c 256,50,51
 641 571 641 571 602.5 601.5 c 128,-1,52
 564 632 564 632 488 632 c 2,53,-1
 305 632 l 1,54,-1
 305 394 l 1,46,-1
EndSplineSet
EndChar

StartChar: C
Encoding: 67 67 32
Width: 675
GlyphClass: 2
Flags: W
AnchorPoint: "Anchor-2" 386 0 basechar 0
AnchorPoint: "Anchor-0" 388 705 basechar 0
LayerCount: 2
Fore
SplineSet
395 -9 m 0,0,1
 290 -9 290 -9 215 35 c 128,-1,2
 140 79 140 79 99.5 160.5 c 128,-1,3
 59 242 59 242 59 353 c 0,4,5
 59 436 59 436 82 502.5 c 128,-1,6
 105 569 105 569 148 616.5 c 128,-1,7
 191 664 191 664 253.5 689 c 128,-1,8
 316 714 316 714 395 714 c 0,9,10
 455 714 455 714 510.5 697 c 128,-1,11
 566 680 566 680 606 649 c 0,12,13
 622 638 622 638 627 624 c 128,-1,14
 632 610 632 610 628.5 597.5 c 128,-1,15
 625 585 625 585 615.5 576.5 c 128,-1,16
 606 568 606 568 592 567.5 c 128,-1,17
 578 567 578 567 562 578 c 0,18,19
 527 605 527 605 485.5 617.5 c 128,-1,20
 444 630 444 630 397 630 c 0,21,22
 320 630 320 630 266.5 597.5 c 128,-1,23
 213 565 213 565 185.5 503.5 c 128,-1,24
 158 442 158 442 158 353 c 0,25,26
 158 265 158 265 185.5 202.5 c 128,-1,27
 213 140 213 140 266.5 107.5 c 128,-1,28
 320 75 320 75 397 75 c 0,29,30
 444 75 444 75 486.5 88 c 128,-1,31
 529 101 529 101 565 128 c 0,32,33
 581 139 581 139 594.5 138 c 128,-1,34
 608 137 608 137 617 129.5 c 128,-1,35
 626 122 626 122 629.5 109.5 c 128,-1,36
 633 97 633 97 629 84 c 128,-1,37
 625 71 625 71 611 61 c 0,38,39
 570 26 570 26 513.5 8.5 c 128,-1,40
 457 -9 457 -9 395 -9 c 0,0,1
EndSplineSet
EndChar

StartChar: D
Encoding: 68 68 39
Width: 747
GlyphClass: 2
Flags: W
AnchorPoint: "Anchor-5" 185 358 basechar 0
AnchorPoint: "Anchor-2" 372 0 basechar 0
AnchorPoint: "Anchor-0" 372 705 basechar 0
LayerCount: 2
Fore
SplineSet
135 0 m 2,0,1
 111 0 111 0 98 13 c 128,-1,2
 85 26 85 26 85 50 c 2,3,-1
 85 655 l 2,4,5
 85 679 85 679 98 692 c 128,-1,6
 111 705 111 705 135 705 c 2,7,-1
 328 705 l 2,8,9
 501 705 501 705 594.5 614.5 c 128,-1,10
 688 524 688 524 688 353 c 0,11,12
 688 268 688 268 664 202 c 128,-1,13
 640 136 640 136 594 91.5 c 128,-1,14
 548 47 548 47 481.5 23.5 c 128,-1,15
 415 0 415 0 328 0 c 2,16,-1
 135 0 l 2,0,1
178 79 m 1,17,-1
 322 79 l 2,18,19
 390 79 390 79 440 96 c 128,-1,20
 490 113 490 113 523.5 147 c 128,-1,21
 557 181 557 181 574 232.5 c 128,-1,22
 591 284 591 284 591 353 c 0,23,24
 591 490 591 490 523.5 558 c 128,-1,25
 456 626 456 626 322 626 c 2,26,-1
 178 626 l 1,27,-1
 178 79 l 1,17,-1
EndSplineSet
EndChar

StartChar: uni018A
Encoding: 394 394 45
Width: 877
GlyphClass: 1
Flags: W
LayerCount: 2
Fore
SplineSet
265 0 m 2,0,1
 241 0 241 0 228 13 c 128,-1,2
 215 26 215 26 215 50 c 2,3,-1
 215 635 l 1,4,-1
 184 635 l 2,5,6
 130 635 130 635 104 610 c 128,-1,7
 78 585 78 585 78 533 c 2,8,-1
 78 514 l 2,9,10
 78 505 78 505 74 496 c 128,-1,11
 70 487 70 487 61.5 481.5 c 128,-1,12
 53 476 53 476 39 476 c 0,13,14
 26 476 26 476 17.5 482 c 128,-1,15
 9 488 9 488 4.5 497 c 128,-1,16
 0 506 0 506 0 516 c 2,17,-1
 0 537 l 2,18,19
 0 619 0 619 47 662 c 128,-1,20
 94 705 94 705 185 705 c 2,21,-1
 458 705 l 2,22,23
 631 705 631 705 724.5 614.5 c 128,-1,24
 818 524 818 524 818 353 c 0,25,26
 818 268 818 268 794 202 c 128,-1,27
 770 136 770 136 724 91.5 c 128,-1,28
 678 47 678 47 611.5 23.5 c 128,-1,29
 545 0 545 0 458 0 c 2,30,-1
 265 0 l 2,0,1
307 79 m 1,31,-1
 452 79 l 2,32,33
 520 79 520 79 570 96 c 128,-1,34
 620 113 620 113 653.5 147 c 128,-1,35
 687 181 687 181 703.5 232.5 c 128,-1,36
 720 284 720 284 720 353 c 0,37,38
 720 490 720 490 653 558 c 128,-1,39
 586 626 586 626 452 626 c 2,40,-1
 307 626 l 1,41,-1
 307 79 l 1,31,-1
EndSplineSet
EndChar

StartChar: E
Encoding: 69 69 48
Width: 586
GlyphClass: 2
Flags: W
AnchorPoint: "Anchor-3" 495 0 basechar 0
AnchorPoint: "Anchor-2" 325 0 basechar 0
AnchorPoint: "Anchor-0" 325 705 basechar 0
LayerCount: 2
Fore
SplineSet
135 0 m 2,0,1
 111 0 111 0 98 13 c 128,-1,2
 85 26 85 26 85 50 c 2,3,-1
 85 655 l 2,4,5
 85 679 85 679 98 692 c 128,-1,6
 111 705 111 705 135 705 c 2,7,-1
 503 705 l 2,8,9
 522 705 522 705 532.5 695.5 c 128,-1,10
 543 686 543 686 543 668 c 0,11,12
 543 649 543 649 532.5 639 c 128,-1,13
 522 629 522 629 503 629 c 2,14,-1
 175 629 l 1,15,-1
 175 396 l 1,16,-1
 482 396 l 2,17,18
 501 396 501 396 511 386 c 128,-1,19
 521 376 521 376 521 358 c 0,20,21
 521 339 521 339 511 329.5 c 128,-1,22
 501 320 501 320 482 320 c 2,23,-1
 175 320 l 1,24,-1
 175 76 l 1,25,-1
 503 76 l 2,26,27
 522 76 522 76 532.5 66.5 c 128,-1,28
 543 57 543 57 543 38 c 256,29,30
 543 19 543 19 532.5 9.5 c 128,-1,31
 522 0 522 0 503 0 c 2,32,-1
 135 0 l 2,0,1
EndSplineSet
EndChar

StartChar: uni018F
Encoding: 399 399 72
Width: 771
GlyphClass: 2
Flags: W
AnchorPoint: "Anchor-2" 384 0 basechar 0
AnchorPoint: "Anchor-0" 384 705 basechar 0
LayerCount: 2
Fore
SplineSet
392 -9 m 0,0,1
 309 -9 309 -9 247 17 c 128,-1,2
 185 43 185 43 143 91.5 c 128,-1,3
 101 140 101 140 80 207 c 128,-1,4
 59 274 59 274 59 356 c 0,5,6
 59 375 59 375 67.5 384.5 c 128,-1,7
 76 394 76 394 93 394 c 2,8,-1
 642 394 l 1,9,-1
 642 316 l 1,10,-1
 130 316 l 1,11,-1
 155 354 l 1,12,13
 155 262 155 262 181 198.5 c 128,-1,14
 207 135 207 135 258.5 102.5 c 128,-1,15
 310 70 310 70 388 70 c 0,16,17
 459 70 459 70 510 103 c 128,-1,18
 561 136 561 136 588 199 c 128,-1,19
 615 262 615 262 615 353 c 0,20,21
 615 443 615 443 584.5 505 c 128,-1,22
 554 567 554 567 496.5 599.5 c 128,-1,23
 439 632 439 632 355 632 c 0,24,25
 294 632 294 632 245.5 618.5 c 128,-1,26
 197 605 197 605 153 575 c 0,27,28
 137 566 137 566 124 567.5 c 128,-1,29
 111 569 111 569 102.5 577.5 c 128,-1,30
 94 586 94 586 91.5 598.5 c 128,-1,31
 89 611 89 611 93.5 623 c 128,-1,32
 98 635 98 635 112 644 c 0,33,34
 161 679 161 679 225.5 696.5 c 128,-1,35
 290 714 290 714 364 714 c 0,36,37
 471 714 471 714 548.5 670.5 c 128,-1,38
 626 627 626 627 669 546 c 128,-1,39
 712 465 712 465 712 352 c 0,40,41
 712 269 712 269 689.5 202.5 c 128,-1,42
 667 136 667 136 624.5 88.5 c 128,-1,43
 582 41 582 41 523 16 c 128,-1,44
 464 -9 464 -9 392 -9 c 0,0,1
EndSplineSet
EndChar

StartChar: F
Encoding: 70 70 73
Width: 551
GlyphClass: 2
Flags: W
AnchorPoint: "Anchor-2" 297 0 basechar 0
AnchorPoint: "Anchor-0" 299 705 basechar 0
LayerCount: 2
Fore
SplineSet
134 -7 m 0,0,1
 111 -7 111 -7 98 6 c 128,-1,2
 85 19 85 19 85 43 c 2,3,-1
 85 655 l 2,4,5
 85 679 85 679 98 692 c 128,-1,6
 111 705 111 705 135 705 c 2,7,-1
 494 705 l 2,8,9
 514 705 514 705 524 695.5 c 128,-1,10
 534 686 534 686 534 668 c 0,11,12
 534 649 534 649 524 639 c 128,-1,13
 514 629 514 629 494 629 c 2,14,-1
 178 629 l 1,15,-1
 178 393 l 1,16,-1
 474 393 l 2,17,18
 493 393 493 393 503 383 c 128,-1,19
 513 373 513 373 513 356 c 0,20,21
 513 337 513 337 503 327 c 128,-1,22
 493 317 493 317 474 317 c 2,23,-1
 178 317 l 1,24,-1
 178 43 l 2,25,26
 178 -7 178 -7 134 -7 c 0,0,1
EndSplineSet
EndChar

StartChar: G
Encoding: 71 71 74
Width: 729
GlyphClass: 2
Flags: W
AnchorPoint: "Anchor-2" 401 0 basechar 0
AnchorPoint: "Anchor-0" 394 705 basechar 0
LayerCount: 2
Fore
SplineSet
410 -9 m 0,0,1
 297 -9 297 -9 218.5 34.5 c 128,-1,2
 140 78 140 78 99.5 159 c 128,-1,3
 59 240 59 240 59 352 c 0,4,5
 59 436 59 436 82 502.5 c 128,-1,6
 105 569 105 569 149.5 616.5 c 128,-1,7
 194 664 194 664 257.5 689 c 128,-1,8
 321 714 321 714 401 714 c 0,9,10
 463 714 463 714 521 697.5 c 128,-1,11
 579 681 579 681 627 644 c 0,12,13
 639 635 639 635 642.5 623 c 128,-1,14
 646 611 646 611 643 599 c 128,-1,15
 640 587 640 587 631.5 578 c 128,-1,16
 623 569 623 569 610.5 567.5 c 128,-1,17
 598 566 598 566 584 575 c 0,18,19
 543 605 543 605 498.5 618 c 128,-1,20
 454 631 454 631 401 631 c 0,21,22
 322 631 322 631 267 598.5 c 128,-1,23
 212 566 212 566 184.5 503.5 c 128,-1,24
 157 441 157 441 157 352 c 0,25,26
 157 215 157 215 221.5 144 c 128,-1,27
 286 73 286 73 413 73 c 0,28,29
 460 73 460 73 504.5 82 c 128,-1,30
 549 91 549 91 590 107 c 1,31,-1
 570 57 l 1,32,-1
 570 298 l 1,33,-1
 434 298 l 2,34,35
 416 298 416 298 405.5 308 c 128,-1,36
 395 318 395 318 395 335 c 256,37,38
 395 352 395 352 405.5 361 c 128,-1,39
 416 370 416 370 434 370 c 2,40,-1
 611 370 l 2,41,42
 629 370 629 370 639.5 360 c 128,-1,43
 650 350 650 350 650 331 c 2,44,-1
 650 74 l 2,45,46
 650 58 650 58 644 46.5 c 128,-1,47
 638 35 638 35 624 30 c 0,48,49
 582 13 582 13 524 2 c 128,-1,50
 466 -9 466 -9 410 -9 c 0,0,1
EndSplineSet
EndChar

StartChar: H
Encoding: 72 72 81
Width: 764
GlyphClass: 2
Flags: W
AnchorPoint: "Anchor-5" 382 555 basechar 0
AnchorPoint: "Anchor-2" 382 0 basechar 0
AnchorPoint: "Anchor-0" 381 705 basechar 0
LayerCount: 2
Fore
SplineSet
131 -7 m 0,0,1
 109 -7 109 -7 97 5.5 c 128,-1,2
 85 18 85 18 85 41 c 2,3,-1
 85 664 l 2,4,5
 85 688 85 688 97 700 c 128,-1,6
 109 712 109 712 131 712 c 0,7,8
 154 712 154 712 166 700 c 128,-1,9
 178 688 178 688 178 664 c 2,10,-1
 178 397 l 1,11,-1
 586 397 l 1,12,-1
 586 664 l 2,13,14
 586 688 586 688 598 700 c 128,-1,15
 610 712 610 712 633 712 c 0,16,17
 655 712 655 712 667 700 c 128,-1,18
 679 688 679 688 679 664 c 2,19,-1
 679 41 l 2,20,21
 679 18 679 18 667 5.5 c 128,-1,22
 655 -7 655 -7 633 -7 c 0,23,24
 610 -7 610 -7 598 5.5 c 128,-1,25
 586 18 586 18 586 41 c 2,26,-1
 586 318 l 1,27,-1
 178 318 l 1,28,-1
 178 41 l 2,29,30
 178 18 178 18 166.5 5.5 c 128,-1,31
 155 -7 155 -7 131 -7 c 0,0,1
EndSplineSet
EndChar

StartChar: Hbar
Encoding: 294 294 82
Width: 802
GlyphClass: 1
Flags: W
LayerCount: 2
Fore
SplineSet
151 -7 m 256,0,1
 128 -7 128 -7 116 5.5 c 128,-1,2
 104 18 104 18 104 41 c 2,3,-1
 104 530 l 1,4,-1
 130 518 l 1,5,-1
 45 518 l 2,6,7
 7 518 7 518 7 553 c 0,8,9
 7 570 7 570 17 579.5 c 128,-1,10
 27 589 27 589 45 589 c 2,11,-1
 121 589 l 1,12,-1
 104 562 l 1,13,-1
 104 664 l 2,14,15
 104 688 104 688 116 700 c 128,-1,16
 128 712 128 712 151 712 c 0,17,18
 173 712 173 712 185 700 c 128,-1,19
 197 688 197 688 197 664 c 2,20,-1
 197 562 l 1,21,-1
 183 589 l 1,22,-1
 620 589 l 1,23,-1
 606 562 l 1,24,-1
 606 664 l 2,25,26
 606 688 606 688 618 700 c 128,-1,27
 630 712 630 712 653 712 c 0,28,29
 675 712 675 712 687 700 c 128,-1,30
 699 688 699 688 699 664 c 2,31,-1
 699 562 l 1,32,-1
 679 589 l 1,33,-1
 758 589 l 2,34,35
 796 589 796 589 796 553 c 0,36,37
 796 536 796 536 786 527 c 128,-1,38
 776 518 776 518 758 518 c 2,39,-1
 670 518 l 1,40,-1
 699 532 l 1,41,-1
 699 41 l 2,42,43
 699 18 699 18 687 5.5 c 128,-1,44
 675 -7 675 -7 653 -7 c 0,45,46
 630 -7 630 -7 618 5.5 c 128,-1,47
 606 18 606 18 606 41 c 2,48,-1
 606 312 l 1,49,-1
 197 312 l 1,50,-1
 197 41 l 2,51,52
 197 18 197 18 185.5 5.5 c 128,-1,53
 174 -7 174 -7 151 -7 c 256,0,1
197 391 m 1,54,-1
 606 391 l 1,55,-1
 606 518 l 1,56,-1
 197 518 l 1,57,-1
 197 391 l 1,54,-1
EndSplineSet
EndChar

StartChar: I
Encoding: 73 73 86
Width: 262
GlyphClass: 2
Flags: W
AnchorPoint: "Anchor-3" 162 0 basechar 0
AnchorPoint: "Anchor-2" 131 0 basechar 0
AnchorPoint: "Anchor-0" 131 705 basechar 0
LayerCount: 2
Fore
SplineSet
131 -7 m 0,0,1
 109 -7 109 -7 97 5.5 c 128,-1,2
 85 18 85 18 85 41 c 2,3,-1
 85 664 l 2,4,5
 85 688 85 688 97 700 c 128,-1,6
 109 712 109 712 131 712 c 0,7,8
 154 712 154 712 166 700 c 128,-1,9
 178 688 178 688 178 664 c 2,10,-1
 178 41 l 2,11,12
 178 18 178 18 166.5 5.5 c 128,-1,13
 155 -7 155 -7 131 -7 c 0,0,1
EndSplineSet
EndChar

StartChar: Iogonek
Encoding: 302 302 100
Width: 262
GlyphClass: 1
Flags: W
LayerCount: 2
Fore
SplineSet
142 -193 m 0,0,1
 93 -193 93 -193 63.5 -166 c 128,-1,2
 34 -139 34 -139 34 -94 c 0,3,4
 34 -62 34 -62 50.5 -33 c 128,-1,5
 67 -4 67 -4 97 17 c 1,6,-1
 95 9 l 1,7,8
 90 14 90 14 87.5 22.5 c 128,-1,9
 85 31 85 31 85 41 c 2,10,-1
 85 664 l 2,11,12
 85 688 85 688 97 700 c 128,-1,13
 109 712 109 712 131 712 c 0,14,15
 154 712 154 712 166 700 c 128,-1,16
 178 688 178 688 178 664 c 2,17,-1
 178 41 l 2,18,19
 178 25 178 25 171.5 13.5 c 128,-1,20
 165 2 165 2 155 -3 c 0,21,22
 133 -14 133 -14 115 -35 c 128,-1,23
 97 -56 97 -56 97 -84 c 0,24,25
 97 -111 97 -111 113.5 -125 c 128,-1,26
 130 -139 130 -139 154 -139 c 0,27,28
 163 -139 163 -139 171.5 -137.5 c 128,-1,29
 180 -136 180 -136 188 -133 c 0,30,31
 203 -129 203 -129 211 -134.5 c 128,-1,32
 219 -140 219 -140 221 -150 c 128,-1,33
 223 -160 223 -160 218.5 -169.5 c 128,-1,34
 214 -179 214 -179 202 -184 c 0,35,36
 187 -190 187 -190 171.5 -191.5 c 128,-1,37
 156 -193 156 -193 142 -193 c 0,0,1
EndSplineSet
EndChar

StartChar: J
Encoding: 74 74 102
Width: 331
GlyphClass: 2
Flags: W
AnchorPoint: "Anchor-2" 200 0 basechar 0
AnchorPoint: "Anchor-0" 199 705 basechar 0
LayerCount: 2
Fore
SplineSet
32 -6 m 2,0,1
 11 -7 11 -7 -1 5 c 128,-1,2
 -13 17 -13 17 -13 35 c 0,3,4
 -13 49 -13 49 -4.5 59.5 c 128,-1,5
 4 70 4 70 22 71 c 2,6,-1
 53 74 l 2,7,8
 102 78 102 78 128 108 c 128,-1,9
 154 138 154 138 154 190 c 2,10,-1
 154 665 l 2,11,12
 154 688 154 688 166 700 c 128,-1,13
 178 712 178 712 200 712 c 256,14,15
 222 712 222 712 234 700 c 128,-1,16
 246 688 246 688 246 665 c 2,17,-1
 246 190 l 2,18,19
 246 131 246 131 225.5 89.5 c 128,-1,20
 205 48 205 48 165 24.5 c 128,-1,21
 125 1 125 1 65 -4 c 2,22,-1
 32 -6 l 2,0,1
EndSplineSet
EndChar

StartChar: K
Encoding: 75 75 104
Width: 634
GlyphClass: 2
Flags: W
AnchorPoint: "Anchor-2" 320 0 basechar 0
AnchorPoint: "Anchor-0" 319 705 basechar 0
LayerCount: 2
Fore
SplineSet
131 -7 m 0,0,1
 109 -7 109 -7 97 5.5 c 128,-1,2
 85 18 85 18 85 41 c 2,3,-1
 85 665 l 2,4,5
 85 688 85 688 97 700 c 128,-1,6
 109 712 109 712 131 712 c 0,7,8
 154 712 154 712 166 700 c 128,-1,9
 178 688 178 688 178 665 c 2,10,-1
 178 386 l 1,11,-1
 180 386 l 1,12,-1
 496 687 l 2,13,14
 510 700 510 700 522.5 706 c 128,-1,15
 535 712 535 712 550 712 c 0,16,17
 571 712 571 712 580.5 701.5 c 128,-1,18
 590 691 590 691 588 676.5 c 128,-1,19
 586 662 586 662 573 649 c 2,20,-1
 243 339 l 1,21,-1
 244 386 l 1,22,-1
 589 62 l 2,23,24
 605 47 605 47 606 30.5 c 128,-1,25
 607 14 607 14 596.5 3.5 c 128,-1,26
 586 -7 586 -7 565 -7 c 0,27,28
 548 -7 548 -7 536.5 0 c 128,-1,29
 525 7 525 7 510 22 c 2,30,-1
 180 331 l 1,31,-1
 178 331 l 1,32,-1
 178 41 l 2,33,34
 178 18 178 18 166.5 5.5 c 128,-1,35
 155 -7 155 -7 131 -7 c 0,0,1
EndSplineSet
EndChar

StartChar: L
Encoding: 76 76 106
Width: 548
GlyphClass: 2
Flags: W
AnchorPoint: "Anchor-5" 176 387 basechar 0
AnchorPoint: "Anchor-2" 308 0 basechar 0
AnchorPoint: "Anchor-1" 290 705 basechar 0
AnchorPoint: "Anchor-0" 131 705 basechar 0
LayerCount: 2
Fore
SplineSet
132 0 m 2,0,1
 110 0 110 0 97.5 13 c 128,-1,2
 85 26 85 26 85 48 c 2,3,-1
 85 662 l 2,4,5
 85 685 85 685 97 697 c 128,-1,6
 109 709 109 709 131 709 c 0,7,8
 154 709 154 709 166 697 c 128,-1,9
 178 685 178 685 178 662 c 2,10,-1
 178 80 l 1,11,-1
 496 80 l 2,12,13
 517 80 517 80 527.5 70 c 128,-1,14
 538 60 538 60 538 41 c 0,15,16
 538 21 538 21 527.5 10.5 c 128,-1,17
 517 0 517 0 496 0 c 2,18,-1
 132 0 l 2,0,1
EndSplineSet
EndChar

StartChar: M
Encoding: 77 77 116
Width: 858
GlyphClass: 2
Flags: W
AnchorPoint: "Anchor-2" 430 0 basechar 0
AnchorPoint: "Anchor-0" 430 705 basechar 0
LayerCount: 2
Fore
SplineSet
129 -7 m 0,0,1
 109 -7 109 -7 98 5 c 128,-1,2
 87 17 87 17 87 37 c 2,3,-1
 87 668 l 2,4,5
 87 689 87 689 98.5 700.5 c 128,-1,6
 110 712 110 712 130 712 c 0,7,8
 148 712 148 712 158.5 705 c 128,-1,9
 169 698 169 698 178 681 c 2,10,-1
 446 178 l 1,11,-1
 415 178 l 1,12,-1
 683 681 l 2,13,14
 692 698 692 698 702 705 c 128,-1,15
 712 712 712 712 730 712 c 0,16,17
 750 712 750 712 761 700.5 c 128,-1,18
 772 689 772 689 772 668 c 2,19,-1
 772 37 l 2,20,21
 772 17 772 17 761.5 5 c 128,-1,22
 751 -7 751 -7 730 -7 c 256,23,24
 709 -7 709 -7 698.5 5 c 128,-1,25
 688 17 688 17 688 37 c 2,26,-1
 688 576 l 1,27,-1
 710 576 l 1,28,-1
 470 127 l 2,29,30
 462 114 462 114 453.5 107.5 c 128,-1,31
 445 101 445 101 430 101 c 0,32,33
 416 101 416 101 406.5 108 c 128,-1,34
 397 115 397 115 390 127 c 2,35,-1
 147 577 l 1,36,-1
 171 577 l 1,37,-1
 171 37 l 2,38,39
 171 17 171 17 160.5 5 c 128,-1,40
 150 -7 150 -7 129 -7 c 0,0,1
EndSplineSet
EndChar

StartChar: N
Encoding: 78 78 118
Width: 741
GlyphClass: 2
Flags: W
AnchorPoint: "Anchor-2" 371 0 basechar 0
AnchorPoint: "Anchor-0" 371 705 basechar 0
LayerCount: 2
Fore
SplineSet
128 -7 m 0,0,1
 108 -7 108 -7 96.5 5 c 128,-1,2
 85 17 85 17 85 38 c 2,3,-1
 85 665 l 2,4,5
 85 688 85 688 96 700 c 128,-1,6
 107 712 107 712 125 712 c 0,7,8
 142 712 142 712 151 706 c 128,-1,9
 160 700 160 700 171 685 c 2,10,-1
 595 123 l 1,11,-1
 570 123 l 1,12,-1
 570 667 l 2,13,14
 570 689 570 689 581.5 700.5 c 128,-1,15
 593 712 593 712 614 712 c 256,16,17
 635 712 635 712 646 700.5 c 128,-1,18
 657 689 657 689 657 667 c 2,19,-1
 657 38 l 2,20,21
 657 17 657 17 646.5 5 c 128,-1,22
 636 -7 636 -7 619 -7 c 0,23,24
 603 -7 603 -7 592.5 -0.5 c 128,-1,25
 582 6 582 6 571 21 c 2,26,-1
 148 583 l 1,27,-1
 171 583 l 1,28,-1
 171 38 l 2,29,30
 171 17 171 17 160 5 c 128,-1,31
 149 -7 149 -7 128 -7 c 0,0,1
EndSplineSet
EndChar

StartChar: Eng
Encoding: 330 330 128
Width: 741
GlyphClass: 2
Flags: W
AnchorPoint: "Anchor-2" 371 0 basechar 0
AnchorPoint: "Anchor-0" 371 705 basechar 0
LayerCount: 2
Fore
SplineSet
476 -190 m 0,0,1
 459 -191 459 -191 448.5 -185 c 128,-1,2
 438 -179 438 -179 434.5 -168.5 c 128,-1,3
 431 -158 431 -158 432.5 -147.5 c 128,-1,4
 434 -137 434 -137 442 -129.5 c 128,-1,5
 450 -122 450 -122 463 -121 c 0,6,7
 516 -117 516 -117 543 -93 c 128,-1,8
 570 -69 570 -69 570 -13 c 2,9,-1
 570 40 l 1,10,-1
 587 0 l 1,11,-1
 148 583 l 1,12,-1
 171 583 l 1,13,-1
 171 38 l 2,14,15
 171 17 171 17 160 5 c 128,-1,16
 149 -7 149 -7 128 -7 c 0,17,18
 108 -7 108 -7 96.5 5 c 128,-1,19
 85 17 85 17 85 38 c 2,20,-1
 85 665 l 2,21,22
 85 688 85 688 96 700 c 128,-1,23
 107 712 107 712 125 712 c 0,24,25
 142 712 142 712 151 706 c 128,-1,26
 160 700 160 700 171 685 c 2,27,-1
 595 123 l 1,28,-1
 570 123 l 1,29,-1
 570 667 l 2,30,31
 570 689 570 689 581.5 700.5 c 128,-1,32
 593 712 593 712 614 712 c 256,33,34
 635 712 635 712 646 700.5 c 128,-1,35
 657 689 657 689 657 667 c 2,36,-1
 657 -3 l 2,37,38
 657 -100 657 -100 610.5 -143 c 128,-1,39
 564 -186 564 -186 476 -190 c 0,0,1
EndSplineSet
EndChar

StartChar: O
Encoding: 79 79 129
Width: 771
GlyphClass: 2
Flags: W
AnchorPoint: "Anchor-5" 386 353 basechar 0
AnchorPoint: "Anchor-3" 443 0 basechar 0
AnchorPoint: "Anchor-2" 385 0 basechar 0
AnchorPoint: "Anchor-1" 456 705 basechar 0
AnchorPoint: "Anchor-0" 385 705 basechar 0
LayerCount: 2
Fore
SplineSet
386 -9 m 0,0,1
 286 -9 286 -9 213 35.5 c 128,-1,2
 140 80 140 80 99.5 161.5 c 128,-1,3
 59 243 59 243 59 353 c 0,4,5
 59 436 59 436 82 502.5 c 128,-1,6
 105 569 105 569 147.5 616.5 c 128,-1,7
 190 664 190 664 250.5 689 c 128,-1,8
 311 714 311 714 386 714 c 0,9,10
 486 714 486 714 559 670 c 128,-1,11
 632 626 632 626 672 545 c 128,-1,12
 712 464 712 464 712 354 c 0,13,14
 712 271 712 271 689 204 c 128,-1,15
 666 137 666 137 623.5 89 c 128,-1,16
 581 41 581 41 521 16 c 128,-1,17
 461 -9 461 -9 386 -9 c 0,0,1
386 73 m 0,18,19
 458 73 458 73 509 106 c 128,-1,20
 560 139 560 139 587.5 202 c 128,-1,21
 615 265 615 265 615 353 c 0,22,23
 615 486 615 486 555.5 559 c 128,-1,24
 496 632 496 632 386 632 c 0,25,26
 314 632 314 632 262.5 599.5 c 128,-1,27
 211 567 211 567 184 504.5 c 128,-1,28
 157 442 157 442 157 353 c 0,29,30
 157 221 157 221 217 147 c 128,-1,31
 277 73 277 73 386 73 c 0,18,19
EndSplineSet
Substitution2: "Single Substitution lookup 29 subtable" ordmasculine
Substitution2: "'aalt' Access All Alternates lookup 0 subtable" ordmasculine
EndChar

StartChar: OE
Encoding: 338 338 163
Width: 1049
GlyphClass: 2
Flags: W
AnchorPoint: "Anchor-2" 593 0 basechar 0
AnchorPoint: "Anchor-0" 593 705 basechar 0
LayerCount: 2
Fore
SplineSet
419 0 m 2,0,1
 247 0 247 0 153 91.5 c 128,-1,2
 59 183 59 183 59 353 c 0,3,4
 59 438 59 438 83 504 c 128,-1,5
 107 570 107 570 153 614.5 c 128,-1,6
 199 659 199 659 266 682 c 128,-1,7
 333 705 333 705 419 705 c 2,8,-1
 966 705 l 2,9,10
 985 705 985 705 995 695.5 c 128,-1,11
 1005 686 1005 686 1005 668 c 0,12,13
 1005 649 1005 649 995 639 c 128,-1,14
 985 629 985 629 966 629 c 2,15,-1
 637 629 l 1,16,-1
 637 396 l 1,17,-1
 945 396 l 2,18,19
 964 396 964 396 974 386 c 128,-1,20
 984 376 984 376 984 358 c 0,21,22
 984 339 984 339 974 329.5 c 128,-1,23
 964 320 964 320 945 320 c 2,24,-1
 637 320 l 1,25,-1
 637 76 l 1,26,-1
 966 76 l 2,27,28
 985 76 985 76 995 66.5 c 128,-1,29
 1005 57 1005 57 1005 38 c 256,30,31
 1005 19 1005 19 995 9.5 c 128,-1,32
 985 0 985 0 966 0 c 2,33,-1
 419 0 l 2,0,1
425 79 m 2,34,-1
 547 79 l 1,35,-1
 547 626 l 1,36,-1
 425 626 l 2,37,38
 358 626 358 626 307.5 609.5 c 128,-1,39
 257 593 257 593 223.5 558.5 c 128,-1,40
 190 524 190 524 173.5 473 c 128,-1,41
 157 422 157 422 157 353 c 0,42,43
 157 216 157 216 224 147.5 c 128,-1,44
 291 79 291 79 425 79 c 2,34,-1
EndSplineSet
EndChar

StartChar: P
Encoding: 80 80 164
Width: 637
GlyphClass: 2
Flags: W
AnchorPoint: "Anchor-2" 325 0 basechar 0
AnchorPoint: "Anchor-0" 325 705 basechar 0
LayerCount: 2
Fore
SplineSet
131 -7 m 0,0,1
 109 -7 109 -7 97 5.5 c 128,-1,2
 85 18 85 18 85 41 c 2,3,-1
 85 658 l 2,4,5
 85 681 85 681 97.5 693 c 128,-1,6
 110 705 110 705 132 705 c 2,7,-1
 370 705 l 2,8,9
 484 705 484 705 545.5 649 c 128,-1,10
 607 593 607 593 607 492 c 0,11,12
 607 390 607 390 545.5 334 c 128,-1,13
 484 278 484 278 370 278 c 2,14,-1
 178 278 l 1,15,-1
 178 41 l 2,16,17
 178 18 178 18 166.5 5.5 c 128,-1,18
 155 -7 155 -7 131 -7 c 0,0,1
178 353 m 1,19,-1
 358 353 l 2,20,21
 436 353 436 353 475.5 388.5 c 128,-1,22
 515 424 515 424 515 492 c 256,23,24
 515 560 515 560 475.5 594.5 c 128,-1,25
 436 629 436 629 358 629 c 2,26,-1
 178 629 l 1,27,-1
 178 353 l 1,19,-1
EndSplineSet
EndChar

StartChar: Thorn
Encoding: 222 222 165
Width: 639
GlyphClass: 2
Flags: W
AnchorPoint: "Anchor-2" 327 0 basechar 0
AnchorPoint: "Anchor-0" 327 705 basechar 0
LayerCount: 2
Fore
SplineSet
131 -4 m 0,0,1
 109 -4 109 -4 97 8.5 c 128,-1,2
 85 21 85 21 85 44 c 2,3,-1
 85 662 l 2,4,5
 85 685 85 685 97.5 697 c 128,-1,6
 110 709 110 709 132 709 c 256,7,8
 154 709 154 709 166 697.5 c 128,-1,9
 178 686 178 686 178 666 c 2,10,-1
 178 580 l 1,11,-1
 371 580 l 2,12,13
 485 580 485 580 546.5 524 c 128,-1,14
 608 468 608 468 608 366 c 0,15,16
 608 265 608 265 546.5 208.5 c 128,-1,17
 485 152 485 152 371 152 c 2,18,-1
 178 152 l 1,19,-1
 178 44 l 2,20,21
 178 21 178 21 166.5 8.5 c 128,-1,22
 155 -4 155 -4 131 -4 c 0,0,1
178 228 m 1,23,-1
 359 228 l 2,24,25
 437 228 437 228 477 263 c 128,-1,26
 517 298 517 298 517 366 c 256,27,28
 517 434 517 434 477 469 c 128,-1,29
 437 504 437 504 359 504 c 2,30,-1
 178 504 l 1,31,-1
 178 228 l 1,23,-1
EndSplineSet
EndChar

StartChar: Q
Encoding: 81 81 166
Width: 771
GlyphClass: 2
Flags: W
AnchorPoint: "Anchor-5" 386 353 basechar 0
AnchorPoint: "Anchor-3" 443 0 basechar 0
AnchorPoint: "Anchor-2" 377 0 basechar 0
AnchorPoint: "Anchor-1" 456 705 basechar 0
AnchorPoint: "Anchor-0" 377 705 basechar 0
LayerCount: 2
Fore
SplineSet
635 -128 m 2,0,1
 646 -145 646 -145 644 -158.5 c 128,-1,2
 642 -172 642 -172 633 -181.5 c 128,-1,3
 624 -191 624 -191 610 -193.5 c 128,-1,4
 596 -196 596 -196 582 -190.5 c 128,-1,5
 568 -185 568 -185 558 -169 c 2,6,-1
 493 -63 l 2,7,8
 477 -37 477 -37 450 -23 c 128,-1,9
 423 -9 423 -9 385 -9 c 1,10,-1
 460 22 l 1,11,12
 507 22 507 22 534.5 5.5 c 128,-1,13
 562 -11 562 -11 589 -54 c 2,14,-1
 635 -128 l 2,0,1
386 -9 m 0,15,16
 286 -9 286 -9 213 35.5 c 128,-1,17
 140 80 140 80 99.5 161.5 c 128,-1,18
 59 243 59 243 59 353 c 0,19,20
 59 436 59 436 82 502.5 c 128,-1,21
 105 569 105 569 147.5 616.5 c 128,-1,22
 190 664 190 664 250.5 689 c 128,-1,23
 311 714 311 714 386 714 c 0,24,25
 486 714 486 714 559 670 c 128,-1,26
 632 626 632 626 672 545 c 128,-1,27
 712 464 712 464 712 354 c 0,28,29
 712 271 712 271 689 204 c 128,-1,30
 666 137 666 137 623.5 89 c 128,-1,31
 581 41 581 41 521 16 c 128,-1,32
 461 -9 461 -9 386 -9 c 0,15,16
386 73 m 0,33,34
 458 73 458 73 509 106 c 128,-1,35
 560 139 560 139 587.5 202 c 128,-1,36
 615 265 615 265 615 353 c 0,37,38
 615 486 615 486 555.5 559 c 128,-1,39
 496 632 496 632 386 632 c 0,40,41
 314 632 314 632 262.5 599.5 c 128,-1,42
 211 567 211 567 184 504.5 c 128,-1,43
 157 442 157 442 157 353 c 0,44,45
 157 221 157 221 217 147 c 128,-1,46
 277 73 277 73 386 73 c 0,33,34
EndSplineSet
EndChar

StartChar: R
Encoding: 82 82 167
Width: 673
GlyphClass: 2
Flags: W
AnchorPoint: "Anchor-2" 343 0 basechar 0
AnchorPoint: "Anchor-0" 342 705 basechar 0
LayerCount: 2
Fore
SplineSet
131 -7 m 0,0,1
 109 -7 109 -7 97 5.5 c 128,-1,2
 85 18 85 18 85 41 c 2,3,-1
 85 658 l 2,4,5
 85 681 85 681 97.5 693 c 128,-1,6
 110 705 110 705 132 705 c 2,7,-1
 370 705 l 2,8,9
 484 705 484 705 545.5 651.5 c 128,-1,10
 607 598 607 598 607 500 c 0,11,12
 607 436 607 436 579 390.5 c 128,-1,13
 551 345 551 345 498 321 c 128,-1,14
 445 297 445 297 370 297 c 1,15,-1
 380 311 l 1,16,-1
 402 311 l 2,17,18
 442 311 442 311 471.5 291 c 128,-1,19
 501 271 501 271 524 227 c 2,20,-1
 616 58 l 2,21,22
 625 42 625 42 624 27 c 128,-1,23
 623 12 623 12 613 2.5 c 128,-1,24
 603 -7 603 -7 584 -7 c 0,25,26
 564 -7 564 -7 552 1.5 c 128,-1,27
 540 10 540 10 531 27 c 2,28,-1
 423 225 l 2,29,30
 401 267 401 267 373 280.5 c 128,-1,31
 345 294 345 294 298 294 c 2,32,-1
 178 294 l 1,33,-1
 178 41 l 2,34,35
 178 18 178 18 166.5 5.5 c 128,-1,36
 155 -7 155 -7 131 -7 c 0,0,1
178 366 m 1,37,-1
 355 366 l 2,38,39
 435 366 435 366 475 399.5 c 128,-1,40
 515 433 515 433 515 498 c 256,41,42
 515 563 515 563 475 596 c 128,-1,43
 435 629 435 629 355 629 c 2,44,-1
 178 629 l 1,45,-1
 178 366 l 1,37,-1
EndSplineSet
EndChar

StartChar: S
Encoding: 83 83 175
Width: 618
GlyphClass: 2
Flags: W
AnchorPoint: "Anchor-2" 318 0 basechar 0
AnchorPoint: "Anchor-0" 316 705 basechar 0
LayerCount: 2
Fore
SplineSet
316 -9 m 0,0,1
 269 -9 269 -9 225 -1.5 c 128,-1,2
 181 6 181 6 142 21 c 128,-1,3
 103 36 103 36 72 58 c 0,4,5
 59 67 59 67 53.5 80 c 128,-1,6
 48 93 48 93 50.5 105.5 c 128,-1,7
 53 118 53 118 61.5 127 c 128,-1,8
 70 136 70 136 82 138 c 128,-1,9
 94 140 94 140 108 130 c 0,10,11
 154 99 154 99 204.5 85 c 128,-1,12
 255 71 255 71 316 71 c 0,13,14
 404 71 404 71 445.5 103 c 128,-1,15
 487 135 487 135 487 187 c 0,16,17
 487 230 487 230 457 254.5 c 128,-1,18
 427 279 427 279 356 293 c 2,19,-1
 250 315 l 2,20,21
 156 335 156 335 109.5 381 c 128,-1,22
 63 427 63 427 63 504 c 0,23,24
 63 551 63 551 82 589.5 c 128,-1,25
 101 628 101 628 136 656 c 128,-1,26
 171 684 171 684 218.5 699 c 128,-1,27
 266 714 266 714 324 714 c 0,28,29
 386 714 386 714 440.5 697 c 128,-1,30
 495 680 495 680 539 647 c 0,31,32
 551 638 551 638 555 625.5 c 128,-1,33
 559 613 559 613 556.5 601 c 128,-1,34
 554 589 554 589 545.5 581 c 128,-1,35
 537 573 537 573 524.5 572 c 128,-1,36
 512 571 512 571 497 581 c 0,37,38
 457 609 457 609 415 621.5 c 128,-1,39
 373 634 373 634 323 634 c 0,40,41
 272 634 272 634 234.5 618 c 128,-1,42
 197 602 197 602 176.5 573.5 c 128,-1,43
 156 545 156 545 156 507 c 0,44,45
 156 461 156 461 184 435 c 128,-1,46
 212 409 212 409 278 395 c 2,47,-1
 383 374 l 2,48,49
 483 353 483 353 531.5 309.5 c 128,-1,50
 580 266 580 266 580 193 c 0,51,52
 580 147 580 147 561.5 110 c 128,-1,53
 543 73 543 73 509 46.5 c 128,-1,54
 475 20 475 20 426 5.5 c 128,-1,55
 377 -9 377 -9 316 -9 c 0,0,1
EndSplineSet
EndChar

StartChar: uni1E9E
Encoding: 7838 7838 186
Width: 716
GlyphClass: 1
Flags: W
LayerCount: 2
Fore
SplineSet
436 -9 m 0,0,1
 385 -9 385 -9 340 3.5 c 128,-1,2
 295 16 295 16 261 39 c 0,3,4
 249 47 249 47 245 58.5 c 128,-1,5
 241 70 241 70 243.5 81.5 c 128,-1,6
 246 93 246 93 253.5 101.5 c 128,-1,7
 261 110 261 110 272 112 c 128,-1,8
 283 114 283 114 295 106 c 0,9,10
 327 86 327 86 359.5 77 c 128,-1,11
 392 68 392 68 428 68 c 0,12,13
 495 68 495 68 530 101.5 c 128,-1,14
 565 135 565 135 565 194 c 256,15,16
 565 253 565 253 527 284.5 c 128,-1,17
 489 316 489 316 411 316 c 2,18,-1
 315 316 l 2,19,20
 298 316 298 316 287 326 c 128,-1,21
 276 336 276 336 276 354 c 0,22,23
 276 373 276 373 286 382 c 128,-1,24
 296 391 296 391 312 391 c 2,25,-1
 389 391 l 2,26,27
 453 391 453 391 490.5 423 c 128,-1,28
 528 455 528 455 528 514 c 0,29,30
 528 574 528 574 487.5 605 c 128,-1,31
 447 636 447 636 370 636 c 0,32,33
 275 636 275 636 226.5 591.5 c 128,-1,34
 178 547 178 547 178 456 c 2,35,-1
 178 41 l 2,36,37
 178 18 178 18 166 5.5 c 128,-1,38
 154 -7 154 -7 131 -7 c 0,39,40
 109 -7 109 -7 97 5.5 c 128,-1,41
 85 18 85 18 85 41 c 2,42,-1
 85 458 l 2,43,44
 85 542 85 542 119 599 c 128,-1,45
 153 656 153 656 217.5 685 c 128,-1,46
 282 714 282 714 373 714 c 0,47,48
 449 714 449 714 504 691.5 c 128,-1,49
 559 669 559 669 589 627 c 128,-1,50
 619 585 619 585 619 527 c 0,51,52
 619 463 619 463 585 416 c 128,-1,53
 551 369 551 369 491 354 c 1,54,-1
 491 369 l 1,55,56
 542 364 542 364 579 340.5 c 128,-1,57
 616 317 616 317 636.5 278.5 c 128,-1,58
 657 240 657 240 657 189 c 0,59,60
 657 126 657 126 630.5 82 c 128,-1,61
 604 38 604 38 554.5 14.5 c 128,-1,62
 505 -9 505 -9 436 -9 c 0,0,1
EndSplineSet
EndChar

StartChar: T
Encoding: 84 84 187
Width: 607
GlyphClass: 2
Flags: W
AnchorPoint: "Anchor-5" 304 358 basechar 0
AnchorPoint: "Anchor-2" 304 0 basechar 0
AnchorPoint: "Anchor-0" 304 705 basechar 0
LayerCount: 2
Fore
SplineSet
304 -7 m 256,0,1
 281 -7 281 -7 269 5.5 c 128,-1,2
 257 18 257 18 257 41 c 2,3,-1
 257 626 l 1,4,-1
 38 626 l 2,5,6
 19 626 19 626 8 636.5 c 128,-1,7
 -3 647 -3 647 -3 666 c 256,8,9
 -3 685 -3 685 8 695 c 128,-1,10
 19 705 19 705 38 705 c 2,11,-1
 569 705 l 2,12,13
 589 705 589 705 599.5 695 c 128,-1,14
 610 685 610 685 610 666 c 256,15,16
 610 647 610 647 599.5 636.5 c 128,-1,17
 589 626 589 626 569 626 c 2,18,-1
 350 626 l 1,19,-1
 350 41 l 2,20,21
 350 18 350 18 338.5 5.5 c 128,-1,22
 327 -7 327 -7 304 -7 c 256,0,1
EndSplineSet
EndChar

StartChar: U
Encoding: 85 85 194
Width: 731
GlyphClass: 2
Flags: W
AnchorPoint: "Anchor-3" 423 0 basechar 0
AnchorPoint: "Anchor-2" 366 0 basechar 0
AnchorPoint: "Anchor-1" 579 705 basechar 0
AnchorPoint: "Anchor-0" 366 705 basechar 0
LayerCount: 2
Fore
SplineSet
366 -9 m 0,0,1
 296 -9 296 -9 242.5 9.5 c 128,-1,2
 189 28 189 28 153 64.5 c 128,-1,3
 117 101 117 101 98.5 155.5 c 128,-1,4
 80 210 80 210 80 282 c 2,5,-1
 80 665 l 2,6,7
 80 689 80 689 92 700.5 c 128,-1,8
 104 712 104 712 126 712 c 0,9,10
 149 712 149 712 161 700.5 c 128,-1,11
 173 689 173 689 173 665 c 2,12,-1
 173 285 l 2,13,14
 173 178 173 178 222 125.5 c 128,-1,15
 271 73 271 73 366 73 c 256,16,17
 461 73 461 73 510 125.5 c 128,-1,18
 559 178 559 178 559 285 c 2,19,-1
 559 665 l 2,20,21
 559 689 559 689 571 700.5 c 128,-1,22
 583 712 583 712 605 712 c 256,23,24
 627 712 627 712 639 700.5 c 128,-1,25
 651 689 651 689 651 665 c 2,26,-1
 651 282 l 2,27,28
 651 187 651 187 618.5 122 c 128,-1,29
 586 57 586 57 522.5 24 c 128,-1,30
 459 -9 459 -9 366 -9 c 0,0,1
EndSplineSet
EndChar

StartChar: V
Encoding: 86 86 217
Width: 694
GlyphClass: 2
Flags: W
AnchorPoint: "Anchor-2" 348 0 basechar 0
AnchorPoint: "Anchor-0" 347 705 basechar 0
LayerCount: 2
Fore
SplineSet
348 -7 m 256,0,1
 327 -7 327 -7 314 2.5 c 128,-1,2
 301 12 301 12 292 32 c 2,3,-1
 21 651 l 2,4,5
 13 670 13 670 16.5 683.5 c 128,-1,6
 20 697 20 697 31.5 704.5 c 128,-1,7
 43 712 43 712 59 712 c 0,8,9
 80 712 80 712 90.5 703 c 128,-1,10
 101 694 101 694 109 676 c 2,11,-1
 367 77 l 1,12,-1
 332 77 l 1,13,-1
 589 676 l 2,14,15
 597 694 597 694 608 703 c 128,-1,16
 619 712 619 712 639 712 c 0,17,18
 655 712 655 712 665.5 704 c 128,-1,19
 676 696 676 696 678.5 682.5 c 128,-1,20
 681 669 681 669 674 651 c 2,21,-1
 402 32 l 2,22,23
 394 12 394 12 381.5 2.5 c 128,-1,24
 369 -7 369 -7 348 -7 c 256,0,1
EndSplineSet
EndChar

StartChar: W
Encoding: 87 87 218
Width: 1104
GlyphClass: 2
Flags: W
AnchorPoint: "Anchor-2" 552 0 basechar 0
AnchorPoint: "Anchor-0" 552 705 basechar 0
LayerCount: 2
Fore
SplineSet
316 -7 m 256,0,1
 296 -7 296 -7 284 3 c 128,-1,2
 272 13 272 13 264 35 c 2,3,-1
 46 657 l 2,4,5
 37 680 37 680 48.5 696 c 128,-1,6
 60 712 60 712 87 712 c 0,7,8
 106 712 106 712 117 703 c 128,-1,9
 128 694 128 694 135 673 c 2,10,-1
 336 83 l 1,11,-1
 300 83 l 1,12,-1
 506 671 l 2,13,14
 514 692 514 692 525 702 c 128,-1,15
 536 712 536 712 554 712 c 0,16,17
 573 712 573 712 583.5 702 c 128,-1,18
 594 692 594 692 601 670 c 2,19,-1
 803 83 l 1,20,-1
 771 83 l 1,21,-1
 974 673 l 2,22,23
 981 693 981 693 992 702.5 c 128,-1,24
 1003 712 1003 712 1023 712 c 0,25,26
 1046 712 1046 712 1057 696 c 128,-1,27
 1068 680 1068 680 1060 657 c 2,28,-1
 840 34 l 2,29,30
 833 13 833 13 821 3 c 128,-1,31
 809 -7 809 -7 789 -7 c 0,32,33
 768 -7 768 -7 756 3 c 128,-1,34
 744 13 744 13 736 35 c 2,35,-1
 541 595 l 1,36,-1
 563 595 l 1,37,-1
 367 34 l 2,38,39
 359 13 359 13 347.5 3 c 128,-1,40
 336 -7 336 -7 316 -7 c 256,0,1
EndSplineSet
EndChar

StartChar: X
Encoding: 88 88 223
Width: 655
GlyphClass: 2
Flags: W
AnchorPoint: "Anchor-2" 328 0 basechar 0
AnchorPoint: "Anchor-0" 328 705 basechar 0
LayerCount: 2
Fore
SplineSet
83 -7 m 0,0,1
 65 -7 65 -7 53 2.5 c 128,-1,2
 41 12 41 12 39.5 27 c 128,-1,3
 38 42 38 42 49 57 c 2,4,-1
 289 378 l 1,5,-1
 289 342 l 1,6,-1
 63 646 l 2,7,8
 51 663 51 663 52.5 678 c 128,-1,9
 54 693 54 693 65.5 702.5 c 128,-1,10
 77 712 77 712 94 712 c 0,11,12
 109 712 109 712 120.5 705.5 c 128,-1,13
 132 699 132 699 143 682 c 2,14,-1
 343 409 l 1,15,-1
 314 409 l 1,16,-1
 512 682 l 2,17,18
 523 699 523 699 534.5 705.5 c 128,-1,19
 546 712 546 712 562 712 c 0,20,21
 580 712 580 712 591.5 702.5 c 128,-1,22
 603 693 603 693 604.5 678 c 128,-1,23
 606 663 606 663 593 646 c 2,24,-1
 367 342 l 1,25,-1
 367 378 l 1,26,-1
 606 57 l 2,27,28
 617 42 617 42 616 27 c 128,-1,29
 615 12 615 12 603 2.5 c 128,-1,30
 591 -7 591 -7 572 -7 c 0,31,32
 559 -7 559 -7 547 0 c 128,-1,33
 535 7 535 7 523 23 c 2,34,-1
 310 314 l 1,35,-1
 345 314 l 1,36,-1
 133 23 l 2,37,38
 121 7 121 7 109 0 c 128,-1,39
 97 -7 97 -7 83 -7 c 0,0,1
EndSplineSet
EndChar

StartChar: Y
Encoding: 89 89 224
Width: 601
GlyphClass: 2
Flags: W
AnchorPoint: "Anchor-2" 301 0 basechar 0
AnchorPoint: "Anchor-0" 300 705 basechar 0
LayerCount: 2
Fore
SplineSet
300 -7 m 0,0,1
 278 -7 278 -7 266 5.5 c 128,-1,2
 254 18 254 18 254 42 c 2,3,-1
 254 365 l 1,4,-1
 274 303 l 1,5,-1
 26 647 l 2,6,7
 16 661 16 661 16.5 676.5 c 128,-1,8
 17 692 17 692 28 702 c 128,-1,9
 39 712 39 712 58 712 c 0,10,11
 73 712 73 712 85 705 c 128,-1,12
 97 698 97 698 108 682 c 2,13,-1
 314 398 l 1,14,-1
 291 398 l 1,15,-1
 497 682 l 2,16,17
 508 699 508 699 519 705.5 c 128,-1,18
 530 712 530 712 547 712 c 0,19,20
 565 712 565 712 575.5 702.5 c 128,-1,21
 586 693 586 693 586.5 678 c 128,-1,22
 587 663 587 663 575 647 c 2,23,-1
 327 303 l 1,24,-1
 347 365 l 1,25,-1
 347 42 l 2,26,27
 347 -7 347 -7 300 -7 c 0,0,1
EndSplineSet
EndChar

StartChar: uni01B3
Encoding: 435 435 231
Width: 614
GlyphClass: 1
Flags: W
LayerCount: 2
Fore
SplineSet
300 -7 m 0,0,1
 278 -7 278 -7 266 6 c 128,-1,2
 254 19 254 19 254 43 c 2,3,-1
 254 365 l 1,4,-1
 274 303 l 1,5,-1
 26 647 l 2,6,7
 16 661 16 661 17 676.5 c 128,-1,8
 18 692 18 692 29 702 c 128,-1,9
 40 712 40 712 59 712 c 0,10,11
 72 712 72 712 80 709 c 128,-1,12
 88 706 88 706 95 698.5 c 128,-1,13
 102 691 102 691 111 678 c 2,14,-1
 314 398 l 1,15,-1
 292 398 l 1,16,-1
 454 630 l 2,17,18
 474 659 474 659 497 677 c 128,-1,19
 520 695 520 695 547.5 704 c 128,-1,20
 575 713 575 713 606 713 c 0,21,22
 640 713 640 713 658.5 705.5 c 128,-1,23
 677 698 677 698 677 673 c 0,24,25
 677 663 677 663 673 655.5 c 128,-1,26
 669 648 669 648 662.5 644.5 c 128,-1,27
 656 641 656 641 648 642 c 0,28,29
 642 642 642 642 634 642.5 c 128,-1,30
 626 643 626 643 621 643 c 0,31,32
 598 643 598 643 574 632 c 128,-1,33
 550 621 550 621 531 593 c 2,34,-1
 327 303 l 1,35,-1
 347 365 l 1,36,-1
 347 43 l 2,37,38
 347 -7 347 -7 300 -7 c 0,0,1
EndSplineSet
EndChar

StartChar: Z
Encoding: 90 90 235
Width: 593
GlyphClass: 2
Flags: W
AnchorPoint: "Anchor-2" 309 0 basechar 0
AnchorPoint: "Anchor-0" 308 705 basechar 0
LayerCount: 2
Fore
SplineSet
91 0 m 2,0,1
 73 0 73 0 61.5 7.5 c 128,-1,2
 50 15 50 15 45.5 27.5 c 128,-1,3
 41 40 41 40 45.5 56 c 128,-1,4
 50 72 50 72 62 89 c 2,5,-1
 471 659 l 1,6,-1
 471 626 l 1,7,-1
 84 626 l 2,8,9
 63 626 63 626 52 636.5 c 128,-1,10
 41 647 41 647 41 666 c 256,11,12
 41 685 41 685 52 695 c 128,-1,13
 63 705 63 705 84 705 c 2,14,-1
 513 705 l 2,15,16
 531 705 531 705 542.5 697.5 c 128,-1,17
 554 690 554 690 558.5 677.5 c 128,-1,18
 563 665 563 665 559 649 c 128,-1,19
 555 633 555 633 542 616 c 2,20,-1
 133 46 l 1,21,-1
 133 79 l 1,22,-1
 535 79 l 2,23,24
 556 79 556 79 567 69 c 128,-1,25
 578 59 578 59 578 40 c 256,26,27
 578 21 578 21 567 10.5 c 128,-1,28
 556 0 556 0 535 0 c 2,29,-1
 91 0 l 2,0,1
EndSplineSet
EndChar

StartChar: a
Encoding: 97 97 242
Width: 533
GlyphClass: 2
Flags: W
AnchorPoint: "Anchor-3" 442 0 basechar 0
AnchorPoint: "Anchor-2" 270 0 basechar 0
AnchorPoint: "Anchor-0" 273 484 basechar 0
LayerCount: 2
Fore
SplineSet
228 -9 m 0,0,1
 178 -9 178 -9 137.5 11 c 128,-1,2
 97 31 97 31 74.5 65 c 128,-1,3
 52 99 52 99 52 141 c 0,4,5
 52 195 52 195 79 226 c 128,-1,6
 106 257 106 257 170 270.5 c 128,-1,7
 234 284 234 284 342 284 c 2,8,-1
 389 284 l 1,9,-1
 389 226 l 1,10,-1
 344 226 l 2,11,12
 267 226 267 226 222.5 219 c 128,-1,13
 178 212 178 212 160 194.5 c 128,-1,14
 142 177 142 177 142 146 c 0,15,16
 142 107 142 107 169.5 82 c 128,-1,17
 197 57 197 57 245 57 c 0,18,19
 283 57 283 57 312 75.5 c 128,-1,20
 341 94 341 94 358 125.5 c 128,-1,21
 375 157 375 157 375 198 c 2,22,-1
 375 313 l 2,23,24
 375 372 375 372 351 398.5 c 128,-1,25
 327 425 327 425 270 425 c 0,26,27
 237 425 237 425 202 416 c 128,-1,28
 167 407 167 407 129 388 c 0,29,30
 114 381 114 381 103 383.5 c 128,-1,31
 92 386 92 386 85.5 395.5 c 128,-1,32
 79 405 79 405 78.5 416.5 c 128,-1,33
 78 428 78 428 83.5 439 c 128,-1,34
 89 450 89 450 103 455 c 0,35,36
 147 477 147 477 190.5 486.5 c 128,-1,37
 234 496 234 496 272 496 c 0,38,39
 337 496 337 496 379 475.5 c 128,-1,40
 421 455 421 455 442 412.5 c 128,-1,41
 463 370 463 370 463 304 c 2,42,-1
 463 40 l 2,43,44
 463 17 463 17 452 5 c 128,-1,45
 441 -7 441 -7 420 -7 c 0,46,47
 400 -7 400 -7 388.5 5 c 128,-1,48
 377 17 377 17 377 40 c 2,49,-1
 377 111 l 1,50,-1
 386 111 l 1,51,52
 378 74 378 74 356 47 c 128,-1,53
 334 20 334 20 301.5 5.5 c 128,-1,54
 269 -9 269 -9 228 -9 c 0,0,1
EndSplineSet
Substitution2: "'ss01' Style Set 1 lookup 35 subtable" a.ss01
Substitution2: "'salt' Stylistic Alternatives lookup 34 subtable" a.ss01
Substitution2: "Single Substitution lookup 29 subtable" ordfeminine
AlternateSubs2: "'aalt' Access All Alternates lookup 1 subtable" a.ss01 ordfeminine
EndChar

StartChar: aogonek
Encoding: 261 261 265
Width: 533
GlyphClass: 1
Flags: W
LayerCount: 2
Fore
SplineSet
423 -193 m 0,0,1
 374 -193 374 -193 344.5 -166 c 128,-1,2
 315 -139 315 -139 315 -94 c 0,3,4
 315 -58 315 -58 335.5 -26 c 128,-1,5
 356 6 356 6 392 28 c 1,6,-1
 387 8 l 1,7,8
 382 14 382 14 379.5 22 c 128,-1,9
 377 30 377 30 377 40 c 2,10,-1
 377 111 l 1,11,-1
 386 111 l 1,12,13
 378 74 378 74 356 47 c 128,-1,14
 334 20 334 20 301.5 5.5 c 128,-1,15
 269 -9 269 -9 228 -9 c 0,16,17
 178 -9 178 -9 137.5 11 c 128,-1,18
 97 31 97 31 74.5 65 c 128,-1,19
 52 99 52 99 52 141 c 0,20,21
 52 195 52 195 79 226 c 128,-1,22
 106 257 106 257 170 270.5 c 128,-1,23
 234 284 234 284 342 284 c 2,24,-1
 389 284 l 1,25,-1
 389 226 l 1,26,-1
 344 226 l 2,27,28
 267 226 267 226 222.5 219 c 128,-1,29
 178 212 178 212 160 194.5 c 128,-1,30
 142 177 142 177 142 146 c 0,31,32
 142 107 142 107 169.5 82 c 128,-1,33
 197 57 197 57 245 57 c 0,34,35
 283 57 283 57 312 75.5 c 128,-1,36
 341 94 341 94 358 125.5 c 128,-1,37
 375 157 375 157 375 198 c 2,38,-1
 375 313 l 2,39,40
 375 372 375 372 351 398.5 c 128,-1,41
 327 425 327 425 270 425 c 0,42,43
 237 425 237 425 202 416 c 128,-1,44
 167 407 167 407 129 388 c 0,45,46
 114 381 114 381 103 383.5 c 128,-1,47
 92 386 92 386 85.5 395.5 c 128,-1,48
 79 405 79 405 78.5 416.5 c 128,-1,49
 78 428 78 428 83.5 439 c 128,-1,50
 89 450 89 450 103 455 c 0,51,52
 147 477 147 477 190.5 486.5 c 128,-1,53
 234 496 234 496 272 496 c 0,54,55
 337 496 337 496 379 475.5 c 128,-1,56
 421 455 421 455 442 412.5 c 128,-1,57
 463 370 463 370 463 304 c 2,58,-1
 463 40 l 2,59,60
 463 20 463 20 455.5 9.5 c 128,-1,61
 448 -1 448 -1 434 -7 c 0,62,63
 412 -18 412 -18 394.5 -37.5 c 128,-1,64
 377 -57 377 -57 377 -84 c 256,65,66
 377 -111 377 -111 394 -125 c 128,-1,67
 411 -139 411 -139 435 -139 c 0,68,69
 444 -139 444 -139 452 -137.5 c 128,-1,70
 460 -136 460 -136 469 -133 c 0,71,72
 483 -129 483 -129 491.5 -134.5 c 128,-1,73
 500 -140 500 -140 502 -150 c 128,-1,74
 504 -160 504 -160 499 -169.5 c 128,-1,75
 494 -179 494 -179 483 -184 c 0,76,77
 467 -190 467 -190 452 -191.5 c 128,-1,78
 437 -193 437 -193 423 -193 c 0,0,1
EndSplineSet
Substitution2: "'ss01' Style Set 1 lookup 35 subtable" aogonek.ss01
Substitution2: "'salt' Stylistic Alternatives lookup 34 subtable" aogonek.ss01
Substitution2: "'aalt' Access All Alternates lookup 0 subtable" aogonek.ss01
EndChar

StartChar: ae
Encoding: 230 230 269
Width: 862
GlyphClass: 2
Flags: W
AnchorPoint: "Anchor-2" 415 0 basechar 0
AnchorPoint: "Anchor-0" 415 484 basechar 0
LayerCount: 2
Fore
SplineSet
235 -9 m 0,0,1
 181 -9 181 -9 139.5 11 c 128,-1,2
 98 31 98 31 75 65 c 128,-1,3
 52 99 52 99 52 141 c 0,4,5
 52 195 52 195 79.5 226 c 128,-1,6
 107 257 107 257 171 270 c 128,-1,7
 235 283 235 283 344 283 c 2,8,-1
 389 283 l 1,9,-1
 389 226 l 1,10,-1
 344 226 l 2,11,12
 267 226 267 226 222.5 219 c 128,-1,13
 178 212 178 212 160 194.5 c 128,-1,14
 142 177 142 177 142 146 c 0,15,16
 142 107 142 107 169.5 82 c 128,-1,17
 197 57 197 57 246 57 c 0,18,19
 286 57 286 57 315 76 c 128,-1,20
 344 95 344 95 360.5 128 c 128,-1,21
 377 161 377 161 377 203 c 2,22,-1
 377 311 l 2,23,24
 377 371 377 371 352 398 c 128,-1,25
 327 425 327 425 272 425 c 0,26,27
 238 425 238 425 203 416 c 128,-1,28
 168 407 168 407 130 388 c 0,29,30
 115 381 115 381 103.5 383.5 c 128,-1,31
 92 386 92 386 86 395.5 c 128,-1,32
 80 405 80 405 79.5 416.5 c 128,-1,33
 79 428 79 428 84.5 439 c 128,-1,34
 90 450 90 450 104 455 c 0,35,36
 148 477 148 477 191.5 486.5 c 128,-1,37
 235 496 235 496 273 496 c 0,38,39
 345 496 345 496 388 467 c 128,-1,40
 431 438 431 438 447 379 c 1,41,-1
 422 379 l 1,42,43
 447 436 447 436 498.5 466 c 128,-1,44
 550 496 550 496 612 497 c 0,45,46
 660 497 660 497 699 480.5 c 128,-1,47
 738 464 738 464 765.5 433 c 128,-1,48
 793 402 793 402 807.5 357.5 c 128,-1,49
 822 313 822 313 822 257 c 2,50,-1
 822 254 l 2,51,52
 822 240 822 240 812.5 233 c 128,-1,53
 803 226 803 226 785 226 c 2,54,-1
 457 226 l 1,55,-1
 457 283 l 1,56,-1
 760 283 l 1,57,-1
 745 270 l 1,58,59
 745 321 745 321 730 356.5 c 128,-1,60
 715 392 715 392 685.5 411 c 128,-1,61
 656 430 656 430 612 430 c 0,62,63
 567 430 567 430 534 409 c 128,-1,64
 501 388 501 388 483.5 348.5 c 128,-1,65
 466 309 466 309 466 254 c 2,66,-1
 466 247 l 2,67,68
 466 157 466 157 506.5 110 c 128,-1,69
 547 63 547 63 628 63 c 0,70,71
 657 63 657 63 691.5 71.5 c 128,-1,72
 726 80 726 80 757 100 c 0,73,74
 772 109 772 109 784.5 108.5 c 128,-1,75
 797 108 797 108 805 100.5 c 128,-1,76
 813 93 813 93 815 82.5 c 128,-1,77
 817 72 817 72 812 60 c 128,-1,78
 807 48 807 48 793 39 c 0,79,80
 759 16 759 16 714.5 3.5 c 128,-1,81
 670 -9 670 -9 628 -9 c 0,82,83
 543 -9 543 -9 484.5 29 c 128,-1,84
 426 67 426 67 403 142 c 1,85,-1
 424 142 l 1,86,87
 410 72 410 72 360 31.5 c 128,-1,88
 310 -9 310 -9 235 -9 c 0,0,1
EndSplineSet
EndChar

StartChar: b
Encoding: 98 98 271
Width: 587
GlyphClass: 2
Flags: W
AnchorPoint: "Anchor-2" 308 0 basechar 0
AnchorPoint: "Anchor-0" 308 705 basechar 0
LayerCount: 2
Fore
SplineSet
328 -9 m 0,0,1
 262 -9 262 -9 215 24 c 128,-1,2
 168 57 168 57 152 113 c 1,3,-1
 163 128 l 1,4,-1
 163 40 l 2,5,6
 163 17 163 17 151.5 5 c 128,-1,7
 140 -7 140 -7 118 -7 c 0,8,9
 97 -7 97 -7 85 5 c 128,-1,10
 73 17 73 17 73 40 c 2,11,-1
 73 666 l 2,12,13
 73 689 73 689 85 700.5 c 128,-1,14
 97 712 97 712 118 712 c 0,15,16
 140 712 140 712 152 700.5 c 128,-1,17
 164 689 164 689 164 666 c 2,18,-1
 164 377 l 1,19,-1
 153 377 l 1,20,21
 169 431 169 431 216 463.5 c 128,-1,22
 263 496 263 496 328 496 c 256,23,24
 393 496 393 496 441.5 465.5 c 128,-1,25
 490 435 490 435 516.5 378.5 c 128,-1,26
 543 322 543 322 543 244 c 0,27,28
 543 167 543 167 516 109.5 c 128,-1,29
 489 52 489 52 441 21.5 c 128,-1,30
 393 -9 393 -9 328 -9 c 0,0,1
307 63 m 0,31,32
 350 63 350 63 382.5 84 c 128,-1,33
 415 105 415 105 433 145 c 128,-1,34
 451 185 451 185 451 244 c 0,35,36
 451 332 451 332 412 378 c 128,-1,37
 373 424 373 424 307 424 c 0,38,39
 263 424 263 424 230.5 403.5 c 128,-1,40
 198 383 198 383 180.5 343 c 128,-1,41
 163 303 163 303 163 244 c 0,42,43
 163 156 163 156 202 109.5 c 128,-1,44
 241 63 241 63 307 63 c 0,31,32
EndSplineSet
EndChar

StartChar: uni0253
Encoding: 595 595 272
Width: 587
GlyphClass: 1
Flags: W
LayerCount: 2
Fore
SplineSet
328 -9 m 0,0,1
 262 -9 262 -9 215 24 c 128,-1,2
 168 57 168 57 152 113 c 1,3,-1
 163 128 l 1,4,-1
 163 40 l 2,5,6
 163 17 163 17 151.5 5 c 128,-1,7
 140 -7 140 -7 118 -7 c 0,8,9
 97 -7 97 -7 85 5 c 128,-1,10
 73 17 73 17 73 40 c 2,11,-1
 73 538 l 2,12,13
 73 621 73 621 117 667.5 c 128,-1,14
 161 714 161 714 245 714 c 0,15,16
 280 714 280 714 295 704 c 128,-1,17
 310 694 310 694 310 675 c 0,18,19
 310 658 310 658 302.5 647.5 c 128,-1,20
 295 637 295 637 282 638 c 0,21,22
 276 638 276 638 269.5 639 c 128,-1,23
 263 640 263 640 254 640 c 0,24,25
 211 640 211 640 187.5 614.5 c 128,-1,26
 164 589 164 589 164 540 c 2,27,-1
 164 377 l 1,28,-1
 153 377 l 1,29,30
 169 431 169 431 216 463.5 c 128,-1,31
 263 496 263 496 328 496 c 256,32,33
 393 496 393 496 441.5 465.5 c 128,-1,34
 490 435 490 435 516.5 378.5 c 128,-1,35
 543 322 543 322 543 244 c 0,36,37
 543 167 543 167 516 109.5 c 128,-1,38
 489 52 489 52 441 21.5 c 128,-1,39
 393 -9 393 -9 328 -9 c 0,0,1
307 63 m 0,40,41
 350 63 350 63 382.5 84 c 128,-1,42
 415 105 415 105 433 145 c 128,-1,43
 451 185 451 185 451 244 c 0,44,45
 451 332 451 332 412 378 c 128,-1,46
 373 424 373 424 307 424 c 0,47,48
 263 424 263 424 230.5 403.5 c 128,-1,49
 198 383 198 383 180.5 343 c 128,-1,50
 163 303 163 303 163 244 c 0,51,52
 163 156 163 156 202 109.5 c 128,-1,53
 241 63 241 63 307 63 c 0,40,41
EndSplineSet
EndChar

StartChar: c
Encoding: 99 99 273
Width: 465
GlyphClass: 2
Flags: W
AnchorPoint: "Anchor-2" 279 0 basechar 0
AnchorPoint: "Anchor-0" 279 484 basechar 0
LayerCount: 2
Fore
SplineSet
284 -9 m 0,0,1
 210 -9 210 -9 156 22.5 c 128,-1,2
 102 54 102 54 73 111.5 c 128,-1,3
 44 169 44 169 44 247 c 0,4,5
 44 305 44 305 60.5 351 c 128,-1,6
 77 397 77 397 108 429.5 c 128,-1,7
 139 462 139 462 183.5 479 c 128,-1,8
 228 496 228 496 284 496 c 0,9,10
 319 496 319 496 358 485 c 128,-1,11
 397 474 397 474 430 449 c 0,12,13
 441 441 441 441 444 430.5 c 128,-1,14
 447 420 447 420 444.5 409 c 128,-1,15
 442 398 442 398 434.5 390.5 c 128,-1,16
 427 383 427 383 415.5 382 c 128,-1,17
 404 381 404 381 391 389 c 0,18,19
 367 407 367 407 340.5 415 c 128,-1,20
 314 423 314 423 290 423 c 0,21,22
 253 423 253 423 224.5 411 c 128,-1,23
 196 399 196 399 176.5 376.5 c 128,-1,24
 157 354 157 354 147 321.5 c 128,-1,25
 137 289 137 289 137 246 c 0,26,27
 137 161 137 161 177 112.5 c 128,-1,28
 217 64 217 64 290 64 c 0,29,30
 314 64 314 64 340 71.5 c 128,-1,31
 366 79 366 79 391 97 c 0,32,33
 404 105 404 105 415 103.5 c 128,-1,34
 426 102 426 102 433.5 94.5 c 128,-1,35
 441 87 441 87 443 76.5 c 128,-1,36
 445 66 445 66 441.5 55 c 128,-1,37
 438 44 438 44 427 37 c 0,38,39
 395 13 395 13 357 2 c 128,-1,40
 319 -9 319 -9 284 -9 c 0,0,1
EndSplineSet
EndChar

StartChar: d
Encoding: 100 100 280
Width: 587
GlyphClass: 2
Flags: W
AnchorPoint: "Anchor-5" 292 246 basechar 0
AnchorPoint: "Anchor-4" 418 585 basechar 0
AnchorPoint: "Anchor-2" 295 0 basechar 0
AnchorPoint: "Anchor-1" 558 705 basechar 0
AnchorPoint: "Anchor-0" 294 705 basechar 0
LayerCount: 2
Fore
SplineSet
259 -9 m 0,0,1
 195 -9 195 -9 146.5 21.5 c 128,-1,2
 98 52 98 52 71 109.5 c 128,-1,3
 44 167 44 167 44 244 c 0,4,5
 44 322 44 322 70.5 378.5 c 128,-1,6
 97 435 97 435 145.5 465.5 c 128,-1,7
 194 496 194 496 259 496 c 256,8,9
 324 496 324 496 371 463.5 c 128,-1,10
 418 431 418 431 434 377 c 1,11,-1
 423 377 l 1,12,-1
 423 666 l 2,13,14
 423 689 423 689 434.5 700.5 c 128,-1,15
 446 712 446 712 468 712 c 256,16,17
 490 712 490 712 502 700.5 c 128,-1,18
 514 689 514 689 514 666 c 2,19,-1
 514 40 l 2,20,21
 514 17 514 17 502 5 c 128,-1,22
 490 -7 490 -7 468 -7 c 0,23,24
 447 -7 447 -7 435 5 c 128,-1,25
 423 17 423 17 423 40 c 2,26,-1
 423 131 l 1,27,-1
 434 113 l 1,28,29
 419 57 419 57 371.5 24 c 128,-1,30
 324 -9 324 -9 259 -9 c 0,0,1
280 63 m 0,31,32
 324 63 324 63 356.5 84 c 128,-1,33
 389 105 389 105 406.5 145 c 128,-1,34
 424 185 424 185 424 244 c 0,35,36
 424 332 424 332 385 378 c 128,-1,37
 346 424 346 424 280 424 c 0,38,39
 237 424 237 424 204.5 403.5 c 128,-1,40
 172 383 172 383 154 343 c 128,-1,41
 136 303 136 303 136 244 c 0,42,43
 136 156 136 156 175.5 109.5 c 128,-1,44
 215 63 215 63 280 63 c 0,31,32
EndSplineSet
EndChar

StartChar: eth
Encoding: 240 240 281
Width: 565
GlyphClass: 1
Flags: W
LayerCount: 2
Fore
SplineSet
277 -9 m 0,0,1
 208 -9 208 -9 155 20 c 128,-1,2
 102 49 102 49 73 101 c 128,-1,3
 44 153 44 153 44 222 c 256,4,5
 44 291 44 291 73 342.5 c 128,-1,6
 102 394 102 394 153.5 423 c 128,-1,7
 205 452 205 452 273 452 c 0,8,9
 321 452 321 452 358.5 436 c 128,-1,10
 396 420 396 420 421.5 387.5 c 128,-1,11
 447 355 447 355 457 303 c 1,12,-1
 434 303 l 1,13,14
 435 399 435 399 395.5 471 c 128,-1,15
 356 543 356 543 290 586 c 1,16,-1
 311 586 l 1,17,-1
 162 520 l 2,18,19
 144 512 144 512 131.5 517 c 128,-1,20
 119 522 119 522 114 532.5 c 128,-1,21
 109 543 109 543 114 556 c 128,-1,22
 119 569 119 569 138 577 c 2,23,-1
 245 624 l 1,24,-1
 248 611 l 1,25,26
 229 621 229 621 208 629.5 c 128,-1,27
 187 638 187 638 164 645 c 0,28,29
 146 650 146 650 139 662 c 128,-1,30
 132 674 132 674 135.5 686 c 128,-1,31
 139 698 139 698 151 704.5 c 128,-1,32
 163 711 163 711 182 707 c 0,33,34
 223 696 223 696 258 681 c 128,-1,35
 293 666 293 666 324 647 c 1,36,-1
 299 648 l 1,37,-1
 423 702 l 2,38,39
 440 710 440 710 452.5 705.5 c 128,-1,40
 465 701 465 701 470.5 690 c 128,-1,41
 476 679 476 679 471.5 667 c 128,-1,42
 467 655 467 655 449 647 c 2,43,-1
 360 608 l 1,44,-1
 363 620 l 1,45,46
 414 581 414 581 449 530 c 128,-1,47
 484 479 484 479 502 418 c 128,-1,48
 520 357 520 357 520 285 c 0,49,50
 520 214 520 214 504.5 159.5 c 128,-1,51
 489 105 489 105 458 67.5 c 128,-1,52
 427 30 427 30 382 10.5 c 128,-1,53
 337 -9 337 -9 277 -9 c 0,0,1
279 63 m 0,54,55
 324 63 324 63 356.5 82.5 c 128,-1,56
 389 102 389 102 406.5 138 c 128,-1,57
 424 174 424 174 424 222 c 0,58,59
 424 295 424 295 385.5 337.5 c 128,-1,60
 347 380 347 380 280 380 c 0,61,62
 235 380 235 380 203 361 c 128,-1,63
 171 342 171 342 153.5 306.5 c 128,-1,64
 136 271 136 271 136 222 c 0,65,66
 136 147 136 147 174 105 c 128,-1,67
 212 63 212 63 279 63 c 0,54,55
EndSplineSet
EndChar

StartChar: dcroat
Encoding: 273 273 283
Width: 587
GlyphClass: 1
Flags: W
LayerCount: 2
Fore
SplineSet
260 -9 m 256,0,1
 195 -9 195 -9 146.5 21.5 c 128,-1,2
 98 52 98 52 71.5 109.5 c 128,-1,3
 45 167 45 167 45 244 c 0,4,5
 45 322 45 322 71.5 378.5 c 128,-1,6
 98 435 98 435 146.5 465.5 c 128,-1,7
 195 496 195 496 260 496 c 0,8,9
 324 496 324 496 371 463.5 c 128,-1,10
 418 431 418 431 434 377 c 1,11,-1
 423 377 l 1,12,-1
 423 551 l 1,13,-1
 263 551 l 2,14,15
 246 551 246 551 236 560 c 128,-1,16
 226 569 226 569 226 585 c 0,17,18
 226 600 226 600 236 609 c 128,-1,19
 246 618 246 618 263 618 c 2,20,-1
 460 618 l 1,21,-1
 423 580 l 1,22,-1
 423 672 l 2,23,24
 423 690 423 690 435 701 c 128,-1,25
 447 712 447 712 468 712 c 0,26,27
 490 712 490 712 502 701 c 128,-1,28
 514 690 514 690 514 672 c 2,29,-1
 514 580 l 1,30,-1
 477 618 l 1,31,-1
 573 618 l 2,32,33
 591 618 591 618 600 609 c 128,-1,34
 609 600 609 600 609 585 c 0,35,36
 609 569 609 569 600 560 c 128,-1,37
 591 551 591 551 573 551 c 2,38,-1
 514 551 l 1,39,-1
 514 40 l 2,40,41
 514 17 514 17 502.5 5 c 128,-1,42
 491 -7 491 -7 469 -7 c 256,43,44
 447 -7 447 -7 435.5 5 c 128,-1,45
 424 17 424 17 424 40 c 2,46,-1
 424 130 l 1,47,-1
 434 112 l 1,48,49
 419 57 419 57 372 24 c 128,-1,50
 325 -9 325 -9 260 -9 c 256,0,1
281 63 m 0,51,52
 324 63 324 63 356.5 84 c 128,-1,53
 389 105 389 105 407 145 c 128,-1,54
 425 185 425 185 425 244 c 0,55,56
 425 332 425 332 386 378 c 128,-1,57
 347 424 347 424 281 424 c 0,58,59
 237 424 237 424 204.5 403.5 c 128,-1,60
 172 383 172 383 154.5 343 c 128,-1,61
 137 303 137 303 137 244 c 0,62,63
 137 156 137 156 176 109.5 c 128,-1,64
 215 63 215 63 281 63 c 0,51,52
EndSplineSet
EndChar

StartChar: uni0257
Encoding: 599 599 285
Width: 587
GlyphClass: 1
Flags: W
LayerCount: 2
Fore
SplineSet
259 -9 m 0,0,1
 195 -9 195 -9 146.5 21.5 c 128,-1,2
 98 52 98 52 71 109.5 c 128,-1,3
 44 167 44 167 44 244 c 0,4,5
 44 322 44 322 70.5 378.5 c 128,-1,6
 97 435 97 435 145.5 465.5 c 128,-1,7
 194 496 194 496 259 496 c 256,8,9
 324 496 324 496 371 463.5 c 128,-1,10
 418 431 418 431 434 377 c 1,11,-1
 423 377 l 1,12,-1
 423 538 l 2,13,14
 423 621 423 621 466.5 667.5 c 128,-1,15
 510 714 510 714 594 714 c 0,16,17
 630 714 630 714 645 704 c 128,-1,18
 660 694 660 694 660 675 c 0,19,20
 660 658 660 658 652 647.5 c 128,-1,21
 644 637 644 637 631 638 c 0,22,23
 626 638 626 638 619 639 c 128,-1,24
 612 640 612 640 603 640 c 0,25,26
 561 640 561 640 537.5 614.5 c 128,-1,27
 514 589 514 589 514 540 c 2,28,-1
 514 40 l 2,29,30
 514 17 514 17 502 5 c 128,-1,31
 490 -7 490 -7 468 -7 c 0,32,33
 447 -7 447 -7 435 5 c 128,-1,34
 423 17 423 17 423 40 c 2,35,-1
 423 131 l 1,36,-1
 434 113 l 1,37,38
 419 57 419 57 371.5 24 c 128,-1,39
 324 -9 324 -9 259 -9 c 0,0,1
280 63 m 0,40,41
 324 63 324 63 356.5 84 c 128,-1,42
 389 105 389 105 406.5 145 c 128,-1,43
 424 185 424 185 424 244 c 0,44,45
 424 332 424 332 385 378 c 128,-1,46
 346 424 346 424 280 424 c 0,47,48
 237 424 237 424 204.5 403.5 c 128,-1,49
 172 383 172 383 154 343 c 128,-1,50
 136 303 136 303 136 244 c 0,51,52
 136 156 136 156 175.5 109.5 c 128,-1,53
 215 63 215 63 280 63 c 0,40,41
EndSplineSet
EndChar

StartChar: e
Encoding: 101 101 288
Width: 534
GlyphClass: 2
Flags: W
AnchorPoint: "Anchor-3" 359 0 basechar 0
AnchorPoint: "Anchor-2" 281 0 basechar 0
AnchorPoint: "Anchor-0" 281 484 basechar 0
LayerCount: 2
Fore
SplineSet
298 -9 m 0,0,1
 219 -9 219 -9 162.5 21.5 c 128,-1,2
 106 52 106 52 75 108.5 c 128,-1,3
 44 165 44 165 44 242 c 0,4,5
 44 318 44 318 74.5 375 c 128,-1,6
 105 432 105 432 158.5 464 c 128,-1,7
 212 496 212 496 281 496 c 0,8,9
 330 496 330 496 369.5 479.5 c 128,-1,10
 409 463 409 463 437 432 c 128,-1,11
 465 401 465 401 479.5 356.5 c 128,-1,12
 494 312 494 312 494 256 c 0,13,14
 494 240 494 240 484.5 231.5 c 128,-1,15
 475 223 475 223 457 223 c 2,16,-1
 115 223 l 1,17,-1
 115 281 l 1,18,-1
 434 281 l 1,19,-1
 417 267 l 1,20,21
 417 319 417 319 401.5 355.5 c 128,-1,22
 386 392 386 392 356.5 411 c 128,-1,23
 327 430 327 430 283 430 c 0,24,25
 235 430 235 430 201 407.5 c 128,-1,26
 167 385 167 385 149 344.5 c 128,-1,27
 131 304 131 304 131 251 c 2,28,-1
 131 245 l 2,29,30
 131 155 131 155 174 109 c 128,-1,31
 217 63 217 63 298 63 c 0,32,33
 330 63 330 63 363.5 71 c 128,-1,34
 397 79 397 79 428 100 c 0,35,36
 443 109 443 109 455.5 108.5 c 128,-1,37
 468 108 468 108 476 100.5 c 128,-1,38
 484 93 484 93 486 82.5 c 128,-1,39
 488 72 488 72 483 60 c 128,-1,40
 478 48 478 48 464 39 c 0,41,42
 431 16 431 16 385.5 3.5 c 128,-1,43
 340 -9 340 -9 298 -9 c 0,0,1
EndSplineSet
EndChar

StartChar: uni0259
Encoding: 601 601 311
Width: 535
GlyphClass: 1
Flags: W
LayerCount: 2
Fore
SplineSet
258 -9 m 256,0,1
 189 -9 189 -9 140.5 19.5 c 128,-1,2
 92 48 92 48 66 102.5 c 128,-1,3
 40 157 40 157 40 232 c 0,4,5
 40 247 40 247 50 255.5 c 128,-1,6
 60 264 60 264 78 264 c 2,7,-1
 420 264 l 1,8,-1
 420 206 l 1,9,-1
 101 206 l 1,10,-1
 121 220 l 1,11,12
 121 168 121 168 136 131.5 c 128,-1,13
 151 95 151 95 181 76 c 128,-1,14
 211 57 211 57 257 57 c 256,15,16
 303 57 303 57 336 78.5 c 128,-1,17
 369 100 369 100 386 140 c 128,-1,18
 403 180 403 180 403 235 c 2,19,-1
 403 242 l 2,20,21
 403 331 403 331 360 377.5 c 128,-1,22
 317 424 317 424 237 424 c 0,23,24
 205 424 205 424 171.5 415.5 c 128,-1,25
 138 407 138 407 106 386 c 0,26,27
 90 376 90 376 78 377 c 128,-1,28
 66 378 66 378 58.5 385.5 c 128,-1,29
 51 393 51 393 49 404.5 c 128,-1,30
 47 416 47 416 52 427.5 c 128,-1,31
 57 439 57 439 70 447 c 0,32,33
 104 471 104 471 149.5 483.5 c 128,-1,34
 195 496 195 496 237 496 c 0,35,36
 315 496 315 496 372 465.5 c 128,-1,37
 429 435 429 435 460 379 c 128,-1,38
 491 323 491 323 491 245 c 0,39,40
 491 169 491 169 461.5 112 c 128,-1,41
 432 55 432 55 379.5 23 c 128,-1,42
 327 -9 327 -9 258 -9 c 256,0,1
EndSplineSet
EndChar

StartChar: f
Encoding: 102 102 314
Width: 340
GlyphClass: 2
Flags: W
AnchorPoint: "Anchor-2" 147 0 basechar 0
AnchorPoint: "Anchor-0" 147 705 basechar 0
LayerCount: 2
Fore
SplineSet
147 -7 m 0,0,1
 125 -7 125 -7 113 5 c 128,-1,2
 101 17 101 17 101 40 c 2,3,-1
 101 417 l 1,4,-1
 41 417 l 2,5,6
 23 417 23 417 13 426.5 c 128,-1,7
 3 436 3 436 3 452 c 0,8,9
 3 469 3 469 13 478 c 128,-1,10
 23 487 23 487 41 487 c 2,11,-1
 126 487 l 1,12,-1
 101 463 l 1,13,-1
 101 500 l 2,14,15
 101 597 101 597 148.5 647.5 c 128,-1,16
 196 698 196 698 288 706 c 2,17,-1
 319 708 l 2,18,19
 334 710 334 710 343 703.5 c 128,-1,20
 352 697 352 697 355 687 c 128,-1,21
 358 677 358 677 355.5 666.5 c 128,-1,22
 353 656 353 656 346 648 c 128,-1,23
 339 640 339 640 328 639 c 2,24,-1
 306 638 l 2,25,26
 246 633 246 633 219 602.5 c 128,-1,27
 192 572 192 572 192 512 c 2,28,-1
 192 472 l 1,29,-1
 179 487 l 1,30,-1
 294 487 l 2,31,32
 313 487 313 487 323 478 c 128,-1,33
 333 469 333 469 333 452 c 0,34,35
 333 436 333 436 323 426.5 c 128,-1,36
 313 417 313 417 294 417 c 2,37,-1
 192 417 l 1,38,-1
 192 40 l 2,39,40
 192 -7 192 -7 147 -7 c 0,0,1
EndSplineSet
EndChar

StartChar: g
Encoding: 103 103 315
Width: 590
GlyphClass: 2
Flags: W
AnchorPoint: "Anchor-0" 297 484 basechar 0
LayerCount: 2
Fore
SplineSet
292 -189 m 0,0,1
 238 -189 238 -189 187.5 -177 c 128,-1,2
 137 -165 137 -165 96 -140 c 0,3,4
 83 -132 83 -132 78.5 -121.5 c 128,-1,5
 74 -111 74 -111 76.5 -100 c 128,-1,6
 79 -89 79 -89 86.5 -80.5 c 128,-1,7
 94 -72 94 -72 104.5 -69.5 c 128,-1,8
 115 -67 115 -67 126 -74 c 0,9,10
 170 -99 170 -99 210 -108 c 128,-1,11
 250 -117 250 -117 286 -117 c 0,12,13
 357 -117 357 -117 392.5 -80.5 c 128,-1,14
 428 -44 428 -44 428 26 c 2,15,-1
 428 134 l 1,16,-1
 437 134 l 1,17,18
 423 78 423 78 374.5 45 c 128,-1,19
 326 12 326 12 262 12 c 0,20,21
 196 12 196 12 147 42.5 c 128,-1,22
 98 73 98 73 71 127.5 c 128,-1,23
 44 182 44 182 44 254 c 0,24,25
 44 309 44 309 59.5 353.5 c 128,-1,26
 75 398 75 398 103.5 429.5 c 128,-1,27
 132 461 132 461 172 478.5 c 128,-1,28
 212 496 212 496 262 496 c 0,29,30
 327 496 327 496 375 463 c 128,-1,31
 423 430 423 430 437 374 c 1,32,-1
 426 360 l 1,33,-1
 426 448 l 2,34,35
 426 471 426 471 438 482.5 c 128,-1,36
 450 494 450 494 472 494 c 0,37,38
 493 494 493 494 505 482.5 c 128,-1,39
 517 471 517 471 517 448 c 2,40,-1
 517 38 l 2,41,42
 517 -75 517 -75 459.5 -132 c 128,-1,43
 402 -189 402 -189 292 -189 c 0,0,1
282 84 m 0,44,45
 327 84 327 84 359.5 104.5 c 128,-1,46
 392 125 392 125 409.5 163.5 c 128,-1,47
 427 202 427 202 427 254 c 0,48,49
 427 333 427 333 388 378.5 c 128,-1,50
 349 424 349 424 282 424 c 0,51,52
 237 424 237 424 204.5 403.5 c 128,-1,53
 172 383 172 383 154 345 c 128,-1,54
 136 307 136 307 136 254 c 0,55,56
 136 176 136 176 175.5 130 c 128,-1,57
 215 84 215 84 282 84 c 0,44,45
EndSplineSet
EndChar

StartChar: uni01E5
Encoding: 485 485 322
Width: 590
GlyphClass: 1
Flags: W
LayerCount: 2
Fore
SplineSet
292 -189 m 0,0,1
 238 -189 238 -189 188 -177.5 c 128,-1,2
 138 -166 138 -166 96 -140 c 0,3,4
 83 -132 83 -132 78.5 -121.5 c 128,-1,5
 74 -111 74 -111 76.5 -99.5 c 128,-1,6
 79 -88 79 -88 86.5 -80 c 128,-1,7
 94 -72 94 -72 104.5 -69.5 c 128,-1,8
 115 -67 115 -67 126 -74 c 0,9,10
 165 -97 165 -97 207.5 -107.5 c 128,-1,11
 250 -118 250 -118 286 -117 c 0,12,13
 334 -117 334 -117 365.5 -99.5 c 128,-1,14
 397 -82 397 -82 412 -50 c 1,15,-1
 422 -59 l 1,16,-1
 327 -59 l 2,17,18
 313 -59 313 -59 304 -50.5 c 128,-1,19
 295 -42 295 -42 295 -29 c 256,20,21
 295 -16 295 -16 304 -7.5 c 128,-1,22
 313 1 313 1 327 1 c 2,23,-1
 432 1 l 1,24,-1
 424 -19 l 1,25,26
 426 -8 426 -8 427 3.5 c 128,-1,27
 428 15 428 15 428 26 c 2,28,-1
 428 158 l 1,29,-1
 437 158 l 1,30,31
 422 102 422 102 375 70 c 128,-1,32
 328 38 328 38 263 38 c 256,33,34
 198 38 198 38 148.5 67.5 c 128,-1,35
 99 97 99 97 71.5 149 c 128,-1,36
 44 201 44 201 44 267 c 0,37,38
 44 317 44 317 59.5 359 c 128,-1,39
 75 401 75 401 104 432 c 128,-1,40
 133 463 133 463 173.5 479.5 c 128,-1,41
 214 496 214 496 263 496 c 0,42,43
 328 496 328 496 375 464 c 128,-1,44
 422 432 422 432 437 377 c 1,45,-1
 426 377 l 1,46,-1
 426 449 l 2,47,48
 426 471 426 471 438 482.5 c 128,-1,49
 450 494 450 494 472 494 c 0,50,51
 493 494 493 494 505 482.5 c 128,-1,52
 517 471 517 471 517 449 c 2,53,-1
 517 38 l 2,54,55
 517 21 517 21 515.5 5.5 c 128,-1,56
 514 -10 514 -10 512 -23 c 1,57,-1
 506 1 l 1,58,-1
 556 1 l 2,59,60
 570 1 570 1 578.5 -7.5 c 128,-1,61
 587 -16 587 -16 587 -29 c 256,62,63
 587 -42 587 -42 578.5 -50.5 c 128,-1,64
 570 -59 570 -59 556 -59 c 2,65,-1
 484 -59 l 1,66,-1
 506 -49 l 1,67,68
 486 -119 486 -119 432.5 -154 c 128,-1,69
 379 -189 379 -189 292 -189 c 0,0,1
282 110 m 0,70,71
 326 110 326 110 358.5 129.5 c 128,-1,72
 391 149 391 149 408.5 184.5 c 128,-1,73
 426 220 426 220 426 267 c 0,74,75
 426 339 426 339 387 381.5 c 128,-1,76
 348 424 348 424 282 424 c 0,77,78
 238 424 238 424 205 405 c 128,-1,79
 172 386 172 386 154 351 c 128,-1,80
 136 316 136 316 136 267 c 0,81,82
 136 195 136 195 176.5 152.5 c 128,-1,83
 217 110 217 110 282 110 c 0,70,71
EndSplineSet
EndChar

StartChar: h
Encoding: 104 104 323
Width: 572
GlyphClass: 2
Flags: W
AnchorPoint: "Anchor-5" 287 247 basechar 0
AnchorPoint: "Anchor-4" 169 585 basechar 0
AnchorPoint: "Anchor-2" 287 0 basechar 0
AnchorPoint: "Anchor-1" 199 705 basechar 0
AnchorPoint: "Anchor-0" 287 705 basechar 0
LayerCount: 2
Fore
SplineSet
118 -7 m 0,0,1
 97 -7 97 -7 85 5 c 128,-1,2
 73 17 73 17 73 40 c 2,3,-1
 73 666 l 2,4,5
 73 689 73 689 85 700.5 c 128,-1,6
 97 712 97 712 118 712 c 0,7,8
 140 712 140 712 152 700.5 c 128,-1,9
 164 689 164 689 164 666 c 2,10,-1
 164 381 l 1,11,-1
 151 381 l 1,12,13
 172 438 172 438 219.5 467 c 128,-1,14
 267 496 267 496 328 496 c 0,15,16
 387 496 387 496 425 474.5 c 128,-1,17
 463 453 463 453 482 410 c 128,-1,18
 501 367 501 367 501 302 c 2,19,-1
 501 40 l 2,20,21
 501 17 501 17 489.5 5 c 128,-1,22
 478 -7 478 -7 456 -7 c 256,23,24
 434 -7 434 -7 422 5 c 128,-1,25
 410 17 410 17 410 40 c 2,26,-1
 410 297 l 2,27,28
 410 362 410 362 385 392 c 128,-1,29
 360 422 360 422 305 422 c 0,30,31
 241 422 241 422 202.5 382.5 c 128,-1,32
 164 343 164 343 164 276 c 2,33,-1
 164 40 l 2,34,35
 164 -7 164 -7 118 -7 c 0,0,1
EndSplineSet
EndChar

StartChar: hbar
Encoding: 295 295 324
Width: 572
GlyphClass: 1
Flags: W
LayerCount: 2
Fore
SplineSet
118 -7 m 0,0,1
 97 -7 97 -7 85 5 c 128,-1,2
 73 17 73 17 73 40 c 2,3,-1
 73 551 l 1,4,-1
 17 551 l 2,5,6
 0 551 0 551 -9.5 560 c 128,-1,7
 -19 569 -19 569 -19 585 c 0,8,9
 -19 618 -19 618 17 618 c 2,10,-1
 93 618 l 1,11,-1
 73 586 l 1,12,-1
 73 669 l 2,13,14
 73 689 73 689 85 700.5 c 128,-1,15
 97 712 97 712 118 712 c 0,16,17
 140 712 140 712 152 700.5 c 128,-1,18
 164 689 164 689 164 669 c 2,19,-1
 164 586 l 1,20,-1
 144 618 l 1,21,-1
 321 618 l 2,22,23
 340 618 340 618 349 609 c 128,-1,24
 358 600 358 600 358 585 c 0,25,26
 358 551 358 551 321 551 c 2,27,-1
 164 551 l 1,28,-1
 164 381 l 1,29,-1
 151 381 l 1,30,31
 172 438 172 438 219.5 467 c 128,-1,32
 267 496 267 496 328 496 c 0,33,34
 387 496 387 496 425 474.5 c 128,-1,35
 463 453 463 453 482 410 c 128,-1,36
 501 367 501 367 501 302 c 2,37,-1
 501 40 l 2,38,39
 501 17 501 17 489.5 5 c 128,-1,40
 478 -7 478 -7 456 -7 c 256,41,42
 434 -7 434 -7 422 5 c 128,-1,43
 410 17 410 17 410 40 c 2,44,-1
 410 297 l 2,45,46
 410 362 410 362 385 392 c 128,-1,47
 360 422 360 422 305 422 c 0,48,49
 241 422 241 422 202.5 382.5 c 128,-1,50
 164 343 164 343 164 276 c 2,51,-1
 164 40 l 2,52,53
 164 -7 164 -7 118 -7 c 0,0,1
EndSplineSet
EndChar

StartChar: i
Encoding: 105 105 329
Width: 237
GlyphClass: 2
Flags: W
AnchorPoint: "Anchor-3" 149 0 basechar 0
AnchorPoint: "Anchor-2" 118 0 basechar 0
LayerCount: 2
Fore
SplineSet
118 -5 m 0,0,1
 97 -5 97 -5 85 8 c 128,-1,2
 73 21 73 21 73 44 c 2,3,-1
 73 443 l 2,4,5
 73 467 73 467 85 479.5 c 128,-1,6
 97 492 97 492 118 492 c 0,7,8
 140 492 140 492 152 479.5 c 128,-1,9
 164 467 164 467 164 443 c 2,10,-1
 164 44 l 2,11,12
 164 21 164 21 152.5 8 c 128,-1,13
 141 -5 141 -5 118 -5 c 0,0,1
118 600 m 0,14,15
 91 600 91 600 75.5 614.5 c 128,-1,16
 60 629 60 629 60 653 c 0,17,18
 60 679 60 679 75.5 692.5 c 128,-1,19
 91 706 91 706 118 706 c 0,20,21
 147 706 147 706 161.5 692.5 c 128,-1,22
 176 679 176 679 176 653 c 0,23,24
 176 629 176 629 161.5 614.5 c 128,-1,25
 147 600 147 600 118 600 c 0,14,15
EndSplineSet
Substitution2: "'locl' Localized Forms in Latin lookup 10 subtable" i.loclTRK
Substitution2: "Single Substitution lookup 4 subtable" dotlessi
Substitution2: "Single Substitution lookup 3 subtable" dotlessi
Substitution2: "'aalt' Access All Alternates lookup 0 subtable" i.loclTRK
EndChar

StartChar: dotlessi
Encoding: 305 305 330
Width: 237
GlyphClass: 2
Flags: W
AnchorPoint: "Anchor-3" 149 0 basechar 0
AnchorPoint: "Anchor-2" 118 0 basechar 0
AnchorPoint: "Anchor-0" 118 484 basechar 0
LayerCount: 2
Fore
SplineSet
118 -5 m 0,0,1
 97 -5 97 -5 85 8 c 128,-1,2
 73 21 73 21 73 44 c 2,3,-1
 73 443 l 2,4,5
 73 467 73 467 85 479.5 c 128,-1,6
 97 492 97 492 118 492 c 0,7,8
 140 492 140 492 152 479.5 c 128,-1,9
 164 467 164 467 164 443 c 2,10,-1
 164 44 l 2,11,12
 164 21 164 21 152.5 8 c 128,-1,13
 141 -5 141 -5 118 -5 c 0,0,1
EndSplineSet
EndChar

StartChar: iogonek
Encoding: 303 303 343
Width: 237
GlyphClass: 1
Flags: W
LayerCount: 2
Fore
SplineSet
129 -193 m 0,0,1
 80 -193 80 -193 50.5 -166 c 128,-1,2
 21 -139 21 -139 21 -94 c 0,3,4
 21 -60 21 -60 40 -29 c 128,-1,5
 59 2 59 2 92 23 c 1,6,-1
 87 6 l 1,7,8
 81 12 81 12 77 22 c 128,-1,9
 73 32 73 32 73 44 c 2,10,-1
 73 443 l 2,11,12
 73 467 73 467 85 479.5 c 128,-1,13
 97 492 97 492 118 492 c 0,14,15
 140 492 140 492 152 479.5 c 128,-1,16
 164 467 164 467 164 443 c 2,17,-1
 164 44 l 2,18,19
 164 27 164 27 157.5 15 c 128,-1,20
 151 3 151 3 140 -4 c 0,21,22
 115 -20 115 -20 99.5 -39.5 c 128,-1,23
 84 -59 84 -59 84 -84 c 0,24,25
 84 -111 84 -111 100.5 -125 c 128,-1,26
 117 -139 117 -139 142 -139 c 0,27,28
 150 -139 150 -139 158.5 -137.5 c 128,-1,29
 167 -136 167 -136 175 -133 c 0,30,31
 190 -129 190 -129 198 -134.5 c 128,-1,32
 206 -140 206 -140 208 -150 c 128,-1,33
 210 -160 210 -160 205.5 -169.5 c 128,-1,34
 201 -179 201 -179 189 -184 c 0,35,36
 174 -190 174 -190 158.5 -191.5 c 128,-1,37
 143 -193 143 -193 129 -193 c 0,0,1
118 600 m 0,38,39
 91 600 91 600 75.5 614.5 c 128,-1,40
 60 629 60 629 60 653 c 0,41,42
 60 679 60 679 75.5 692.5 c 128,-1,43
 91 706 91 706 118 706 c 0,44,45
 147 706 147 706 161.5 692.5 c 128,-1,46
 176 679 176 679 176 653 c 0,47,48
 176 629 176 629 161.5 614.5 c 128,-1,49
 147 600 147 600 118 600 c 0,38,39
EndSplineSet
EndChar

StartChar: j
Encoding: 106 106 345
Width: 241
GlyphClass: 1
Flags: W
LayerCount: 2
Fore
SplineSet
-12 -190 m 0,0,1
 -28 -191 -28 -191 -39 -185 c 128,-1,2
 -50 -179 -50 -179 -54 -168.5 c 128,-1,3
 -58 -158 -58 -158 -56 -147.5 c 128,-1,4
 -54 -137 -54 -137 -46.5 -129.5 c 128,-1,5
 -39 -122 -39 -122 -26 -121 c 0,6,7
 27 -118 27 -118 52 -92.5 c 128,-1,8
 77 -67 77 -67 77 -13 c 2,9,-1
 77 448 l 2,10,11
 77 471 77 471 89 482.5 c 128,-1,12
 101 494 101 494 123 494 c 0,13,14
 144 494 144 494 156 482.5 c 128,-1,15
 168 471 168 471 168 448 c 2,16,-1
 168 -6 l 2,17,18
 168 -68 168 -68 147.5 -107.5 c 128,-1,19
 127 -147 127 -147 87 -167 c 128,-1,20
 47 -187 47 -187 -12 -190 c 0,0,1
122 600 m 0,21,22
 95 600 95 600 79.5 614.5 c 128,-1,23
 64 629 64 629 64 653 c 0,24,25
 64 679 64 679 79.5 692.5 c 128,-1,26
 95 706 95 706 122 706 c 0,27,28
 150 706 150 706 165 692.5 c 128,-1,29
 180 679 180 679 180 653 c 0,30,31
 180 629 180 629 165 614.5 c 128,-1,32
 150 600 150 600 122 600 c 0,21,22
EndSplineSet
Substitution2: "Single Substitution lookup 4 subtable" uni0237
Substitution2: "Single Substitution lookup 3 subtable" uni0237
EndChar

StartChar: uni0237
Encoding: 567 567 346
Width: 241
GlyphClass: 2
Flags: W
AnchorPoint: "Anchor-2" 122 0 basechar 0
AnchorPoint: "Anchor-0" 122 484 basechar 0
LayerCount: 2
Fore
SplineSet
-12 -190 m 0,0,1
 -28 -191 -28 -191 -39 -185 c 128,-1,2
 -50 -179 -50 -179 -54 -168.5 c 128,-1,3
 -58 -158 -58 -158 -56 -147.5 c 128,-1,4
 -54 -137 -54 -137 -46.5 -129.5 c 128,-1,5
 -39 -122 -39 -122 -26 -121 c 0,6,7
 27 -118 27 -118 52 -92.5 c 128,-1,8
 77 -67 77 -67 77 -13 c 2,9,-1
 77 448 l 2,10,11
 77 471 77 471 89 482.5 c 128,-1,12
 101 494 101 494 123 494 c 0,13,14
 144 494 144 494 156 482.5 c 128,-1,15
 168 471 168 471 168 448 c 2,16,-1
 168 -6 l 2,17,18
 168 -68 168 -68 147.5 -107.5 c 128,-1,19
 127 -147 127 -147 87 -167 c 128,-1,20
 47 -187 47 -187 -12 -190 c 0,0,1
EndSplineSet
EndChar

StartChar: k
Encoding: 107 107 348
Width: 508
GlyphClass: 2
Flags: W
AnchorPoint: "Anchor-2" 254 0 basechar 0
AnchorPoint: "Anchor-0" 287 705 basechar 0
LayerCount: 2
Fore
SplineSet
118 -7 m 0,0,1
 97 -7 97 -7 85 5 c 128,-1,2
 73 17 73 17 73 40 c 2,3,-1
 73 666 l 2,4,5
 73 689 73 689 85 700.5 c 128,-1,6
 97 712 97 712 118 712 c 0,7,8
 140 712 140 712 152 700.5 c 128,-1,9
 164 689 164 689 164 666 c 2,10,-1
 164 272 l 1,11,-1
 166 272 l 1,12,-1
 362 463 l 2,13,14
 377 478 377 478 389 486 c 128,-1,15
 401 494 401 494 420 494 c 256,16,17
 439 494 439 494 449 484.5 c 128,-1,18
 459 475 459 475 459 460.5 c 128,-1,19
 459 446 459 446 445 432 c 2,20,-1
 237 230 l 1,21,-1
 237 275 l 1,22,-1
 464 56 l 2,23,24
 478 42 478 42 477.5 27 c 128,-1,25
 477 12 477 12 466.5 2.5 c 128,-1,26
 456 -7 456 -7 439 -7 c 0,27,28
 419 -7 419 -7 406.5 1 c 128,-1,29
 394 9 394 9 378 26 c 2,30,-1
 166 226 l 1,31,-1
 164 226 l 1,32,-1
 164 40 l 2,33,34
 164 -7 164 -7 118 -7 c 0,0,1
EndSplineSet
EndChar

StartChar: kgreenlandic
Encoding: 312 312 351
Width: 508
GlyphClass: 2
Flags: W
AnchorPoint: "Anchor-2" 254 0 basechar 0
AnchorPoint: "Anchor-0" 254 484 basechar 0
LayerCount: 2
Fore
SplineSet
118 -7 m 0,0,1
 97 -7 97 -7 85 5 c 128,-1,2
 73 17 73 17 73 40 c 2,3,-1
 73 448 l 2,4,5
 73 471 73 471 85 482.5 c 128,-1,6
 97 494 97 494 118 494 c 0,7,8
 140 494 140 494 152 482.5 c 128,-1,9
 164 471 164 471 164 448 c 2,10,-1
 164 272 l 1,11,-1
 166 272 l 1,12,-1
 362 463 l 2,13,14
 377 478 377 478 389 486 c 128,-1,15
 401 494 401 494 419 494 c 0,16,17
 439 494 439 494 449 484.5 c 128,-1,18
 459 475 459 475 459 460.5 c 128,-1,19
 459 446 459 446 445 432 c 2,20,-1
 237 230 l 1,21,-1
 237 275 l 1,22,-1
 464 56 l 2,23,24
 478 42 478 42 477.5 27 c 128,-1,25
 477 12 477 12 466.5 2.5 c 128,-1,26
 456 -7 456 -7 439 -7 c 0,27,28
 419 -7 419 -7 406.5 1 c 128,-1,29
 394 9 394 9 378 26 c 2,30,-1
 166 226 l 1,31,-1
 164 226 l 1,32,-1
 164 40 l 2,33,34
 164 17 164 17 152.5 5 c 128,-1,35
 141 -7 141 -7 118 -7 c 0,0,1
EndSplineSet
EndChar

StartChar: l
Encoding: 108 108 352
Width: 301
GlyphClass: 2
Flags: W
AnchorPoint: "Anchor-5" 128 357 basechar 0
AnchorPoint: "Anchor-2" 187 0 basechar 0
AnchorPoint: "Anchor-1" 208 705 basechar 0
AnchorPoint: "Anchor-0" 118 705 basechar 0
LayerCount: 2
Fore
SplineSet
226 -9 m 0,0,1
 151 -9 151 -9 112 35.5 c 128,-1,2
 73 80 73 80 73 164 c 2,3,-1
 73 666 l 2,4,5
 73 689 73 689 85 700.5 c 128,-1,6
 97 712 97 712 118 712 c 0,7,8
 140 712 140 712 152 700.5 c 128,-1,9
 164 689 164 689 164 666 c 2,10,-1
 164 171 l 2,11,12
 164 119 164 119 185.5 93.5 c 128,-1,13
 207 68 207 68 247 68 c 0,14,15
 256 68 256 68 263 68.5 c 128,-1,16
 270 69 270 69 277 70 c 0,17,18
 288 71 288 71 293 64 c 128,-1,19
 298 57 298 57 298 36 c 0,20,21
 298 17 298 17 289.5 6.5 c 128,-1,22
 281 -4 281 -4 262 -7 c 0,23,24
 253 -8 253 -8 244 -8.5 c 128,-1,25
 235 -9 235 -9 226 -9 c 0,0,1
EndSplineSet
Substitution2: "'ss02' Style Set 2 lookup 36 subtable" l.ss02
Substitution2: "'aalt' Access All Alternates lookup 0 subtable" l.ss02
EndChar

StartChar: m
Encoding: 109 109 361
Width: 861
GlyphClass: 2
Flags: W
AnchorPoint: "Anchor-2" 432 0 basechar 0
AnchorPoint: "Anchor-0" 432 484 basechar 0
LayerCount: 2
Fore
SplineSet
120 -7 m 0,0,1
 99 -7 99 -7 87 5 c 128,-1,2
 75 17 75 17 75 40 c 2,3,-1
 75 448 l 2,4,5
 75 471 75 471 87 482.5 c 128,-1,6
 99 494 99 494 120 494 c 256,7,8
 141 494 141 494 152.5 482.5 c 128,-1,9
 164 471 164 471 164 448 c 2,10,-1
 164 363 l 1,11,-1
 153 381 l 1,12,13
 172 436 172 436 214.5 466 c 128,-1,14
 257 496 257 496 316 496 c 0,15,16
 378 496 378 496 416 466.5 c 128,-1,17
 454 437 454 437 467 377 c 1,18,-1
 453 377 l 1,19,20
 471 432 471 432 517.5 464 c 128,-1,21
 564 496 564 496 626 496 c 0,22,23
 681 496 681 496 716.5 474.5 c 128,-1,24
 752 453 752 453 770 410.5 c 128,-1,25
 788 368 788 368 788 302 c 2,26,-1
 788 40 l 2,27,28
 788 17 788 17 776 5 c 128,-1,29
 764 -7 764 -7 743 -7 c 0,30,31
 721 -7 721 -7 709 5 c 128,-1,32
 697 17 697 17 697 40 c 2,33,-1
 697 298 l 2,34,35
 697 362 697 362 675 392 c 128,-1,36
 653 422 653 422 601 422 c 0,37,38
 544 422 544 422 510.5 382.5 c 128,-1,39
 477 343 477 343 477 274 c 2,40,-1
 477 40 l 2,41,42
 477 17 477 17 465.5 5 c 128,-1,43
 454 -7 454 -7 432 -7 c 256,44,45
 410 -7 410 -7 398 5 c 128,-1,46
 386 17 386 17 386 40 c 2,47,-1
 386 298 l 2,48,49
 386 362 386 362 364 392 c 128,-1,50
 342 422 342 422 290 422 c 0,51,52
 233 422 233 422 199.5 382.5 c 128,-1,53
 166 343 166 343 166 274 c 2,54,-1
 166 40 l 2,55,56
 166 -7 166 -7 120 -7 c 0,0,1
EndSplineSet
EndChar

StartChar: n
Encoding: 110 110 363
Width: 572
GlyphClass: 2
Flags: W
AnchorPoint: "Anchor-2" 287 0 basechar 0
AnchorPoint: "Anchor-0" 287 484 basechar 0
LayerCount: 2
Fore
SplineSet
118 -7 m 0,0,1
 97 -7 97 -7 85 5 c 128,-1,2
 73 17 73 17 73 40 c 2,3,-1
 73 448 l 2,4,5
 73 471 73 471 85 482.5 c 128,-1,6
 97 494 97 494 118 494 c 256,7,8
 139 494 139 494 150.5 482.5 c 128,-1,9
 162 471 162 471 162 448 c 2,10,-1
 162 366 l 1,11,-1
 151 381 l 1,12,13
 172 438 172 438 219.5 467 c 128,-1,14
 267 496 267 496 328 496 c 0,15,16
 387 496 387 496 425 475 c 128,-1,17
 463 454 463 454 482 411 c 128,-1,18
 501 368 501 368 501 302 c 2,19,-1
 501 40 l 2,20,21
 501 17 501 17 489.5 5 c 128,-1,22
 478 -7 478 -7 456 -7 c 256,23,24
 434 -7 434 -7 422 5 c 128,-1,25
 410 17 410 17 410 40 c 2,26,-1
 410 297 l 2,27,28
 410 362 410 362 385 392 c 128,-1,29
 360 422 360 422 305 422 c 0,30,31
 241 422 241 422 202.5 382.5 c 128,-1,32
 164 343 164 343 164 276 c 2,33,-1
 164 40 l 2,34,35
 164 -7 164 -7 118 -7 c 0,0,1
EndSplineSet
EndChar

StartChar: eng
Encoding: 331 331 373
Width: 572
GlyphClass: 1
Flags: W
LayerCount: 2
Fore
SplineSet
317 -191 m 0,0,1
 300 -193 300 -193 290 -186.5 c 128,-1,2
 280 -180 280 -180 276 -169.5 c 128,-1,3
 272 -159 272 -159 274 -148.5 c 128,-1,4
 276 -138 276 -138 283.5 -130.5 c 128,-1,5
 291 -123 291 -123 305 -122 c 0,6,7
 359 -117 359 -117 384.5 -93 c 128,-1,8
 410 -69 410 -69 410 -13 c 2,9,-1
 410 297 l 2,10,11
 410 362 410 362 385 392 c 128,-1,12
 360 422 360 422 305 422 c 0,13,14
 241 422 241 422 202.5 382.5 c 128,-1,15
 164 343 164 343 164 276 c 2,16,-1
 164 40 l 2,17,18
 164 -7 164 -7 118 -7 c 0,19,20
 97 -7 97 -7 85 5 c 128,-1,21
 73 17 73 17 73 40 c 2,22,-1
 73 448 l 2,23,24
 73 471 73 471 85 482.5 c 128,-1,25
 97 494 97 494 118 494 c 256,26,27
 139 494 139 494 150.5 482.5 c 128,-1,28
 162 471 162 471 162 448 c 2,29,-1
 162 366 l 1,30,-1
 151 381 l 1,31,32
 172 438 172 438 219.5 467 c 128,-1,33
 267 496 267 496 328 496 c 0,34,35
 387 496 387 496 425 475 c 128,-1,36
 463 454 463 454 482 411 c 128,-1,37
 501 368 501 368 501 302 c 2,38,-1
 501 -6 l 2,39,40
 501 -68 501 -68 480.5 -107.5 c 128,-1,41
 460 -147 460 -147 419.5 -167.5 c 128,-1,42
 379 -188 379 -188 317 -191 c 0,0,1
EndSplineSet
EndChar

StartChar: o
Encoding: 111 111 374
Width: 560
GlyphClass: 2
Flags: W
AnchorPoint: "Anchor-5" 280 244 basechar 0
AnchorPoint: "Anchor-3" 339 0 basechar 0
AnchorPoint: "Anchor-2" 280 0 basechar 0
AnchorPoint: "Anchor-1" 334 484 basechar 0
AnchorPoint: "Anchor-0" 280 484 basechar 0
LayerCount: 2
Fore
SplineSet
280 -9 m 0,0,1
 208 -9 208 -9 155 22 c 128,-1,2
 102 53 102 53 73 110 c 128,-1,3
 44 167 44 167 44 244 c 0,4,5
 44 302 44 302 60.5 348.5 c 128,-1,6
 77 395 77 395 108 428 c 128,-1,7
 139 461 139 461 182.5 478.5 c 128,-1,8
 226 496 226 496 280 496 c 0,9,10
 352 496 352 496 405 465 c 128,-1,11
 458 434 458 434 487 377.5 c 128,-1,12
 516 321 516 321 516 244 c 0,13,14
 516 186 516 186 499.5 139 c 128,-1,15
 483 92 483 92 452 59 c 128,-1,16
 421 26 421 26 377.5 8.5 c 128,-1,17
 334 -9 334 -9 280 -9 c 0,0,1
280 63 m 0,18,19
 324 63 324 63 356.5 84 c 128,-1,20
 389 105 389 105 406.5 145 c 128,-1,21
 424 185 424 185 424 244 c 0,22,23
 424 332 424 332 385 378 c 128,-1,24
 346 424 346 424 280 424 c 0,25,26
 237 424 237 424 204.5 403.5 c 128,-1,27
 172 383 172 383 154 343 c 128,-1,28
 136 303 136 303 136 244 c 0,29,30
 136 156 136 156 175.5 109.5 c 128,-1,31
 215 63 215 63 280 63 c 0,18,19
EndSplineSet
Substitution2: "Single Substitution lookup 29 subtable" ordmasculine
Substitution2: "'aalt' Access All Alternates lookup 0 subtable" ordmasculine
EndChar

StartChar: oslash
Encoding: 248 248 402
Width: 560
GlyphClass: 2
Flags: W
AnchorPoint: "Anchor-5" 281 244 basechar 0
AnchorPoint: "Anchor-0" 280 484 basechar 0
LayerCount: 2
Fore
SplineSet
280 -9 m 0,0,1
 208 -9 208 -9 155 22 c 128,-1,2
 102 53 102 53 73 110 c 128,-1,3
 44 167 44 167 44 244 c 0,4,5
 44 302 44 302 60.5 348.5 c 128,-1,6
 77 395 77 395 108 428 c 128,-1,7
 139 461 139 461 182.5 478.5 c 128,-1,8
 226 496 226 496 280 496 c 0,9,10
 352 496 352 496 405 465 c 128,-1,11
 458 434 458 434 487 377.5 c 128,-1,12
 516 321 516 321 516 244 c 0,13,14
 516 186 516 186 499.5 139 c 128,-1,15
 483 92 483 92 452 59 c 128,-1,16
 421 26 421 26 377.5 8.5 c 128,-1,17
 334 -9 334 -9 280 -9 c 0,0,1
280 63 m 0,18,19
 324 63 324 63 356.5 84 c 128,-1,20
 389 105 389 105 406.5 145 c 128,-1,21
 424 185 424 185 424 244 c 0,22,23
 424 332 424 332 385 378 c 128,-1,24
 346 424 346 424 280 424 c 0,25,26
 237 424 237 424 204.5 403.5 c 128,-1,27
 172 383 172 383 154 343 c 128,-1,28
 136 303 136 303 136 244 c 0,29,30
 136 156 136 156 175.5 109.5 c 128,-1,31
 215 63 215 63 280 63 c 0,18,19
156 -31 m 2,32,33
 148 -44 148 -44 136 -46 c 128,-1,34
 124 -48 124 -48 114 -42 c 128,-1,35
 104 -36 104 -36 100 -24 c 128,-1,36
 96 -12 96 -12 105 2 c 2,37,-1
 405 518 l 2,38,39
 413 532 413 532 425 533.5 c 128,-1,40
 437 535 437 535 447 529 c 128,-1,41
 457 523 457 523 461 511 c 128,-1,42
 465 499 465 499 457 485 c 2,43,-1
 156 -31 l 2,32,33
EndSplineSet
EndChar

StartChar: oe
Encoding: 339 339 408
Width: 911
GlyphClass: 2
Flags: W
AnchorPoint: "Anchor-2" 470 0 basechar 0
AnchorPoint: "Anchor-0" 469 484 basechar 0
LayerCount: 2
Fore
SplineSet
278 -9 m 0,0,1
 207 -9 207 -9 154.5 22 c 128,-1,2
 102 53 102 53 73 110 c 128,-1,3
 44 167 44 167 44 244 c 0,4,5
 44 302 44 302 60.5 348.5 c 128,-1,6
 77 395 77 395 108 428 c 128,-1,7
 139 461 139 461 182 478.5 c 128,-1,8
 225 496 225 496 278 496 c 0,9,10
 352 496 352 496 405 459 c 128,-1,11
 458 422 458 422 482 355 c 1,12,-1
 458 355 l 1,13,14
 480 419 480 419 534 457.5 c 128,-1,15
 588 496 588 496 661 496 c 0,16,17
 726 496 726 496 773 467 c 128,-1,18
 820 438 820 438 845.5 384.5 c 128,-1,19
 871 331 871 331 871 256 c 0,20,21
 871 240 871 240 861.5 231.5 c 128,-1,22
 852 223 852 223 834 223 c 2,23,-1
 497 223 l 1,24,-1
 497 281 l 1,25,-1
 810 281 l 1,26,-1
 794 268 l 1,27,28
 794 320 794 320 778.5 356 c 128,-1,29
 763 392 763 392 733.5 411 c 128,-1,30
 704 430 704 430 660 430 c 0,31,32
 613 430 613 430 580.5 407.5 c 128,-1,33
 548 385 548 385 531.5 344.5 c 128,-1,34
 515 304 515 304 515 251 c 2,35,-1
 515 245 l 2,36,37
 515 156 515 156 556 109.5 c 128,-1,38
 597 63 597 63 676 63 c 0,39,40
 707 63 707 63 740 71 c 128,-1,41
 773 79 773 79 805 100 c 0,42,43
 820 109 820 109 832.5 108.5 c 128,-1,44
 845 108 845 108 853 100.5 c 128,-1,45
 861 93 861 93 863 82.5 c 128,-1,46
 865 72 865 72 859.5 60 c 128,-1,47
 854 48 854 48 841 39 c 0,48,49
 807 16 807 16 762.5 3.5 c 128,-1,50
 718 -9 718 -9 677 -9 c 0,51,52
 594 -9 594 -9 536 27.5 c 128,-1,53
 478 64 478 64 455 134 c 1,54,-1
 481 134 l 1,55,56
 457 67 457 67 404.5 29 c 128,-1,57
 352 -9 352 -9 278 -9 c 0,0,1
280 63 m 0,58,59
 324 63 324 63 356.5 84 c 128,-1,60
 389 105 389 105 406.5 145 c 128,-1,61
 424 185 424 185 424 244 c 0,62,63
 424 332 424 332 385 378 c 128,-1,64
 346 424 346 424 280 424 c 0,65,66
 237 424 237 424 204.5 403.5 c 128,-1,67
 172 383 172 383 154 343 c 128,-1,68
 136 303 136 303 136 244 c 0,69,70
 136 156 136 156 175.5 109.5 c 128,-1,71
 215 63 215 63 280 63 c 0,58,59
EndSplineSet
EndChar

StartChar: p
Encoding: 112 112 409
Width: 587
GlyphClass: 2
Flags: W
AnchorPoint: "Anchor-2" 292 0 basechar 0
AnchorPoint: "Anchor-0" 292 484 basechar 0
LayerCount: 2
Fore
SplineSet
118 -187 m 0,0,1
 97 -187 97 -187 85 -175 c 128,-1,2
 73 -163 73 -163 73 -141 c 2,3,-1
 73 448 l 2,4,5
 73 471 73 471 85 482.5 c 128,-1,6
 97 494 97 494 118 494 c 0,7,8
 140 494 140 494 151.5 482.5 c 128,-1,9
 163 471 163 471 163 448 c 2,10,-1
 163 357 l 1,11,-1
 152 375 l 1,12,13
 168 430 168 430 215 463 c 128,-1,14
 262 496 262 496 328 496 c 0,15,16
 393 496 393 496 441 465.5 c 128,-1,17
 489 435 489 435 516 378.5 c 128,-1,18
 543 322 543 322 543 244 c 0,19,20
 543 167 543 167 516.5 109.5 c 128,-1,21
 490 52 490 52 441.5 21.5 c 128,-1,22
 393 -9 393 -9 328 -9 c 256,23,24
 263 -9 263 -9 216 24 c 128,-1,25
 169 57 169 57 153 111 c 1,26,-1
 164 111 l 1,27,-1
 164 -141 l 2,28,29
 164 -163 164 -163 152 -175 c 128,-1,30
 140 -187 140 -187 118 -187 c 0,0,1
307 63 m 0,31,32
 350 63 350 63 382.5 84 c 128,-1,33
 415 105 415 105 433 145 c 128,-1,34
 451 185 451 185 451 244 c 0,35,36
 451 332 451 332 412 378 c 128,-1,37
 373 424 373 424 307 424 c 0,38,39
 263 424 263 424 230.5 403.5 c 128,-1,40
 198 383 198 383 180.5 343 c 128,-1,41
 163 303 163 303 163 244 c 0,42,43
 163 156 163 156 202 109.5 c 128,-1,44
 241 63 241 63 307 63 c 0,31,32
EndSplineSet
EndChar

StartChar: thorn
Encoding: 254 254 410
Width: 587
GlyphClass: 2
Flags: W
AnchorPoint: "Anchor-2" 293 0 basechar 0
AnchorPoint: "Anchor-0" 293 484 basechar 0
LayerCount: 2
Fore
SplineSet
118 -187 m 0,0,1
 97 -187 97 -187 85 -175 c 128,-1,2
 73 -163 73 -163 73 -141 c 2,3,-1
 73 666 l 2,4,5
 73 689 73 689 85 700.5 c 128,-1,6
 97 712 97 712 118 712 c 0,7,8
 140 712 140 712 152 700.5 c 128,-1,9
 164 689 164 689 164 666 c 2,10,-1
 164 375 l 1,11,-1
 152 375 l 1,12,13
 168 430 168 430 215 463 c 128,-1,14
 262 496 262 496 328 496 c 0,15,16
 393 496 393 496 441 465.5 c 128,-1,17
 489 435 489 435 516 378.5 c 128,-1,18
 543 322 543 322 543 244 c 0,19,20
 543 167 543 167 516.5 109.5 c 128,-1,21
 490 52 490 52 441.5 21.5 c 128,-1,22
 393 -9 393 -9 328 -9 c 256,23,24
 263 -9 263 -9 216 24 c 128,-1,25
 169 57 169 57 153 111 c 1,26,-1
 164 111 l 1,27,-1
 164 -141 l 2,28,29
 164 -163 164 -163 152 -175 c 128,-1,30
 140 -187 140 -187 118 -187 c 0,0,1
307 63 m 0,31,32
 350 63 350 63 382.5 84 c 128,-1,33
 415 105 415 105 433 145 c 128,-1,34
 451 185 451 185 451 244 c 0,35,36
 451 332 451 332 412 378 c 128,-1,37
 373 424 373 424 307 424 c 0,38,39
 263 424 263 424 230.5 403.5 c 128,-1,40
 198 383 198 383 180.5 343 c 128,-1,41
 163 303 163 303 163 244 c 0,42,43
 163 156 163 156 202 109.5 c 128,-1,44
 241 63 241 63 307 63 c 0,31,32
EndSplineSet
EndChar

StartChar: q
Encoding: 113 113 411
Width: 587
GlyphClass: 2
Flags: W
AnchorPoint: "Anchor-2" 293 0 basechar 0
AnchorPoint: "Anchor-0" 293 484 basechar 0
LayerCount: 2
Fore
SplineSet
468 -187 m 256,0,1
 446 -187 446 -187 434.5 -175 c 128,-1,2
 423 -163 423 -163 423 -141 c 2,3,-1
 423 111 l 1,4,-1
 434 111 l 1,5,6
 418 57 418 57 371 24 c 128,-1,7
 324 -9 324 -9 259 -9 c 256,8,9
 194 -9 194 -9 145.5 21.5 c 128,-1,10
 97 52 97 52 70.5 109.5 c 128,-1,11
 44 167 44 167 44 244 c 0,12,13
 44 322 44 322 71 378.5 c 128,-1,14
 98 435 98 435 146.5 465.5 c 128,-1,15
 195 496 195 496 259 496 c 0,16,17
 324 496 324 496 371.5 463 c 128,-1,18
 419 430 419 430 434 375 c 1,19,-1
 423 357 l 1,20,-1
 423 448 l 2,21,22
 423 471 423 471 435 482.5 c 128,-1,23
 447 494 447 494 468 494 c 0,24,25
 490 494 490 494 502 482.5 c 128,-1,26
 514 471 514 471 514 448 c 2,27,-1
 514 -141 l 2,28,29
 514 -163 514 -163 502 -175 c 128,-1,30
 490 -187 490 -187 468 -187 c 256,0,1
280 63 m 0,31,32
 324 63 324 63 356.5 84 c 128,-1,33
 389 105 389 105 406.5 145 c 128,-1,34
 424 185 424 185 424 244 c 0,35,36
 424 332 424 332 385 378 c 128,-1,37
 346 424 346 424 280 424 c 0,38,39
 237 424 237 424 204.5 403.5 c 128,-1,40
 172 383 172 383 154 343 c 128,-1,41
 136 303 136 303 136 244 c 0,42,43
 136 156 136 156 175.5 109.5 c 128,-1,44
 215 63 215 63 280 63 c 0,31,32
EndSplineSet
EndChar

StartChar: r
Encoding: 114 114 412
Width: 365
GlyphClass: 2
Flags: W
AnchorPoint: "Anchor-2" 119 0 basechar 0
AnchorPoint: "Anchor-0" 218 484 basechar 0
LayerCount: 2
Fore
SplineSet
120 -7 m 0,0,1
 97 -7 97 -7 85 5 c 128,-1,2
 73 17 73 17 73 40 c 2,3,-1
 73 448 l 2,4,5
 73 471 73 471 85 482.5 c 128,-1,6
 97 494 97 494 118 494 c 256,7,8
 139 494 139 494 150.5 482.5 c 128,-1,9
 162 471 162 471 162 448 c 2,10,-1
 162 371 l 1,11,-1
 152 371 l 1,12,13
 168 431 168 431 212 462 c 128,-1,14
 256 493 256 493 323 497 c 0,15,16
 339 498 339 498 349 489.5 c 128,-1,17
 359 481 359 481 360 461 c 0,18,19
 361 442 361 442 351 430.5 c 128,-1,20
 341 419 341 419 320 417 c 2,21,-1
 302 416 l 2,22,23
 236 409 236 409 200.5 373 c 128,-1,24
 165 337 165 337 165 274 c 2,25,-1
 165 40 l 2,26,27
 165 17 165 17 153.5 5 c 128,-1,28
 142 -7 142 -7 120 -7 c 0,0,1
EndSplineSet
EndChar

StartChar: s
Encoding: 115 115 420
Width: 483
GlyphClass: 2
Flags: W
AnchorPoint: "Anchor-2" 241 0 basechar 0
AnchorPoint: "Anchor-0" 250 484 basechar 0
LayerCount: 2
Fore
SplineSet
241 -9 m 0,0,1
 196 -9 196 -9 150.5 1.5 c 128,-1,2
 105 12 105 12 65 38 c 0,3,4
 54 45 54 45 49.5 55.5 c 128,-1,5
 45 66 45 66 46.5 76.5 c 128,-1,6
 48 87 48 87 55 95 c 128,-1,7
 62 103 62 103 72.5 104.5 c 128,-1,8
 83 106 83 106 95 99 c 0,9,10
 134 77 134 77 170.5 68 c 128,-1,11
 207 59 207 59 243 59 c 0,12,13
 298 59 298 59 326 79 c 128,-1,14
 354 99 354 99 354 132 c 0,15,16
 354 160 354 160 335.5 175.5 c 128,-1,17
 317 191 317 191 278 199 c 2,18,-1
 185 218 l 2,19,20
 123 232 123 232 91.5 264.5 c 128,-1,21
 60 297 60 297 60 348 c 0,22,23
 60 393 60 393 84.5 426.5 c 128,-1,24
 109 460 109 460 153 478 c 128,-1,25
 197 496 197 496 254 496 c 0,26,27
 298 496 298 496 337.5 484.5 c 128,-1,28
 377 473 377 473 409 450 c 0,29,30
 421 443 421 443 424.5 432.5 c 128,-1,31
 428 422 428 422 425.5 411.5 c 128,-1,32
 423 401 423 401 416 394 c 128,-1,33
 409 387 409 387 398 385.5 c 128,-1,34
 387 384 387 384 374 391 c 0,35,36
 345 411 345 411 314.5 419.5 c 128,-1,37
 284 428 284 428 254 428 c 0,38,39
 200 428 200 428 172.5 407 c 128,-1,40
 145 386 145 386 145 352 c 0,41,42
 145 326 145 326 161.5 309 c 128,-1,43
 178 292 178 292 214 284 c 2,44,-1
 307 265 l 2,45,46
 372 251 372 251 405 220.5 c 128,-1,47
 438 190 438 190 438 138 c 0,48,49
 438 70 438 70 384.5 30.5 c 128,-1,50
 331 -9 331 -9 241 -9 c 0,0,1
EndSplineSet
EndChar

StartChar: germandbls
Encoding: 223 223 431
Width: 624
GlyphClass: 1
Flags: W
LayerCount: 2
Fore
SplineSet
411 -9 m 0,0,1
 368 -9 368 -9 323.5 3 c 128,-1,2
 279 15 279 15 244 39 c 0,3,4
 232 46 232 46 228 57 c 128,-1,5
 224 68 224 68 226 79 c 128,-1,6
 228 90 228 90 235.5 98 c 128,-1,7
 243 106 243 106 254 107.5 c 128,-1,8
 265 109 265 109 278 101 c 0,9,10
 311 80 311 80 346.5 71 c 128,-1,11
 382 62 382 62 412 62 c 0,12,13
 458 62 458 62 484 81.5 c 128,-1,14
 510 101 510 101 510 135 c 0,15,16
 510 163 510 163 487.5 182 c 128,-1,17
 465 201 465 201 407 218 c 0,18,19
 327 243 327 243 295 275 c 128,-1,20
 263 307 263 307 263 355 c 0,21,22
 263 376 263 376 269.5 395.5 c 128,-1,23
 276 415 276 415 293 436.5 c 128,-1,24
 310 458 310 458 339 484 c 0,25,26
 369 510 369 510 381 531 c 128,-1,27
 393 552 393 552 393 576 c 0,28,29
 393 608 393 608 370.5 626 c 128,-1,30
 348 644 348 644 306 644 c 0,31,32
 237 644 237 644 200.5 603 c 128,-1,33
 164 562 164 562 164 487 c 2,34,-1
 164 40 l 2,35,36
 164 17 164 17 152 5 c 128,-1,37
 140 -7 140 -7 118 -7 c 0,38,39
 97 -7 97 -7 85 5 c 128,-1,40
 73 17 73 17 73 40 c 2,41,-1
 73 475 l 2,42,43
 73 589 73 589 134 651.5 c 128,-1,44
 195 714 195 714 306 714 c 0,45,46
 361 714 361 714 400 698 c 128,-1,47
 439 682 439 682 460 653 c 128,-1,48
 481 624 481 624 481 583 c 0,49,50
 481 546 481 546 464 516 c 128,-1,51
 447 486 447 486 407 450 c 0,52,53
 384 430 384 430 371 415.5 c 128,-1,54
 358 401 358 401 353.5 389.5 c 128,-1,55
 349 378 349 378 349 364 c 0,56,57
 349 339 349 339 371.5 321 c 128,-1,58
 394 303 394 303 453 285 c 0,59,60
 530 261 530 261 563 226.5 c 128,-1,61
 596 192 596 192 596 139 c 0,62,63
 596 94 596 94 573 61 c 128,-1,64
 550 28 550 28 508 9.5 c 128,-1,65
 466 -9 466 -9 411 -9 c 0,0,1
EndSplineSet
Substitution2: "Single Substitution lookup 39 subtable" germandbls.calt
Substitution2: "Single Substitution lookup 38 subtable" germandbls.calt
Substitution2: "'aalt' Access All Alternates lookup 0 subtable" germandbls.calt
EndChar

StartChar: t
Encoding: 116 116 432
Width: 358
GlyphClass: 2
Flags: W
AnchorPoint: "Anchor-5" 168 266 basechar 0
AnchorPoint: "Anchor-2" 219 0 basechar 0
AnchorPoint: "Anchor-1" 255 705 basechar 0
AnchorPoint: "Anchor-0" 144 635 basechar 0
LayerCount: 2
Fore
SplineSet
275 -9 m 0,0,1
 216 -9 216 -9 176.5 12 c 128,-1,2
 137 33 137 33 117.5 73 c 128,-1,3
 98 113 98 113 98 171 c 2,4,-1
 98 417 l 1,5,-1
 34 417 l 2,6,7
 16 417 16 417 6 426.5 c 128,-1,8
 -4 436 -4 436 -4 452 c 0,9,10
 -4 469 -4 469 6 478 c 128,-1,11
 16 487 16 487 34 487 c 2,12,-1
 98 487 l 1,13,-1
 98 596 l 2,14,15
 98 619 98 619 110 630.5 c 128,-1,16
 122 642 122 642 144 642 c 256,17,18
 166 642 166 642 177.5 630.5 c 128,-1,19
 189 619 189 619 189 596 c 2,20,-1
 189 487 l 1,21,-1
 310 487 l 2,22,23
 329 487 329 487 339 478 c 128,-1,24
 349 469 349 469 349 452 c 0,25,26
 349 436 349 436 339 426.5 c 128,-1,27
 329 417 329 417 310 417 c 2,28,-1
 189 417 l 1,29,-1
 189 179 l 2,30,31
 189 124 189 124 212 96 c 128,-1,32
 235 68 235 68 288 68 c 0,33,34
 307 68 307 68 320 71.5 c 128,-1,35
 333 75 333 75 343 75 c 0,36,37
 352 76 352 76 358.5 69 c 128,-1,38
 365 62 365 62 365 43 c 0,39,40
 365 29 365 29 360.5 17.5 c 128,-1,41
 356 6 356 6 343 2 c 0,42,43
 331 -2 331 -2 311 -5.5 c 128,-1,44
 291 -9 291 -9 275 -9 c 0,0,1
EndSplineSet
EndChar

StartChar: u
Encoding: 117 117 440
Width: 565
GlyphClass: 2
Flags: W
AnchorPoint: "Anchor-3" 471 0 basechar 0
AnchorPoint: "Anchor-2" 282 0 basechar 0
AnchorPoint: "Anchor-1" 421 484 basechar 0
AnchorPoint: "Anchor-0" 282 485 basechar 0
LayerCount: 2
Fore
SplineSet
247 -9 m 0,0,1
 188 -9 188 -9 148.5 13 c 128,-1,2
 109 35 109 35 90 78 c 128,-1,3
 71 121 71 121 71 186 c 2,4,-1
 71 448 l 2,5,6
 71 471 71 471 82.5 482.5 c 128,-1,7
 94 494 94 494 116 494 c 256,8,9
 138 494 138 494 150 482.5 c 128,-1,10
 162 471 162 471 162 448 c 2,11,-1
 162 186 l 2,12,13
 162 124 162 124 187 94.5 c 128,-1,14
 212 65 212 65 266 65 c 0,15,16
 326 65 326 65 363.5 105 c 128,-1,17
 401 145 401 145 401 211 c 2,18,-1
 401 448 l 2,19,20
 401 471 401 471 412.5 482.5 c 128,-1,21
 424 494 424 494 446 494 c 256,22,23
 468 494 468 494 480 482.5 c 128,-1,24
 492 471 492 471 492 448 c 2,25,-1
 492 40 l 2,26,27
 492 -7 492 -7 448 -7 c 0,28,29
 426 -7 426 -7 414.5 5 c 128,-1,30
 403 17 403 17 403 40 c 2,31,-1
 403 127 l 1,32,-1
 416 110 l 1,33,34
 396 52 396 52 351.5 21.5 c 128,-1,35
 307 -9 307 -9 247 -9 c 0,0,1
EndSplineSet
EndChar

StartChar: uhorn
Encoding: 432 432 450
Width: 565
GlyphClass: 2
Flags: W
AnchorPoint: "Anchor-2" 283 0 basechar 0
AnchorPoint: "Anchor-0" 282 484 basechar 0
LayerCount: 2
Fore
SplineSet
247 -9 m 0,0,1
 188 -9 188 -9 148.5 13 c 128,-1,2
 109 35 109 35 90 78 c 128,-1,3
 71 121 71 121 71 186 c 2,4,-1
 71 448 l 2,5,6
 71 471 71 471 82.5 482.5 c 128,-1,7
 94 494 94 494 116 494 c 256,8,9
 138 494 138 494 150 482.5 c 128,-1,10
 162 471 162 471 162 448 c 2,11,-1
 162 186 l 2,12,13
 162 124 162 124 187 94.5 c 128,-1,14
 212 65 212 65 266 65 c 0,15,16
 326 65 326 65 363.5 105 c 128,-1,17
 401 145 401 145 401 211 c 2,18,-1
 401 442 l 2,19,20
 401 465 401 465 412.5 475.5 c 128,-1,21
 424 486 424 486 446 489 c 0,22,23
 475 492 475 492 493 503 c 128,-1,24
 511 514 511 514 519 534 c 128,-1,25
 527 554 527 554 527 586 c 0,26,27
 527 620 527 620 568 620 c 0,28,29
 587 620 587 620 597.5 612 c 128,-1,30
 608 604 608 604 608 587 c 0,31,32
 608 525 608 525 577.5 486 c 128,-1,33
 547 447 547 447 492 436 c 1,34,-1
 492 40 l 2,35,36
 492 -7 492 -7 448 -7 c 0,37,38
 426 -7 426 -7 414.5 5 c 128,-1,39
 403 17 403 17 403 40 c 2,40,-1
 403 127 l 1,41,-1
 416 110 l 1,42,43
 396 52 396 52 351.5 21.5 c 128,-1,44
 307 -9 307 -9 247 -9 c 0,0,1
EndSplineSet
EndChar

StartChar: uogonek
Encoding: 371 371 460
Width: 565
GlyphClass: 1
Flags: W
LayerCount: 2
Fore
SplineSet
403 127 m 1,0,-1
 416 110 l 1,1,2
 396 52 396 52 351.5 21.5 c 128,-1,3
 307 -9 307 -9 247 -9 c 0,4,5
 188 -9 188 -9 148.5 13 c 128,-1,6
 109 35 109 35 90 78 c 128,-1,7
 71 121 71 121 71 186 c 2,8,-1
 71 448 l 2,9,10
 71 471 71 471 82.5 482.5 c 128,-1,11
 94 494 94 494 116 494 c 256,12,13
 138 494 138 494 150 482.5 c 128,-1,14
 162 471 162 471 162 448 c 2,15,-1
 162 186 l 2,16,17
 162 124 162 124 187 94.5 c 128,-1,18
 212 65 212 65 266 65 c 0,19,20
 326 65 326 65 363.5 105 c 128,-1,21
 401 145 401 145 401 211 c 2,22,-1
 401 448 l 2,23,24
 401 471 401 471 412.5 482.5 c 128,-1,25
 424 494 424 494 446 494 c 256,26,27
 468 494 468 494 480 482.5 c 128,-1,28
 492 471 492 471 492 448 c 2,29,-1
 492 40 l 2,30,31
 492 20 492 20 484.5 9.5 c 128,-1,32
 477 -1 477 -1 463 -7 c 0,33,34
 441 -17 441 -17 423.5 -37 c 128,-1,35
 406 -57 406 -57 406 -84 c 256,36,37
 406 -111 406 -111 423 -125 c 128,-1,38
 440 -139 440 -139 464 -139 c 0,39,40
 473 -139 473 -139 481 -137.5 c 128,-1,41
 489 -136 489 -136 498 -133 c 0,42,43
 512 -129 512 -129 520.5 -134.5 c 128,-1,44
 529 -140 529 -140 531 -150 c 128,-1,45
 533 -160 533 -160 528 -169.5 c 128,-1,46
 523 -179 523 -179 512 -184 c 0,47,48
 496 -190 496 -190 481 -191.5 c 128,-1,49
 466 -193 466 -193 452 -193 c 0,50,51
 403 -193 403 -193 373.5 -166 c 128,-1,52
 344 -139 344 -139 344 -94 c 0,53,54
 344 -58 344 -58 364.5 -26 c 128,-1,55
 385 6 385 6 421 28 c 1,56,-1
 413 8 l 1,57,58
 408 14 408 14 405.5 22 c 128,-1,59
 403 30 403 30 403 40 c 2,60,-1
 403 127 l 1,0,-1
EndSplineSet
EndChar

StartChar: v
Encoding: 118 118 464
Width: 518
GlyphClass: 2
Flags: W
AnchorPoint: "Anchor-2" 260 0 basechar 0
AnchorPoint: "Anchor-0" 260 484 basechar 0
LayerCount: 2
Fore
SplineSet
258 -7 m 0,0,1
 239 -7 239 -7 225 3 c 128,-1,2
 211 13 211 13 201 35 c 2,3,-1
 31 431 l 2,4,5
 24 448 24 448 26 462 c 128,-1,6
 28 476 28 476 39.5 485 c 128,-1,7
 51 494 51 494 71 494 c 0,8,9
 88 494 88 494 98 486 c 128,-1,10
 108 478 108 478 117 458 c 2,11,-1
 274 71 l 1,12,-1
 246 71 l 1,13,-1
 407 458 l 2,14,15
 415 478 415 478 425.5 486 c 128,-1,16
 436 494 436 494 455 494 c 0,17,18
 472 494 472 494 481.5 485 c 128,-1,19
 491 476 491 476 493 462 c 128,-1,20
 495 448 495 448 487 432 c 2,21,-1
 316 35 l 2,22,23
 307 13 307 13 292.5 3 c 128,-1,24
 278 -7 278 -7 258 -7 c 0,0,1
EndSplineSet
EndChar

StartChar: w
Encoding: 119 119 465
Width: 844
GlyphClass: 2
Flags: W
AnchorPoint: "Anchor-2" 422 0 basechar 0
AnchorPoint: "Anchor-0" 422 484 basechar 0
LayerCount: 2
Fore
SplineSet
246 -7 m 0,0,1
 227 -7 227 -7 213 2.5 c 128,-1,2
 199 12 199 12 191 34 c 2,3,-1
 42 431 l 2,4,5
 35 450 35 450 38 464 c 128,-1,6
 41 478 41 478 52 486 c 128,-1,7
 63 494 63 494 81 494 c 0,8,9
 98 494 98 494 108 486 c 128,-1,10
 118 478 118 478 125 457 c 2,11,-1
 261 73 l 1,12,-1
 237 73 l 1,13,-1
 377 459 l 2,14,15
 384 477 384 477 395.5 485.5 c 128,-1,16
 407 494 407 494 424 494 c 0,17,18
 442 494 442 494 454 485.5 c 128,-1,19
 466 477 466 477 471 459 c 2,20,-1
 609 73 l 1,21,-1
 586 73 l 1,22,-1
 724 459 l 2,23,24
 731 479 731 479 742 486.5 c 128,-1,25
 753 494 753 494 769 494 c 0,26,27
 787 494 787 494 796 485 c 128,-1,28
 805 476 805 476 806.5 461.5 c 128,-1,29
 808 447 808 447 802 431 c 2,30,-1
 653 34 l 2,31,32
 646 13 646 13 631.5 3 c 128,-1,33
 617 -7 617 -7 598 -7 c 256,34,35
 579 -7 579 -7 564.5 3 c 128,-1,36
 550 13 550 13 542 34 c 2,37,-1
 399 426 l 1,38,-1
 445 426 l 1,39,-1
 302 34 l 2,40,41
 294 13 294 13 280 3 c 128,-1,42
 266 -7 266 -7 246 -7 c 0,0,1
EndSplineSet
EndChar

StartChar: x
Encoding: 120 120 470
Width: 530
GlyphClass: 2
Flags: W
AnchorPoint: "Anchor-2" 265 0 basechar 0
AnchorPoint: "Anchor-0" 265 484 basechar 0
LayerCount: 2
Fore
SplineSet
83 -6 m 0,0,1
 68 -6 68 -6 57 3 c 128,-1,2
 46 12 46 12 45.5 27 c 128,-1,3
 45 42 45 42 58 59 c 2,4,-1
 231 274 l 1,5,-1
 231 229 l 1,6,-1
 69 429 l 2,7,8
 55 446 55 446 56 461 c 128,-1,9
 57 476 57 476 67.5 485 c 128,-1,10
 78 494 78 494 94 494 c 0,11,12
 111 494 111 494 122.5 488 c 128,-1,13
 134 482 134 482 144 469 c 2,14,-1
 282 294 l 1,15,-1
 250 294 l 1,16,-1
 388 469 l 2,17,18
 398 482 398 482 409.5 488 c 128,-1,19
 421 494 421 494 437 494 c 256,20,21
 453 494 453 494 463.5 485 c 128,-1,22
 474 476 474 476 474.5 461 c 128,-1,23
 475 446 475 446 462 429 c 2,24,-1
 301 231 l 1,25,-1
 301 271 l 1,26,-1
 473 59 l 2,27,28
 487 43 487 43 486 28 c 128,-1,29
 485 13 485 13 474.5 3.5 c 128,-1,30
 464 -6 464 -6 448 -6 c 0,31,32
 431 -6 431 -6 419.5 0 c 128,-1,33
 408 6 408 6 398 19 c 2,34,-1
 249 206 l 1,35,-1
 280 206 l 1,36,-1
 133 19 l 2,37,38
 123 7 123 7 111.5 0.5 c 128,-1,39
 100 -6 100 -6 83 -6 c 0,0,1
EndSplineSet
EndChar

StartChar: y
Encoding: 121 121 471
Width: 517
GlyphClass: 2
Flags: W
AnchorPoint: "Anchor-2" 394 0 basechar 0
AnchorPoint: "Anchor-0" 259 484 basechar 0
LayerCount: 2
Fore
SplineSet
185 -187 m 0,0,1
 169 -187 169 -187 158.5 -178.5 c 128,-1,2
 148 -170 148 -170 146.5 -155.5 c 128,-1,3
 145 -141 145 -141 152 -125 c 2,4,-1
 220 29 l 1,5,-1
 220 -9 l 1,6,-1
 31 431 l 2,7,8
 24 448 24 448 26 462 c 128,-1,9
 28 476 28 476 39.5 485 c 128,-1,10
 51 494 51 494 71 494 c 0,11,12
 88 494 88 494 98 486 c 128,-1,13
 108 478 108 478 117 458 c 2,14,-1
 274 71 l 1,15,-1
 246 71 l 1,16,-1
 406 458 l 2,17,18
 414 478 414 478 425 486 c 128,-1,19
 436 494 436 494 455 494 c 0,20,21
 472 494 472 494 481.5 485 c 128,-1,22
 491 476 491 476 493 462 c 128,-1,23
 495 448 495 448 487 432 c 2,24,-1
 235 -151 l 2,25,26
 225 -172 225 -172 214.5 -179.5 c 128,-1,27
 204 -187 204 -187 185 -187 c 0,0,1
EndSplineSet
EndChar

StartChar: uni01B4
Encoding: 436 436 478
Width: 556
GlyphClass: 1
Flags: W
LayerCount: 2
Fore
SplineSet
185 -187 m 0,0,1
 169 -187 169 -187 158.5 -178 c 128,-1,2
 148 -169 148 -169 146.5 -154 c 128,-1,3
 145 -139 145 -139 152 -124 c 2,4,-1
 220 29 l 1,5,-1
 220 -9 l 1,6,-1
 30 432 l 2,7,8
 23 449 23 449 25 463 c 128,-1,9
 27 477 27 477 39 485.5 c 128,-1,10
 51 494 51 494 71 494 c 0,11,12
 88 494 88 494 98.5 486 c 128,-1,13
 109 478 109 478 117 458 c 2,14,-1
 274 71 l 1,15,-1
 246 71 l 1,16,-1
 379 391 l 2,17,18
 393 425 393 425 412.5 448.5 c 128,-1,19
 432 472 432 472 460 484 c 128,-1,20
 488 496 488 496 527 496 c 0,21,22
 567 496 567 496 581.5 486.5 c 128,-1,23
 596 477 596 477 596 459 c 256,24,25
 596 441 596 441 589 431 c 128,-1,26
 582 421 582 421 569 421 c 0,27,28
 564 421 564 421 556.5 422 c 128,-1,29
 549 423 549 423 539 423 c 0,30,31
 509 423 509 423 488.5 406 c 128,-1,32
 468 389 468 389 450 346 c 2,33,-1
 235 -151 l 2,34,35
 226 -172 226 -172 215 -179.5 c 128,-1,36
 204 -187 204 -187 185 -187 c 0,0,1
EndSplineSet
EndChar

StartChar: z
Encoding: 122 122 482
Width: 466
GlyphClass: 2
Flags: W
AnchorPoint: "Anchor-2" 240 0 basechar 0
AnchorPoint: "Anchor-0" 240 484 basechar 0
LayerCount: 2
Fore
SplineSet
88 0 m 2,0,1
 73 0 73 0 64 7 c 128,-1,2
 55 14 55 14 51.5 25 c 128,-1,3
 48 36 48 36 51.5 49 c 128,-1,4
 55 62 55 62 66 75 c 2,5,-1
 343 440 l 1,6,-1
 343 417 l 1,7,-1
 82 417 l 2,8,9
 65 417 65 417 55.5 426.5 c 128,-1,10
 46 436 46 436 46 452 c 0,11,12
 46 469 46 469 55.5 478 c 128,-1,13
 65 487 65 487 82 487 c 2,14,-1
 387 487 l 2,15,16
 404 487 404 487 414.5 480 c 128,-1,17
 425 473 425 473 428.5 462 c 128,-1,18
 432 451 432 451 429 438.5 c 128,-1,19
 426 426 426 426 415 414 c 2,20,-1
 134 45 l 1,21,-1
 134 70 l 1,22,-1
 408 70 l 2,23,24
 444 70 444 70 444 35 c 0,25,26
 444 19 444 19 434.5 9.5 c 128,-1,27
 425 0 425 0 408 0 c 2,28,-1
 88 0 l 2,0,1
EndSplineSet
EndChar

StartChar: germandbls.calt
Encoding: 65540 -1 487
Width: 716
GlyphClass: 1
Flags: W
LayerCount: 2
Fore
SplineSet
436 -9 m 0,0,1
 385 -9 385 -9 340 3.5 c 128,-1,2
 295 16 295 16 261 39 c 0,3,4
 249 47 249 47 245 58.5 c 128,-1,5
 241 70 241 70 243.5 81.5 c 128,-1,6
 246 93 246 93 253.5 101.5 c 128,-1,7
 261 110 261 110 272 112 c 128,-1,8
 283 114 283 114 295 106 c 0,9,10
 327 86 327 86 359.5 77 c 128,-1,11
 392 68 392 68 428 68 c 0,12,13
 495 68 495 68 530 101.5 c 128,-1,14
 565 135 565 135 565 194 c 256,15,16
 565 253 565 253 527 284.5 c 128,-1,17
 489 316 489 316 411 316 c 2,18,-1
 315 316 l 2,19,20
 298 316 298 316 287 326 c 128,-1,21
 276 336 276 336 276 354 c 0,22,23
 276 373 276 373 286 382 c 128,-1,24
 296 391 296 391 312 391 c 2,25,-1
 389 391 l 2,26,27
 453 391 453 391 490.5 423 c 128,-1,28
 528 455 528 455 528 514 c 0,29,30
 528 574 528 574 487.5 605 c 128,-1,31
 447 636 447 636 370 636 c 0,32,33
 275 636 275 636 226.5 591.5 c 128,-1,34
 178 547 178 547 178 456 c 2,35,-1
 178 41 l 2,36,37
 178 18 178 18 166 5.5 c 128,-1,38
 154 -7 154 -7 131 -7 c 0,39,40
 109 -7 109 -7 97 5.5 c 128,-1,41
 85 18 85 18 85 41 c 2,42,-1
 85 458 l 2,43,44
 85 542 85 542 119 599 c 128,-1,45
 153 656 153 656 217.5 685 c 128,-1,46
 282 714 282 714 373 714 c 0,47,48
 449 714 449 714 504 691.5 c 128,-1,49
 559 669 559 669 589 627 c 128,-1,50
 619 585 619 585 619 527 c 0,51,52
 619 463 619 463 585 416 c 128,-1,53
 551 369 551 369 491 354 c 1,54,-1
 491 369 l 1,55,56
 542 364 542 364 579 340.5 c 128,-1,57
 616 317 616 317 636.5 278.5 c 128,-1,58
 657 240 657 240 657 189 c 0,59,60
 657 126 657 126 630.5 82 c 128,-1,61
 604 38 604 38 554.5 14.5 c 128,-1,62
 505 -9 505 -9 436 -9 c 0,0,1
EndSplineSet
EndChar

StartChar: a.ss01
Encoding: 65542 -1 489
Width: 587
GlyphClass: 2
Flags: W
AnchorPoint: "Anchor-3" 494 0 basechar 0
AnchorPoint: "Anchor-2" 291 0 basechar 0
AnchorPoint: "Anchor-0" 291 484 basechar 0
LayerCount: 2
Fore
SplineSet
259 -9 m 0,0,1
 195 -9 195 -9 146.5 21.5 c 128,-1,2
 98 52 98 52 71 109.5 c 128,-1,3
 44 167 44 167 44 244 c 0,4,5
 44 322 44 322 70.5 378.5 c 128,-1,6
 97 435 97 435 145.5 465.5 c 128,-1,7
 194 496 194 496 259 496 c 256,8,9
 324 496 324 496 371 463.5 c 128,-1,10
 418 431 418 431 434 377 c 1,11,-1
 423 362 l 1,12,-1
 423 448 l 2,13,14
 423 471 423 471 435 482.5 c 128,-1,15
 447 494 447 494 468 494 c 0,16,17
 490 494 490 494 502 482.5 c 128,-1,18
 514 471 514 471 514 448 c 2,19,-1
 514 40 l 2,20,21
 514 17 514 17 502 5 c 128,-1,22
 490 -7 490 -7 468 -7 c 0,23,24
 447 -7 447 -7 435 5 c 128,-1,25
 423 17 423 17 423 40 c 2,26,-1
 423 125 l 1,27,-1
 434 113 l 1,28,29
 419 57 419 57 371.5 24 c 128,-1,30
 324 -9 324 -9 259 -9 c 0,0,1
280 63 m 0,31,32
 324 63 324 63 356.5 84 c 128,-1,33
 389 105 389 105 406.5 145 c 128,-1,34
 424 185 424 185 424 244 c 0,35,36
 424 332 424 332 385 378 c 128,-1,37
 346 424 346 424 280 424 c 0,38,39
 237 424 237 424 204.5 403.5 c 128,-1,40
 172 383 172 383 154 343 c 128,-1,41
 136 303 136 303 136 244 c 0,42,43
 136 156 136 156 175.5 109.5 c 128,-1,44
 215 63 215 63 280 63 c 0,31,32
EndSplineSet
EndChar

StartChar: l.ss02
Encoding: 65569 -1 516
Width: 237
GlyphClass: 2
Flags: W
AnchorPoint: "Anchor-5" 118 357 basechar 0
AnchorPoint: "Anchor-2" 118 0 basechar 0
AnchorPoint: "Anchor-1" 208 705 basechar 0
AnchorPoint: "Anchor-0" 118 705 basechar 0
LayerCount: 2
Fore
SplineSet
118 -7 m 0,0,1
 97 -7 97 -7 85 5 c 128,-1,2
 73 17 73 17 73 40 c 2,3,-1
 73 666 l 2,4,5
 73 689 73 689 85 700.5 c 128,-1,6
 97 712 97 712 118 712 c 0,7,8
 140 712 140 712 152 700.5 c 128,-1,9
 164 689 164 689 164 666 c 2,10,-1
 164 40 l 2,11,12
 164 -7 164 -7 118 -7 c 0,0,1
EndSplineSet
EndChar

StartChar: fi
Encoding: 64257 64257 525
Width: 570
GlyphClass: 3
LigCaretCntFixed: 1
Flags: W
LayerCount: 2
Fore
SplineSet
147 -7 m 0,0,1
 125 -7 125 -7 113 5 c 128,-1,2
 101 17 101 17 101 40 c 2,3,-1
 101 417 l 1,4,-1
 41 417 l 2,5,6
 23 417 23 417 13 426.5 c 128,-1,7
 3 436 3 436 3 452 c 0,8,9
 3 469 3 469 13 478 c 128,-1,10
 23 487 23 487 41 487 c 2,11,-1
 126 487 l 1,12,-1
 101 463 l 1,13,-1
 101 500 l 2,14,15
 101 596 101 596 147.5 646 c 128,-1,16
 194 696 194 696 286 705 c 2,17,-1
 315 707 l 2,18,19
 332 709 332 709 342 702.5 c 128,-1,20
 352 696 352 696 355.5 686 c 128,-1,21
 359 676 359 676 356.5 665 c 128,-1,22
 354 654 354 654 347 646 c 128,-1,23
 340 638 340 638 329 638 c 2,24,-1
 301 636 l 2,25,26
 244 632 244 632 218 601 c 128,-1,27
 192 570 192 570 192 512 c 2,28,-1
 192 472 l 1,29,-1
 179 487 l 1,30,-1
 452 487 l 2,31,32
 474 487 474 487 485.5 474.5 c 128,-1,33
 497 462 497 462 497 438 c 2,34,-1
 497 44 l 2,35,36
 497 21 497 21 486 8 c 128,-1,37
 475 -5 475 -5 452 -5 c 0,38,39
 430 -5 430 -5 418 8 c 128,-1,40
 406 21 406 21 406 44 c 2,41,-1
 406 417 l 1,42,-1
 192 417 l 1,43,-1
 192 40 l 2,44,45
 192 -7 192 -7 147 -7 c 0,0,1
453 600 m 0,46,47
 427 600 427 600 412 614.5 c 128,-1,48
 397 629 397 629 397 653 c 0,49,50
 397 679 397 679 412 692.5 c 128,-1,51
 427 706 427 706 453 706 c 0,52,53
 481 706 481 706 495.5 692.5 c 128,-1,54
 510 679 510 679 510 653 c 0,55,56
 510 629 510 629 495.5 614.5 c 128,-1,57
 481 600 481 600 453 600 c 0,46,47
EndSplineSet
Ligature2: "'liga' Standard Ligatures lookup 33 subtable" f i
LCarets2: 1 286
EndChar

StartChar: ordfeminine
Encoding: 170 170 529
Width: 330
GlyphClass: 1
Flags: W
LayerCount: 2
Fore
SplineSet
136 410 m 0,0,1
 88 410 88 410 57 436 c 128,-1,2
 26 462 26 462 26 502 c 0,3,4
 26 547 26 547 67.5 567 c 128,-1,5
 109 587 109 587 183 587 c 2,6,-1
 241 587 l 1,7,-1
 241 550 l 1,8,-1
 185 550 l 2,9,10
 136 550 136 550 112.5 538.5 c 128,-1,11
 89 527 89 527 89 503 c 0,12,13
 89 483 89 483 103.5 469 c 128,-1,14
 118 455 118 455 150 455 c 0,15,16
 175 455 175 455 193 466 c 128,-1,17
 211 477 211 477 222 497 c 128,-1,18
 233 517 233 517 233 545 c 2,19,-1
 233 602 l 2,20,21
 233 635 233 635 215.5 650 c 128,-1,22
 198 665 198 665 162 665 c 0,23,24
 143 665 143 665 122 661 c 128,-1,25
 101 657 101 657 79 648 c 0,26,27
 66 643 66 643 57 647.5 c 128,-1,28
 48 652 48 652 45 661 c 128,-1,29
 42 670 42 670 46.5 679.5 c 128,-1,30
 51 689 51 689 63 694 c 0,31,32
 88 706 88 706 114 710 c 128,-1,33
 140 714 140 714 165 714 c 0,34,35
 208 714 208 714 237 701 c 128,-1,36
 266 688 266 688 280 663 c 128,-1,37
 294 638 294 638 294 600 c 2,38,-1
 294 440 l 2,39,40
 294 410 294 410 265 410 c 0,41,42
 250 410 250 410 242.5 419 c 128,-1,43
 235 428 235 428 235 441 c 2,44,-1
 235 470 l 1,45,-1
 233 470 l 1,46,47
 216 439 216 439 193 424.5 c 128,-1,48
 170 410 170 410 136 410 c 0,0,1
EndSplineSet
EndChar

StartChar: ordmasculine
Encoding: 186 186 530
Width: 342
GlyphClass: 1
Flags: W
LayerCount: 2
Fore
SplineSet
171 411 m 256,0,1
 128 411 128 411 94.5 429.5 c 128,-1,2
 61 448 61 448 41.5 482.5 c 128,-1,3
 22 517 22 517 22 563 c 0,4,5
 22 610 22 610 41.5 643.5 c 128,-1,6
 61 677 61 677 94.5 695.5 c 128,-1,7
 128 714 128 714 171 714 c 256,8,9
 214 714 214 714 247.5 695.5 c 128,-1,10
 281 677 281 677 300.5 643.5 c 128,-1,11
 320 610 320 610 320 563 c 0,12,13
 320 517 320 517 300.5 482.5 c 128,-1,14
 281 448 281 448 247.5 429.5 c 128,-1,15
 214 411 214 411 171 411 c 256,0,1
171 461 m 0,16,17
 211 461 211 461 233.5 487 c 128,-1,18
 256 513 256 513 256 563 c 256,19,20
 256 613 256 613 233.5 639 c 128,-1,21
 211 665 211 665 171 665 c 0,22,23
 132 665 132 665 109 639 c 128,-1,24
 86 613 86 613 86 563 c 256,25,26
 86 513 86 513 109 487 c 128,-1,27
 132 461 132 461 171 461 c 0,16,17
EndSplineSet
EndChar

StartChar: uni0411
Encoding: 1041 1041 532
Width: 663
GlyphClass: 1
Flags: W
LayerCount: 2
Fore
SplineSet
135 0 m 2,0,1
 111 0 111 0 98 13 c 128,-1,2
 85 26 85 26 85 50 c 2,3,-1
 85 655 l 2,4,5
 85 679 85 679 98 692 c 128,-1,6
 111 705 111 705 135 705 c 2,7,-1
 520 705 l 2,8,9
 539 705 539 705 549 695.5 c 128,-1,10
 559 686 559 686 559 668 c 0,11,12
 559 649 559 649 549 639 c 128,-1,13
 539 629 539 629 520 629 c 2,14,-1
 175 629 l 1,15,-1
 175 398 l 1,16,-1
 384 398 l 2,17,18
 496 398 496 398 557.5 348 c 128,-1,19
 619 298 619 298 619 200 c 256,20,21
 619 102 619 102 557.5 51 c 128,-1,22
 496 0 496 0 384 0 c 2,23,-1
 135 0 l 2,0,1
175 76 m 1,24,-1
 374 76 l 2,25,26
 452 76 452 76 490 106.5 c 128,-1,27
 528 137 528 137 528 199 c 0,28,29
 528 262 528 262 490 292 c 128,-1,30
 452 322 452 322 374 322 c 2,31,-1
 175 322 l 1,32,-1
 175 76 l 1,24,-1
EndSplineSet
EndChar

StartChar: uni0413
Encoding: 1043 1043 534
Width: 546
GlyphClass: 2
Flags: W
AnchorPoint: "Anchor-4" 156 355 basechar 0
AnchorPoint: "Anchor-0" 278 705 basechar 0
LayerCount: 2
Fore
SplineSet
131 -7 m 0,0,1
 109 -7 109 -7 97 5.5 c 128,-1,2
 85 18 85 18 85 41 c 2,3,-1
 85 657 l 2,4,5
 85 680 85 680 97.5 692.5 c 128,-1,6
 110 705 110 705 133 705 c 2,7,-1
 497 705 l 2,8,9
 517 705 517 705 527.5 695 c 128,-1,10
 538 685 538 685 538 666 c 256,11,12
 538 647 538 647 527.5 636.5 c 128,-1,13
 517 626 517 626 497 626 c 2,14,-1
 178 626 l 1,15,-1
 178 41 l 2,16,17
 178 18 178 18 166 5.5 c 128,-1,18
 154 -7 154 -7 131 -7 c 0,0,1
EndSplineSet
EndChar

StartChar: uni0490
Encoding: 1168 1168 536
Width: 546
GlyphClass: 1
Flags: W
LayerCount: 2
Fore
SplineSet
131 -7 m 0,0,1
 109 -7 109 -7 97 5.5 c 128,-1,2
 85 18 85 18 85 41 c 2,3,-1
 85 657 l 2,4,5
 85 680 85 680 97.5 692.5 c 128,-1,6
 110 705 110 705 133 705 c 2,7,-1
 447 705 l 1,8,-1
 447 825 l 2,9,10
 447 868 447 868 489 868 c 0,11,12
 509 868 509 868 520 857 c 128,-1,13
 531 846 531 846 531 825 c 2,14,-1
 531 674 l 2,15,16
 531 651 531 651 519 638.5 c 128,-1,17
 507 626 507 626 483 626 c 2,18,-1
 178 626 l 1,19,-1
 178 41 l 2,20,21
 178 18 178 18 166 5.5 c 128,-1,22
 154 -7 154 -7 131 -7 c 0,0,1
EndSplineSet
EndChar

StartChar: uni04F6
Encoding: 1270 1270 537
Width: 546
GlyphClass: 1
Flags: W
LayerCount: 2
Fore
SplineSet
236 -166 m 256,0,1
 216 -166 216 -166 205 -154.5 c 128,-1,2
 194 -143 194 -143 194 -123 c 2,3,-1
 194 0 l 1,4,-1
 131 0 l 2,5,6
 109 0 109 0 97 12 c 128,-1,7
 85 24 85 24 85 48 c 2,8,-1
 85 657 l 2,9,10
 85 680 85 680 97.5 692.5 c 128,-1,11
 110 705 110 705 133 705 c 2,12,-1
 497 705 l 2,13,14
 517 705 517 705 527.5 695 c 128,-1,15
 538 685 538 685 538 666 c 256,16,17
 538 647 538 647 527.5 636.5 c 128,-1,18
 517 626 517 626 497 626 c 2,19,-1
 178 626 l 1,20,-1
 178 35 l 1,21,-1
 136 77 l 1,22,-1
 232 77 l 2,23,24
 254 77 254 77 266 65 c 128,-1,25
 278 53 278 53 278 31 c 2,26,-1
 278 -123 l 2,27,28
 278 -143 278 -143 267 -154.5 c 128,-1,29
 256 -166 256 -166 236 -166 c 256,0,1
EndSplineSet
EndChar

StartChar: uni0492
Encoding: 1170 1170 538
Width: 583
GlyphClass: 1
Flags: W
LayerCount: 2
Fore
SplineSet
169 -7 m 256,0,1
 146 -7 146 -7 134 5.5 c 128,-1,2
 122 18 122 18 122 41 c 2,3,-1
 122 316 l 1,4,-1
 64 316 l 2,5,6
 45 316 45 316 35 325.5 c 128,-1,7
 25 335 25 335 25 352 c 256,8,9
 25 369 25 369 35 378 c 128,-1,10
 45 387 45 387 64 387 c 2,11,-1
 122 387 l 1,12,-1
 122 657 l 2,13,14
 122 680 122 680 134.5 692.5 c 128,-1,15
 147 705 147 705 170 705 c 2,16,-1
 534 705 l 2,17,18
 555 705 555 705 565.5 695 c 128,-1,19
 576 685 576 685 576 666 c 256,20,21
 576 647 576 647 565.5 636.5 c 128,-1,22
 555 626 555 626 534 626 c 2,23,-1
 215 626 l 1,24,-1
 215 387 l 1,25,-1
 361 387 l 2,26,27
 379 387 379 387 389 378 c 128,-1,28
 399 369 399 369 399 352 c 256,29,30
 399 335 399 335 389 325.5 c 128,-1,31
 379 316 379 316 361 316 c 2,32,-1
 215 316 l 1,33,-1
 215 41 l 2,34,35
 215 18 215 18 203.5 5.5 c 128,-1,36
 192 -7 192 -7 169 -7 c 256,0,1
EndSplineSet
Substitution2: "'locl' Localized Forms in Cyrillic lookup 16 subtable" uni0492.loclBSH
Substitution2: "'aalt' Access All Alternates lookup 0 subtable" uni0492.loclBSH
EndChar

StartChar: uni0494
Encoding: 1172 1172 539
Width: 676
GlyphClass: 1
Flags: W
LayerCount: 2
Fore
SplineSet
410 -189 m 0,0,1
 388 -189 388 -189 362 -186 c 128,-1,2
 336 -183 336 -183 316 -177 c 0,3,4
 302 -172 302 -172 294.5 -162.5 c 128,-1,5
 287 -153 287 -153 286.5 -141.5 c 128,-1,6
 286 -130 286 -130 291.5 -120.5 c 128,-1,7
 297 -111 297 -111 307 -106 c 128,-1,8
 317 -101 317 -101 332 -104 c 0,9,10
 349 -109 349 -109 365.5 -111 c 128,-1,11
 382 -113 382 -113 400 -113 c 0,12,13
 461 -113 461 -113 494 -72 c 128,-1,14
 527 -31 527 -31 527 50 c 2,15,-1
 527 140 l 2,16,17
 527 251 527 251 477 303 c 128,-1,18
 427 355 427 355 329 355 c 0,19,20
 284 355 284 355 246 346 c 128,-1,21
 208 337 208 337 178 318 c 1,22,-1
 178 41 l 2,23,24
 178 18 178 18 166.5 5.5 c 128,-1,25
 155 -7 155 -7 131 -7 c 0,26,27
 109 -7 109 -7 97 5.5 c 128,-1,28
 85 18 85 18 85 41 c 2,29,-1
 85 657 l 2,30,31
 85 680 85 680 97.5 692.5 c 128,-1,32
 110 705 110 705 133 705 c 2,33,-1
 516 705 l 2,34,35
 536 705 536 705 547 695 c 128,-1,36
 558 685 558 685 558 666 c 256,37,38
 558 647 558 647 547 636.5 c 128,-1,39
 536 626 536 626 516 626 c 2,40,-1
 178 626 l 1,41,-1
 178 402 l 1,42,43
 205 418 205 418 248 427.5 c 128,-1,44
 291 437 291 437 337 437 c 0,45,46
 407 437 407 437 459.5 419 c 128,-1,47
 512 401 512 401 547.5 364.5 c 128,-1,48
 583 328 583 328 601.5 273.5 c 128,-1,49
 620 219 620 219 620 146 c 2,50,-1
 620 53 l 2,51,52
 620 -25 620 -25 594.5 -79 c 128,-1,53
 569 -133 569 -133 522 -161 c 128,-1,54
 475 -189 475 -189 410 -189 c 0,0,1
EndSplineSet
EndChar

StartChar: uni0414
Encoding: 1044 1044 540
Width: 783
GlyphClass: 1
Flags: W
AnchorPoint: "Anchor-0" 422 705 basechar 0
LayerCount: 2
Fore
SplineSet
58 -166 m 0,0,1
 37 -166 37 -166 26.5 -154.5 c 128,-1,2
 16 -143 16 -143 16 -123 c 2,3,-1
 16 31 l 2,4,5
 16 76 16 76 62 76 c 2,6,-1
 127 76 l 1,7,-1
 72 62 l 1,8,9
 130 124 130 124 158 237 c 128,-1,10
 186 350 186 350 186 523 c 2,11,-1
 186 655 l 2,12,13
 186 679 186 679 199 692 c 128,-1,14
 212 705 212 705 236 705 c 2,15,-1
 610 705 l 2,16,17
 635 705 635 705 648 692 c 128,-1,18
 661 679 661 679 661 655 c 2,19,-1
 661 40 l 1,20,-1
 624 76 l 1,21,-1
 715 76 l 2,22,23
 737 76 737 76 749 64.5 c 128,-1,24
 761 53 761 53 761 31 c 2,25,-1
 761 -123 l 2,26,27
 761 -166 761 -166 719 -166 c 0,28,29
 699 -166 699 -166 688 -154.5 c 128,-1,30
 677 -143 677 -143 677 -123 c 2,31,-1
 677 0 l 1,32,-1
 100 0 l 1,33,-1
 100 -123 l 2,34,35
 100 -166 100 -166 58 -166 c 0,0,1
181 76 m 1,36,-1
 567 76 l 1,37,-1
 567 629 l 1,38,-1
 272 629 l 1,39,-1
 272 516 l 2,40,41
 272 358 272 358 250 252 c 128,-1,42
 228 146 228 146 181 76 c 1,36,-1
EndSplineSet
EndChar

StartChar: uni0416
Encoding: 1046 1046 544
Width: 979
GlyphClass: 2
Flags: W
AnchorPoint: "Anchor-0" 489 705 basechar 0
LayerCount: 2
Fore
SplineSet
490 -7 m 0,0,1
 468 -7 468 -7 456.5 5.5 c 128,-1,2
 445 18 445 18 445 41 c 2,3,-1
 445 315 l 1,4,-1
 363 315 l 2,5,6
 308 315 308 315 271 289.5 c 128,-1,7
 234 264 234 264 206 206 c 2,8,-1
 119 23 l 2,9,10
 111 6 111 6 98 -0.5 c 128,-1,11
 85 -7 85 -7 70.5 -6 c 128,-1,12
 56 -5 56 -5 45 3.5 c 128,-1,13
 34 12 34 12 30.5 26 c 128,-1,14
 27 40 27 40 36 58 c 2,15,-1
 128 246 l 2,16,17
 160 311 160 311 205 347 c 128,-1,18
 250 383 250 383 310 391 c 1,19,-1
 275 362 l 1,20,-1
 87 645 l 2,21,22
 76 661 76 661 77.5 674.5 c 128,-1,23
 79 688 79 688 88 697.5 c 128,-1,24
 97 707 97 707 110.5 710 c 128,-1,25
 124 713 124 713 138 708 c 128,-1,26
 152 703 152 703 162 688 c 2,27,-1
 364 378 l 1,28,-1
 341 395 l 1,29,-1
 445 395 l 1,30,-1
 445 665 l 2,31,32
 445 688 445 688 456.5 700 c 128,-1,33
 468 712 468 712 490 712 c 0,34,35
 511 712 511 712 523 700 c 128,-1,36
 535 688 535 688 535 665 c 2,37,-1
 535 395 l 1,38,-1
 640 395 l 1,39,-1
 615 378 l 1,40,-1
 818 688 l 2,41,42
 828 703 828 703 841.5 708 c 128,-1,43
 855 713 855 713 868.5 710 c 128,-1,44
 882 707 882 707 891.5 697.5 c 128,-1,45
 901 688 901 688 902 674.5 c 128,-1,46
 903 661 903 661 893 645 c 2,47,-1
 704 362 l 1,48,-1
 669 391 l 1,49,50
 710 386 710 386 743 368 c 128,-1,51
 776 350 776 350 802.5 319.5 c 128,-1,52
 829 289 829 289 849 246 c 2,53,-1
 942 58 l 2,54,55
 951 40 951 40 947.5 26 c 128,-1,56
 944 12 944 12 933 3.5 c 128,-1,57
 922 -5 922 -5 907.5 -6 c 128,-1,58
 893 -7 893 -7 880 -0.5 c 128,-1,59
 867 6 867 6 858 23 c 2,60,-1
 772 206 l 2,61,62
 744 265 744 265 707 290 c 128,-1,63
 670 315 670 315 616 315 c 2,64,-1
 535 315 l 1,65,-1
 535 41 l 2,66,67
 535 18 535 18 523 5.5 c 128,-1,68
 511 -7 511 -7 490 -7 c 0,0,1
EndSplineSet
EndChar

StartChar: uni0417
Encoding: 1047 1047 545
Width: 639
GlyphClass: 2
Flags: W
AnchorPoint: "Anchor-2" 317 0 basechar 0
AnchorPoint: "Anchor-0" 313 705 basechar 0
LayerCount: 2
Fore
SplineSet
310 -9 m 0,0,1
 233 -9 233 -9 168 10 c 128,-1,2
 103 29 103 29 58 64 c 0,3,4
 45 74 45 74 40.5 86.5 c 128,-1,5
 36 99 36 99 39 110.5 c 128,-1,6
 42 122 42 122 50.5 130 c 128,-1,7
 59 138 59 138 71.5 139 c 128,-1,8
 84 140 84 140 99 131 c 0,9,10
 127 111 127 111 159 98 c 128,-1,11
 191 85 191 85 227.5 78.5 c 128,-1,12
 264 72 264 72 304 72 c 0,13,14
 367 72 367 72 407 86 c 128,-1,15
 447 100 447 100 466.5 128.5 c 128,-1,16
 486 157 486 157 486 200 c 0,17,18
 486 261 486 261 448 290 c 128,-1,19
 410 319 410 319 333 319 c 2,20,-1
 194 319 l 2,21,22
 175 319 175 319 164.5 329 c 128,-1,23
 154 339 154 339 154 358 c 0,24,25
 154 375 154 375 164.5 385 c 128,-1,26
 175 395 175 395 194 395 c 2,27,-1
 316 395 l 2,28,29
 392 395 392 395 430.5 424.5 c 128,-1,30
 469 454 469 454 469 512 c 0,31,32
 469 549 469 549 451 576.5 c 128,-1,33
 433 604 433 604 396.5 619 c 128,-1,34
 360 634 360 634 305 634 c 0,35,36
 254 634 254 634 206 620 c 128,-1,37
 158 606 158 606 118 579 c 0,38,39
 102 569 102 569 89.5 570.5 c 128,-1,40
 77 572 77 572 69 580 c 128,-1,41
 61 588 61 588 58 600 c 128,-1,42
 55 612 55 612 59.5 624.5 c 128,-1,43
 64 637 64 637 78 646 c 0,44,45
 126 680 126 680 187.5 697 c 128,-1,46
 249 714 249 714 313 714 c 0,47,48
 396 714 396 714 451 690 c 128,-1,49
 506 666 506 666 534 622.5 c 128,-1,50
 562 579 562 579 562 521 c 0,51,52
 562 456 562 456 523.5 412 c 128,-1,53
 485 368 485 368 420 353 c 1,54,-1
 420 368 l 1,55,56
 494 359 494 359 536.5 313.5 c 128,-1,57
 579 268 579 268 579 195 c 0,58,59
 579 132 579 132 550 86 c 128,-1,60
 521 40 521 40 461.5 15.5 c 128,-1,61
 402 -9 402 -9 310 -9 c 0,0,1
EndSplineSet
EndChar

StartChar: uni0418
Encoding: 1048 1048 546
Width: 741
GlyphClass: 2
Flags: W
AnchorPoint: "Anchor-0" 371 705 basechar 0
LayerCount: 2
Fore
SplineSet
124 -7 m 0,0,1
 115 -7 115 -7 107.5 -4 c 128,-1,2
 100 -1 100 -1 95 5 c 128,-1,3
 90 11 90 11 87.5 20 c 128,-1,4
 85 29 85 29 85 41 c 2,5,-1
 85 667 l 2,6,7
 85 689 85 689 96.5 700.5 c 128,-1,8
 108 712 108 712 128 712 c 0,9,10
 149 712 149 712 160 700.5 c 128,-1,11
 171 689 171 689 171 667 c 2,12,-1
 171 123 l 1,13,-1
 149 123 l 1,14,-1
 571 685 l 2,15,16
 582 700 582 700 592.5 706 c 128,-1,17
 603 712 603 712 619 712 c 0,18,19
 631 712 631 712 639 707 c 128,-1,20
 647 702 647 702 652 692 c 128,-1,21
 657 682 657 682 657 668 c 2,22,-1
 657 38 l 2,23,24
 657 17 657 17 646 5 c 128,-1,25
 635 -7 635 -7 614 -7 c 256,26,27
 593 -7 593 -7 581.5 5 c 128,-1,28
 570 17 570 17 570 38 c 2,29,-1
 570 583 l 1,30,-1
 592 583 l 1,31,-1
 171 21 l 2,32,33
 160 6 160 6 150.5 -0.5 c 128,-1,34
 141 -7 141 -7 124 -7 c 0,0,1
EndSplineSet
EndChar

StartChar: uni048A
Encoding: 1162 1162 549
Width: 761
GlyphClass: 1
Flags: W
LayerCount: 2
Fore
SplineSet
700 -137 m 2,0,1
 694 -152 694 -152 684 -159 c 128,-1,2
 674 -166 674 -166 662 -166 c 128,-1,3
 650 -166 650 -166 640 -160 c 128,-1,4
 630 -154 630 -154 625.5 -143 c 128,-1,5
 621 -132 621 -132 627 -115 c 2,6,-1
 670 14 l 1,7,-1
 685 0 l 1,8,-1
 616 0 l 2,9,10
 594 0 594 0 582 10.5 c 128,-1,11
 570 21 570 21 570 43 c 2,12,-1
 570 583 l 1,13,-1
 592 583 l 1,14,-1
 171 21 l 2,15,16
 160 6 160 6 150.5 -0.5 c 128,-1,17
 141 -7 141 -7 124 -7 c 0,18,19
 115 -7 115 -7 107.5 -4 c 128,-1,20
 100 -1 100 -1 95 5 c 128,-1,21
 90 11 90 11 87.5 20 c 128,-1,22
 85 29 85 29 85 41 c 2,23,-1
 85 667 l 2,24,25
 85 689 85 689 96.5 700.5 c 128,-1,26
 108 712 108 712 128 712 c 0,27,28
 149 712 149 712 160 700.5 c 128,-1,29
 171 689 171 689 171 667 c 2,30,-1
 171 123 l 1,31,-1
 149 123 l 1,32,-1
 571 685 l 2,33,34
 582 700 582 700 592.5 706 c 128,-1,35
 603 712 603 712 619 712 c 0,36,37
 631 712 631 712 639 707 c 128,-1,38
 647 702 647 702 652 692 c 128,-1,39
 657 682 657 682 657 668 c 2,40,-1
 657 54 l 1,41,-1
 633 77 l 1,42,-1
 710 77 l 2,43,44
 738 77 738 77 749.5 62.5 c 128,-1,45
 761 48 761 48 753 22 c 2,46,-1
 700 -137 l 2,0,1
371 760 m 0,47,48
 309 760 309 760 261 787.5 c 128,-1,49
 213 815 213 815 188 869 c 0,50,51
 181 885 181 885 185.5 895.5 c 128,-1,52
 190 906 190 906 202 910 c 0,53,54
 215 914 215 914 224 909.5 c 128,-1,55
 233 905 233 905 241 891 c 0,56,57
 259 854 259 854 291 835 c 128,-1,58
 323 816 323 816 371 816 c 0,59,60
 418 816 418 816 450.5 835 c 128,-1,61
 483 854 483 854 501 891 c 0,62,63
 509 905 509 905 518 909.5 c 128,-1,64
 527 914 527 914 539 910 c 0,65,66
 552 906 552 906 556 895.5 c 128,-1,67
 560 885 560 885 554 869 c 0,68,69
 529 815 529 815 480.5 787.5 c 128,-1,70
 432 760 432 760 371 760 c 0,47,48
EndSplineSet
EndChar

StartChar: uni041A
Encoding: 1050 1050 550
Width: 649
GlyphClass: 2
Flags: W
AnchorPoint: "Anchor-5" 329 353 basechar 0
AnchorPoint: "Anchor-0" 330 705 basechar 0
LayerCount: 2
Fore
SplineSet
131 -7 m 0,0,1
 109 -7 109 -7 97 5.5 c 128,-1,2
 85 18 85 18 85 41 c 2,3,-1
 85 665 l 2,4,5
 85 688 85 688 97 700 c 128,-1,6
 109 712 109 712 131 712 c 0,7,8
 154 712 154 712 166 700 c 128,-1,9
 178 688 178 688 178 665 c 2,10,-1
 178 395 l 1,11,-1
 310 395 l 1,12,-1
 285 378 l 1,13,-1
 488 688 l 2,14,15
 498 703 498 703 511.5 708 c 128,-1,16
 525 713 525 713 538.5 710 c 128,-1,17
 552 707 552 707 561.5 697.5 c 128,-1,18
 571 688 571 688 572 674.5 c 128,-1,19
 573 661 573 661 563 645 c 2,20,-1
 374 362 l 1,21,-1
 339 391 l 1,22,23
 400 383 400 383 444 346.5 c 128,-1,24
 488 310 488 310 520 246 c 2,25,-1
 612 58 l 2,26,27
 621 40 621 40 617.5 26 c 128,-1,28
 614 12 614 12 603 3.5 c 128,-1,29
 592 -5 592 -5 577.5 -6 c 128,-1,30
 563 -7 563 -7 550 -0.5 c 128,-1,31
 537 6 537 6 528 23 c 2,32,-1
 442 206 l 2,33,34
 414 265 414 265 377 290 c 128,-1,35
 340 315 340 315 286 315 c 2,36,-1
 178 315 l 1,37,-1
 178 41 l 2,38,39
 178 18 178 18 166.5 5.5 c 128,-1,40
 155 -7 155 -7 131 -7 c 0,0,1
EndSplineSet
EndChar

StartChar: uni041B
Encoding: 1051 1051 552
Width: 743
GlyphClass: 2
Flags: W
LayerCount: 2
Fore
SplineSet
612 -7 m 0,0,1
 590 -7 590 -7 578 5.5 c 128,-1,2
 566 18 566 18 566 41 c 2,3,-1
 566 626 l 1,4,-1
 270 626 l 1,5,-1
 270 469 l 2,6,7
 270 370 270 370 258.5 294.5 c 128,-1,8
 247 219 247 219 224.5 163.5 c 128,-1,9
 202 108 202 108 168.5 68 c 128,-1,10
 135 28 135 28 91 1 c 0,11,12
 74 -11 74 -11 57 -7.5 c 128,-1,13
 40 -4 40 -4 29 12 c 0,14,15
 17 30 17 30 21.5 46 c 128,-1,16
 26 62 26 62 44 74 c 0,17,18
 78 95 78 95 104 126.5 c 128,-1,19
 130 158 130 158 148 206 c 128,-1,20
 166 254 166 254 175 324.5 c 128,-1,21
 184 395 184 395 184 493 c 2,22,-1
 184 655 l 2,23,24
 184 679 184 679 197 692 c 128,-1,25
 210 705 210 705 235 705 c 2,26,-1
 608 705 l 2,27,28
 633 705 633 705 646 692 c 128,-1,29
 659 679 659 679 659 655 c 2,30,-1
 659 41 l 2,31,32
 659 18 659 18 647 5.5 c 128,-1,33
 635 -7 635 -7 612 -7 c 0,0,1
EndSplineSet
EndChar

StartChar: uni041F
Encoding: 1055 1055 556
Width: 758
GlyphClass: 2
Flags: W
LayerCount: 2
Fore
SplineSet
131 -7 m 0,0,1
 109 -7 109 -7 97 5.5 c 128,-1,2
 85 18 85 18 85 41 c 2,3,-1
 85 655 l 2,4,5
 85 679 85 679 98 692 c 128,-1,6
 111 705 111 705 135 705 c 2,7,-1
 623 705 l 2,8,9
 648 705 648 705 661 692 c 128,-1,10
 674 679 674 679 674 655 c 2,11,-1
 674 41 l 2,12,13
 674 18 674 18 662 5.5 c 128,-1,14
 650 -7 650 -7 627 -7 c 0,15,16
 605 -7 605 -7 593 5.5 c 128,-1,17
 581 18 581 18 581 41 c 2,18,-1
 581 626 l 1,19,-1
 178 626 l 1,20,-1
 178 41 l 2,21,22
 178 18 178 18 166.5 5.5 c 128,-1,23
 155 -7 155 -7 131 -7 c 0,0,1
EndSplineSet
EndChar

StartChar: uni0423
Encoding: 1059 1059 560
Width: 647
GlyphClass: 2
Flags: W
AnchorPoint: "Anchor-0" 326 705 basechar 0
LayerCount: 2
Fore
SplineSet
258 -7 m 0,0,1
 242 -7 242 -7 230 1.5 c 128,-1,2
 218 10 218 10 215.5 24 c 128,-1,3
 213 38 213 38 223 57 c 2,4,-1
 312 230 l 1,5,-1
 312 196 l 1,6,-1
 31 648 l 2,7,8
 21 665 21 665 22.5 679.5 c 128,-1,9
 24 694 24 694 35.5 703 c 128,-1,10
 47 712 47 712 64 712 c 0,11,12
 82 712 82 712 92 703.5 c 128,-1,13
 102 695 102 695 112 679 c 2,14,-1
 358 281 l 1,15,-1
 339 281 l 1,16,-1
 543 679 l 2,17,18
 550 693 550 693 560 702.5 c 128,-1,19
 570 712 570 712 589 712 c 0,20,21
 606 712 606 712 617 704 c 128,-1,22
 628 696 628 696 631 682 c 128,-1,23
 634 668 634 668 624 648 c 2,24,-1
 305 26 l 2,25,26
 298 13 298 13 287.5 3 c 128,-1,27
 277 -7 277 -7 258 -7 c 0,0,1
EndSplineSet
EndChar

StartChar: uni0424
Encoding: 1060 1060 562
Width: 854
GlyphClass: 1
Flags: W
LayerCount: 2
Fore
SplineSet
427 -30 m 0,0,1
 405 -30 405 -30 392.5 -17.5 c 128,-1,2
 380 -5 380 -5 380 18 c 2,3,-1
 380 82 l 1,4,-1
 405 56 l 1,5,-1
 380 56 l 2,6,7
 280 56 280 56 208.5 92.5 c 128,-1,8
 137 129 137 129 98 196.5 c 128,-1,9
 59 264 59 264 59 358 c 0,10,11
 59 429 59 429 80.5 485.5 c 128,-1,12
 102 542 102 542 143 580.5 c 128,-1,13
 184 619 184 619 244 639.5 c 128,-1,14
 304 660 304 660 380 660 c 2,15,-1
 405 660 l 1,16,-1
 380 634 l 1,17,-1
 380 693 l 2,18,19
 380 716 380 716 392.5 728 c 128,-1,20
 405 740 405 740 427 740 c 0,21,22
 450 740 450 740 462 728 c 128,-1,23
 474 716 474 716 474 693 c 2,24,-1
 474 634 l 1,25,-1
 449 660 l 1,26,-1
 474 660 l 2,27,28
 577 660 577 660 648 624 c 128,-1,29
 719 588 719 588 757 520.5 c 128,-1,30
 795 453 795 453 795 358 c 0,31,32
 795 288 795 288 773 231.5 c 128,-1,33
 751 175 751 175 709.5 136.5 c 128,-1,34
 668 98 668 98 608.5 77 c 128,-1,35
 549 56 549 56 474 56 c 2,36,-1
 449 56 l 1,37,-1
 474 82 l 1,38,-1
 474 18 l 2,39,40
 474 -5 474 -5 462.5 -17.5 c 128,-1,41
 451 -30 451 -30 427 -30 c 0,0,1
381 111 m 1,42,-1
 381 605 l 1,43,-1
 403 586 l 1,44,-1
 368 586 l 2,45,46
 320 586 320 586 281 571 c 128,-1,47
 242 556 242 556 213.5 527 c 128,-1,48
 185 498 185 498 170 456 c 128,-1,49
 155 414 155 414 155 358 c 0,50,51
 155 286 155 286 182 235 c 128,-1,52
 209 184 209 184 257 157 c 128,-1,53
 305 130 305 130 368 130 c 2,54,-1
 403 130 l 1,55,-1
 381 111 l 1,42,-1
473 111 m 1,56,-1
 452 130 l 1,57,-1
 486 130 l 2,58,59
 534 130 534 130 573 145 c 128,-1,60
 612 160 612 160 640 189.5 c 128,-1,61
 668 219 668 219 683.5 261.5 c 128,-1,62
 699 304 699 304 699 358 c 0,63,64
 699 432 699 432 672.5 483 c 128,-1,65
 646 534 646 534 598.5 560 c 128,-1,66
 551 586 551 586 486 586 c 2,67,-1
 452 586 l 1,68,-1
 473 605 l 1,69,-1
 473 111 l 1,56,-1
EndSplineSet
EndChar

StartChar: uni0427
Encoding: 1063 1063 564
Width: 680
GlyphClass: 2
Flags: W
AnchorPoint: "Anchor-5" 305 295 basechar 0
AnchorPoint: "Anchor-0" 321 705 basechar 0
LayerCount: 2
Fore
SplineSet
549 -7 m 0,0,1
 527 -7 527 -7 515 5.5 c 128,-1,2
 503 18 503 18 503 41 c 2,3,-1
 503 293 l 1,4,5
 473 276 473 276 426.5 267 c 128,-1,6
 380 258 380 258 334 258 c 0,7,8
 245 258 245 258 183 290.5 c 128,-1,9
 121 323 121 323 89 387.5 c 128,-1,10
 57 452 57 452 57 549 c 2,11,-1
 57 664 l 2,12,13
 57 688 57 688 69 700 c 128,-1,14
 81 712 81 712 103 712 c 256,15,16
 125 712 125 712 137 700 c 128,-1,17
 149 688 149 688 149 664 c 2,18,-1
 149 555 l 2,19,20
 149 444 149 444 198 392 c 128,-1,21
 247 340 247 340 343 340 c 0,22,23
 385 340 385 340 426.5 348.5 c 128,-1,24
 468 357 468 357 503 378 c 1,25,-1
 503 664 l 2,26,27
 503 688 503 688 515 700 c 128,-1,28
 527 712 527 712 549 712 c 0,29,30
 572 712 572 712 584 700 c 128,-1,31
 596 688 596 688 596 664 c 2,32,-1
 596 41 l 2,33,34
 596 18 596 18 584.5 5.5 c 128,-1,35
 573 -7 573 -7 549 -7 c 0,0,1
EndSplineSet
EndChar

StartChar: uni0426
Encoding: 1062 1062 565
Width: 796
GlyphClass: 1
Flags: W
LayerCount: 2
Fore
SplineSet
732 -168 m 0,0,1
 712 -168 712 -168 701 -156.5 c 128,-1,2
 690 -145 690 -145 690 -125 c 2,3,-1
 690 0 l 1,4,-1
 135 0 l 2,5,6
 111 0 111 0 98 13 c 128,-1,7
 85 26 85 26 85 50 c 2,8,-1
 85 664 l 2,9,10
 85 688 85 688 97 700 c 128,-1,11
 109 712 109 712 131 712 c 0,12,13
 154 712 154 712 166 700 c 128,-1,14
 178 688 178 688 178 664 c 2,15,-1
 178 79 l 1,16,-1
 581 79 l 1,17,-1
 581 664 l 2,18,19
 581 688 581 688 593 700 c 128,-1,20
 605 712 605 712 627 712 c 0,21,22
 650 712 650 712 662 700 c 128,-1,23
 674 688 674 688 674 664 c 2,24,-1
 674 37 l 1,25,-1
 632 79 l 1,26,-1
 728 79 l 2,27,28
 750 79 750 79 762 67.5 c 128,-1,29
 774 56 774 56 774 33 c 2,30,-1
 774 -125 l 2,31,32
 774 -168 774 -168 732 -168 c 0,0,1
EndSplineSet
EndChar

StartChar: uni0428
Encoding: 1064 1064 566
Width: 1057
GlyphClass: 1
Flags: W
LayerCount: 2
Fore
SplineSet
135 0 m 2,0,1
 111 0 111 0 98 13 c 128,-1,2
 85 26 85 26 85 50 c 2,3,-1
 85 664 l 2,4,5
 85 688 85 688 97 700 c 128,-1,6
 109 712 109 712 131 712 c 256,7,8
 153 712 153 712 164.5 700 c 128,-1,9
 176 688 176 688 176 664 c 2,10,-1
 176 79 l 1,11,-1
 483 79 l 1,12,-1
 483 664 l 2,13,14
 483 688 483 688 495 700 c 128,-1,15
 507 712 507 712 528 712 c 0,16,17
 551 712 551 712 562.5 700 c 128,-1,18
 574 688 574 688 574 664 c 2,19,-1
 574 79 l 1,20,-1
 881 79 l 1,21,-1
 881 664 l 2,22,23
 881 688 881 688 893 700 c 128,-1,24
 905 712 905 712 926 712 c 0,25,26
 949 712 949 712 960.5 700 c 128,-1,27
 972 688 972 688 972 664 c 2,28,-1
 972 50 l 2,29,30
 972 26 972 26 959 13 c 128,-1,31
 946 0 946 0 922 0 c 2,32,-1
 135 0 l 2,0,1
EndSplineSet
EndChar

StartChar: uni0429
Encoding: 1065 1065 567
Width: 1094
GlyphClass: 1
Flags: W
LayerCount: 2
Fore
SplineSet
1030 -166 m 256,0,1
 1010 -166 1010 -166 999.5 -154.5 c 128,-1,2
 989 -143 989 -143 989 -123 c 2,3,-1
 989 0 l 1,4,-1
 135 0 l 2,5,6
 111 0 111 0 98 13 c 128,-1,7
 85 26 85 26 85 50 c 2,8,-1
 85 664 l 2,9,10
 85 688 85 688 97 700 c 128,-1,11
 109 712 109 712 131 712 c 256,12,13
 153 712 153 712 164.5 700 c 128,-1,14
 176 688 176 688 176 664 c 2,15,-1
 176 79 l 1,16,-1
 483 79 l 1,17,-1
 483 664 l 2,18,19
 483 688 483 688 495 700 c 128,-1,20
 507 712 507 712 528 712 c 0,21,22
 551 712 551 712 562.5 700 c 128,-1,23
 574 688 574 688 574 664 c 2,24,-1
 574 79 l 1,25,-1
 881 79 l 1,26,-1
 881 664 l 2,27,28
 881 688 881 688 893 700 c 128,-1,29
 905 712 905 712 926 712 c 0,30,31
 949 712 949 712 960.5 700 c 128,-1,32
 972 688 972 688 972 664 c 2,33,-1
 972 37 l 1,34,-1
 930 79 l 1,35,-1
 1026 79 l 2,36,37
 1048 79 1048 79 1060 67.5 c 128,-1,38
 1072 56 1072 56 1072 33 c 2,39,-1
 1072 -123 l 2,40,41
 1072 -143 1072 -143 1061 -154.5 c 128,-1,42
 1050 -166 1050 -166 1030 -166 c 256,0,1
EndSplineSet
EndChar

StartChar: uni040F
Encoding: 1039 1039 568
Width: 758
GlyphClass: 1
Flags: W
LayerCount: 2
Fore
SplineSet
379 -166 m 0,0,1
 359 -166 359 -166 348.5 -154.5 c 128,-1,2
 338 -143 338 -143 338 -123 c 2,3,-1
 338 0 l 1,4,-1
 135 0 l 2,5,6
 111 0 111 0 98 13 c 128,-1,7
 85 26 85 26 85 50 c 2,8,-1
 85 664 l 2,9,10
 85 688 85 688 97 700 c 128,-1,11
 109 712 109 712 131 712 c 0,12,13
 154 712 154 712 166 700 c 128,-1,14
 178 688 178 688 178 664 c 2,15,-1
 178 79 l 1,16,-1
 581 79 l 1,17,-1
 581 664 l 2,18,19
 581 688 581 688 593 700 c 128,-1,20
 605 712 605 712 627 712 c 0,21,22
 650 712 650 712 662 700 c 128,-1,23
 674 688 674 688 674 664 c 2,24,-1
 674 50 l 2,25,26
 674 26 674 26 661 13 c 128,-1,27
 648 0 648 0 623 0 c 2,28,-1
 421 0 l 1,29,-1
 421 -123 l 2,30,31
 421 -143 421 -143 410.5 -154.5 c 128,-1,32
 400 -166 400 -166 379 -166 c 0,0,1
EndSplineSet
EndChar

StartChar: uni042C
Encoding: 1068 1068 569
Width: 663
GlyphClass: 1
Flags: W
LayerCount: 2
Fore
SplineSet
135 0 m 2,0,1
 111 0 111 0 98 13 c 128,-1,2
 85 26 85 26 85 50 c 2,3,-1
 85 664 l 2,4,5
 85 688 85 688 97 700 c 128,-1,6
 109 712 109 712 131 712 c 0,7,8
 154 712 154 712 166 700 c 128,-1,9
 178 688 178 688 178 664 c 2,10,-1
 178 398 l 1,11,-1
 384 398 l 2,12,13
 458 398 458 398 511 375.5 c 128,-1,14
 564 353 564 353 591.5 309.5 c 128,-1,15
 619 266 619 266 619 200 c 0,16,17
 619 102 619 102 557.5 51 c 128,-1,18
 496 0 496 0 384 0 c 2,19,-1
 135 0 l 2,0,1
178 76 m 1,20,-1
 374 76 l 2,21,22
 452 76 452 76 490 106.5 c 128,-1,23
 528 137 528 137 528 199 c 0,24,25
 528 262 528 262 490 292 c 128,-1,26
 452 322 452 322 374 322 c 2,27,-1
 178 322 l 1,28,-1
 178 76 l 1,20,-1
EndSplineSet
EndChar

StartChar: uni042B
Encoding: 1067 1067 570
Width: 865
GlyphClass: 2
Flags: W
AnchorPoint: "Anchor-0" 433 705 basechar 0
LayerCount: 2
Fore
SplineSet
135 0 m 2,0,1
 111 0 111 0 98 13 c 128,-1,2
 85 26 85 26 85 50 c 2,3,-1
 85 664 l 2,4,5
 85 688 85 688 97 700 c 128,-1,6
 109 712 109 712 131 712 c 0,7,8
 154 712 154 712 166 700 c 128,-1,9
 178 688 178 688 178 664 c 2,10,-1
 178 398 l 1,11,-1
 354 398 l 2,12,13
 428 398 428 398 481 375.5 c 128,-1,14
 534 353 534 353 561.5 309.5 c 128,-1,15
 589 266 589 266 589 200 c 0,16,17
 589 102 589 102 527.5 51 c 128,-1,18
 466 0 466 0 354 0 c 2,19,-1
 135 0 l 2,0,1
178 76 m 1,20,-1
 344 76 l 2,21,22
 422 76 422 76 460 106.5 c 128,-1,23
 498 137 498 137 498 199 c 0,24,25
 498 262 498 262 460 292 c 128,-1,26
 422 322 422 322 344 322 c 2,27,-1
 178 322 l 1,28,-1
 178 76 l 1,20,-1
734 -7 m 256,29,30
 711 -7 711 -7 699 5.5 c 128,-1,31
 687 18 687 18 687 41 c 2,32,-1
 687 664 l 2,33,34
 687 688 687 688 699 700 c 128,-1,35
 711 712 711 712 734 712 c 0,36,37
 756 712 756 712 768 700 c 128,-1,38
 780 688 780 688 780 664 c 2,39,-1
 780 41 l 2,40,41
 780 18 780 18 768.5 5.5 c 128,-1,42
 757 -7 757 -7 734 -7 c 256,29,30
EndSplineSet
EndChar

StartChar: uni042A
Encoding: 1066 1066 571
Width: 794
GlyphClass: 1
Flags: W
LayerCount: 2
Fore
SplineSet
266 0 m 2,0,1
 241 0 241 0 228 13 c 128,-1,2
 215 26 215 26 215 50 c 2,3,-1
 215 626 l 1,4,-1
 39 626 l 2,5,6
 19 626 19 626 8 636.5 c 128,-1,7
 -3 647 -3 647 -3 666 c 256,8,9
 -3 685 -3 685 8 695 c 128,-1,10
 19 705 19 705 39 705 c 2,11,-1
 258 705 l 2,12,13
 283 705 283 705 296 692 c 128,-1,14
 309 679 309 679 309 655 c 2,15,-1
 309 398 l 1,16,-1
 515 398 l 2,17,18
 589 398 589 398 641.5 375.5 c 128,-1,19
 694 353 694 353 722 309.5 c 128,-1,20
 750 266 750 266 750 200 c 0,21,22
 750 102 750 102 688 51 c 128,-1,23
 626 0 626 0 515 0 c 2,24,-1
 266 0 l 2,0,1
309 76 m 1,25,-1
 505 76 l 2,26,27
 583 76 583 76 621 106.5 c 128,-1,28
 659 137 659 137 659 199 c 0,29,30
 659 262 659 262 621 292 c 128,-1,31
 583 322 583 322 505 322 c 2,32,-1
 309 322 l 1,33,-1
 309 76 l 1,25,-1
EndSplineSet
EndChar

StartChar: uni0409
Encoding: 1033 1033 572
Width: 1130
GlyphClass: 1
Flags: W
LayerCount: 2
Fore
SplineSet
602 0 m 2,0,1
 578 0 578 0 565 13 c 128,-1,2
 552 26 552 26 552 50 c 2,3,-1
 552 626 l 1,4,-1
 270 626 l 1,5,-1
 270 469 l 2,6,7
 270 370 270 370 258.5 294.5 c 128,-1,8
 247 219 247 219 224.5 163 c 128,-1,9
 202 107 202 107 168.5 67.5 c 128,-1,10
 135 28 135 28 90 1 c 0,11,12
 78 -6 78 -6 66.5 -7.5 c 128,-1,13
 55 -9 55 -9 45.5 -4 c 128,-1,14
 36 1 36 1 29 12 c 0,15,16
 17 30 17 30 22 45 c 128,-1,17
 27 60 27 60 44 74 c 0,18,19
 78 95 78 95 104 126.5 c 128,-1,20
 130 158 130 158 148 206 c 128,-1,21
 166 254 166 254 175 324.5 c 128,-1,22
 184 395 184 395 184 493 c 2,23,-1
 184 655 l 2,24,25
 184 679 184 679 197 692 c 128,-1,26
 210 705 210 705 235 705 c 2,27,-1
 594 705 l 2,28,29
 619 705 619 705 632 692 c 128,-1,30
 645 679 645 679 645 655 c 2,31,-1
 645 398 l 1,32,-1
 851 398 l 2,33,34
 925 398 925 398 978 375.5 c 128,-1,35
 1031 353 1031 353 1058.5 309.5 c 128,-1,36
 1086 266 1086 266 1086 200 c 0,37,38
 1086 102 1086 102 1024.5 51 c 128,-1,39
 963 0 963 0 851 0 c 2,40,-1
 602 0 l 2,0,1
645 76 m 1,41,-1
 841 76 l 2,42,43
 919 76 919 76 957 106.5 c 128,-1,44
 995 137 995 137 995 199 c 0,45,46
 995 262 995 262 957 292 c 128,-1,47
 919 322 919 322 841 322 c 2,48,-1
 645 322 l 1,49,-1
 645 76 l 1,41,-1
EndSplineSet
EndChar

StartChar: uni040A
Encoding: 1034 1034 573
Width: 1165
GlyphClass: 1
Flags: W
LayerCount: 2
Fore
SplineSet
131 -7 m 0,0,1
 109 -7 109 -7 97 5.5 c 128,-1,2
 85 18 85 18 85 41 c 2,3,-1
 85 664 l 2,4,5
 85 688 85 688 97 700 c 128,-1,6
 109 712 109 712 131 712 c 0,7,8
 154 712 154 712 166 700 c 128,-1,9
 178 688 178 688 178 664 c 2,10,-1
 178 397 l 1,11,-1
 586 397 l 1,12,-1
 586 664 l 2,13,14
 586 688 586 688 598 700 c 128,-1,15
 610 712 610 712 633 712 c 0,16,17
 655 712 655 712 667 700 c 128,-1,18
 679 688 679 688 679 664 c 2,19,-1
 679 398 l 1,20,-1
 886 398 l 2,21,22
 960 398 960 398 1012.5 375.5 c 128,-1,23
 1065 353 1065 353 1093 309.5 c 128,-1,24
 1121 266 1121 266 1121 200 c 0,25,26
 1121 102 1121 102 1059.5 51 c 128,-1,27
 998 0 998 0 886 0 c 2,28,-1
 637 0 l 2,29,30
 612 0 612 0 599 13 c 128,-1,31
 586 26 586 26 586 50 c 2,32,-1
 586 318 l 1,33,-1
 178 318 l 1,34,-1
 178 41 l 2,35,36
 178 18 178 18 166.5 5.5 c 128,-1,37
 155 -7 155 -7 131 -7 c 0,0,1
679 76 m 1,38,-1
 876 76 l 2,39,40
 954 76 954 76 992 106.5 c 128,-1,41
 1030 137 1030 137 1030 199 c 0,42,43
 1030 262 1030 262 992 292 c 128,-1,44
 954 322 954 322 876 322 c 2,45,-1
 679 322 l 1,46,-1
 679 76 l 1,38,-1
EndSplineSet
EndChar

StartChar: uni0404
Encoding: 1028 1028 575
Width: 675
GlyphClass: 2
Flags: W
AnchorPoint: "Anchor-2" 386 0 basechar 0
AnchorPoint: "Anchor-0" 388 705 basechar 0
LayerCount: 2
Fore
SplineSet
395 -9 m 0,0,1
 290 -9 290 -9 215 35 c 128,-1,2
 140 79 140 79 99.5 160.5 c 128,-1,3
 59 242 59 242 59 353 c 0,4,5
 59 436 59 436 82 502.5 c 128,-1,6
 105 569 105 569 148 616.5 c 128,-1,7
 191 664 191 664 253.5 689 c 128,-1,8
 316 714 316 714 395 714 c 0,9,10
 455 714 455 714 510.5 697.5 c 128,-1,11
 566 681 566 681 612 645 c 0,12,13
 627 634 627 634 631 621 c 128,-1,14
 635 608 635 608 631.5 595.5 c 128,-1,15
 628 583 628 583 618.5 575 c 128,-1,16
 609 567 609 567 595.5 566 c 128,-1,17
 582 565 582 565 566 576 c 0,18,19
 528 605 528 605 487.5 617.5 c 128,-1,20
 447 630 447 630 397 630 c 0,21,22
 322 630 322 630 270 599.5 c 128,-1,23
 218 569 218 569 189.5 511.5 c 128,-1,24
 161 454 161 454 157 372 c 1,25,-1
 128 396 l 1,26,-1
 470 396 l 2,27,28
 490 396 490 396 500.5 386 c 128,-1,29
 511 376 511 376 511 359 c 0,30,31
 511 340 511 340 500.5 330 c 128,-1,32
 490 320 490 320 470 320 c 2,33,-1
 126 320 l 1,34,-1
 157 342 l 1,35,36
 160 256 160 256 188.5 196.5 c 128,-1,37
 217 137 217 137 269.5 106 c 128,-1,38
 322 75 322 75 397 75 c 0,39,40
 447 75 447 75 488.5 88 c 128,-1,41
 530 101 530 101 569 131 c 0,42,43
 585 142 585 142 598 141 c 128,-1,44
 611 140 611 140 619.5 131 c 128,-1,45
 628 122 628 122 630.5 109 c 128,-1,46
 633 96 633 96 628 82.5 c 128,-1,47
 623 69 623 69 609 59 c 0,48,49
 565 25 565 25 510.5 8 c 128,-1,50
 456 -9 456 -9 395 -9 c 0,0,1
EndSplineSet
EndChar

StartChar: uni042D
Encoding: 1069 1069 576
Width: 675
GlyphClass: 2
Flags: W
AnchorPoint: "Anchor-2" 300 0 basechar 0
AnchorPoint: "Anchor-0" 300 705 basechar 0
LayerCount: 2
Fore
SplineSet
280 -9 m 0,0,1
 218 -9 218 -9 163.5 8 c 128,-1,2
 109 25 109 25 65 60 c 0,3,4
 51 70 51 70 46 83.5 c 128,-1,5
 41 97 41 97 43.5 110 c 128,-1,6
 46 123 46 123 54.5 131.5 c 128,-1,7
 63 140 63 140 76 141.5 c 128,-1,8
 89 143 89 143 105 131 c 0,9,10
 145 101 145 101 186.5 88 c 128,-1,11
 228 75 228 75 278 75 c 0,12,13
 352 75 352 75 404.5 106 c 128,-1,14
 457 137 457 137 486.5 195.5 c 128,-1,15
 516 254 516 254 518 339 c 1,16,-1
 548 320 l 1,17,-1
 205 320 l 2,18,19
 185 320 185 320 174 330 c 128,-1,20
 163 340 163 340 163 358 c 256,21,22
 163 376 163 376 174 386 c 128,-1,23
 185 396 185 396 205 396 c 2,24,-1
 547 396 l 1,25,-1
 517 370 l 1,26,27
 514 452 514 452 487 510.5 c 128,-1,28
 460 569 460 569 409 599.5 c 128,-1,29
 358 630 358 630 284 630 c 0,30,31
 235 630 235 630 192 615.5 c 128,-1,32
 149 601 149 601 110 575 c 0,33,34
 94 564 94 564 80 565 c 128,-1,35
 66 566 66 566 56.5 574.5 c 128,-1,36
 47 583 47 583 44.5 595 c 128,-1,37
 42 607 42 607 46.5 620 c 128,-1,38
 51 633 51 633 65 643 c 0,39,40
 114 679 114 679 171 696.5 c 128,-1,41
 228 714 228 714 287 714 c 0,42,43
 391 714 391 714 464.5 669.5 c 128,-1,44
 538 625 538 625 576.5 544 c 128,-1,45
 615 463 615 463 615 353 c 0,46,47
 615 269 615 269 592.5 202.5 c 128,-1,48
 570 136 570 136 526.5 88.5 c 128,-1,49
 483 41 483 41 421 16 c 128,-1,50
 359 -9 359 -9 280 -9 c 0,0,1
EndSplineSet
EndChar

StartChar: uni040B
Encoding: 1035 1035 580
Width: 852
GlyphClass: 1
Flags: W
LayerCount: 2
Fore
SplineSet
304 -7 m 256,0,1
 281 -7 281 -7 269 5.5 c 128,-1,2
 257 18 257 18 257 41 c 2,3,-1
 257 626 l 1,4,-1
 38 626 l 2,5,6
 19 626 19 626 8 636.5 c 128,-1,7
 -3 647 -3 647 -3 666 c 256,8,9
 -3 685 -3 685 8 695 c 128,-1,10
 19 705 19 705 38 705 c 2,11,-1
 569 705 l 2,12,13
 589 705 589 705 599.5 695 c 128,-1,14
 610 685 610 685 610 666 c 256,15,16
 610 647 610 647 599.5 636.5 c 128,-1,17
 589 626 589 626 569 626 c 2,18,-1
 350 626 l 1,19,-1
 350 402 l 1,20,21
 380 419 380 419 426 428 c 128,-1,22
 472 437 472 437 518 437 c 0,23,24
 608 437 608 437 670 404.5 c 128,-1,25
 732 372 732 372 764 308 c 128,-1,26
 796 244 796 244 796 146 c 2,27,-1
 796 41 l 2,28,29
 796 18 796 18 784 5.5 c 128,-1,30
 772 -7 772 -7 749 -7 c 0,31,32
 727 -7 727 -7 715.5 5.5 c 128,-1,33
 704 18 704 18 704 41 c 2,34,-1
 704 140 l 2,35,36
 704 252 704 252 654.5 303.5 c 128,-1,37
 605 355 605 355 509 355 c 0,38,39
 467 355 467 355 426.5 347 c 128,-1,40
 386 339 386 339 350 318 c 1,41,-1
 350 41 l 2,42,43
 350 18 350 18 338.5 5.5 c 128,-1,44
 327 -7 327 -7 304 -7 c 256,0,1
EndSplineSet
EndChar

StartChar: uni042E
Encoding: 1070 1070 581
Width: 1021
GlyphClass: 1
Flags: W
AnchorPoint: "Anchor-0" 528 678 basechar 0
LayerCount: 2
Fore
SplineSet
644 -9 m 0,0,1
 552 -9 552 -9 484 31 c 128,-1,2
 416 71 416 71 375.5 144 c 128,-1,3
 335 217 335 217 328 318 c 1,4,-1
 178 318 l 1,5,-1
 178 41 l 2,6,7
 178 18 178 18 166.5 5.5 c 128,-1,8
 155 -7 155 -7 131 -7 c 0,9,10
 109 -7 109 -7 97 5.5 c 128,-1,11
 85 18 85 18 85 41 c 2,12,-1
 85 664 l 2,13,14
 85 688 85 688 97 700 c 128,-1,15
 109 712 109 712 131 712 c 0,16,17
 154 712 154 712 166 700 c 128,-1,18
 178 688 178 688 178 664 c 2,19,-1
 178 397 l 1,20,-1
 329 397 l 1,21,22
 337 496 337 496 377.5 566.5 c 128,-1,23
 418 637 418 637 485.5 675.5 c 128,-1,24
 553 714 553 714 644 714 c 0,25,26
 742 714 742 714 813 670 c 128,-1,27
 884 626 884 626 923 545 c 128,-1,28
 962 464 962 464 962 353 c 0,29,30
 962 270 962 270 939.5 203 c 128,-1,31
 917 136 917 136 875.5 88.5 c 128,-1,32
 834 41 834 41 775.5 16 c 128,-1,33
 717 -9 717 -9 644 -9 c 0,0,1
644 73 m 0,34,35
 714 73 714 73 763.5 106 c 128,-1,36
 813 139 813 139 838.5 202 c 128,-1,37
 864 265 864 265 864 353 c 0,38,39
 864 486 864 486 807 559 c 128,-1,40
 750 632 750 632 644 632 c 0,41,42
 574 632 574 632 524.5 599.5 c 128,-1,43
 475 567 475 567 449 504.5 c 128,-1,44
 423 442 423 442 423 353 c 0,45,46
 423 221 423 221 481 147 c 128,-1,47
 539 73 539 73 644 73 c 0,34,35
EndSplineSet
EndChar

StartChar: uni042F
Encoding: 1071 1071 582
Width: 674
GlyphClass: 1
Flags: W
AnchorPoint: "Anchor-0" 356 687 basechar 0
LayerCount: 2
Fore
SplineSet
543 -7 m 0,0,1
 521 -7 521 -7 509 5.5 c 128,-1,2
 497 18 497 18 497 41 c 2,3,-1
 497 294 l 1,4,-1
 386 294 l 2,5,6
 356 294 356 294 333.5 288.5 c 128,-1,7
 311 283 311 283 293.5 268 c 128,-1,8
 276 253 276 253 261 225 c 2,9,-1
 151 22 l 2,10,11
 141 5 141 5 127 -1.5 c 128,-1,12
 113 -8 113 -8 99.5 -6 c 128,-1,13
 86 -4 86 -4 75.5 5.5 c 128,-1,14
 65 15 65 15 63 30 c 128,-1,15
 61 45 61 45 70 63 c 2,16,-1
 160 227 l 2,17,18
 183 270 183 270 212.5 290.5 c 128,-1,19
 242 311 242 311 282 311 c 2,20,-1
 309 311 l 1,21,-1
 304 297 l 1,22,23
 192 297 192 297 130 350.5 c 128,-1,24
 68 404 68 404 68 500 c 0,25,26
 68 566 68 566 95 611.5 c 128,-1,27
 122 657 122 657 175 681 c 128,-1,28
 228 705 228 705 304 705 c 2,29,-1
 539 705 l 2,30,31
 564 705 564 705 577 692 c 128,-1,32
 590 679 590 679 590 655 c 2,33,-1
 590 41 l 2,34,35
 590 18 590 18 578 5.5 c 128,-1,36
 566 -7 566 -7 543 -7 c 0,0,1
319 366 m 2,37,-1
 497 366 l 1,38,-1
 497 629 l 1,39,-1
 319 629 l 2,40,41
 240 629 240 629 199.5 596 c 128,-1,42
 159 563 159 563 159 498 c 256,43,44
 159 433 159 433 199.5 399.5 c 128,-1,45
 240 366 240 366 319 366 c 2,37,-1
EndSplineSet
EndChar

StartChar: uni0402
Encoding: 1026 1026 583
Width: 848
GlyphClass: 1
Flags: W
LayerCount: 2
Fore
SplineSet
581 -189 m 0,0,1
 558 -189 558 -189 533.5 -186 c 128,-1,2
 509 -183 509 -183 489 -177 c 0,3,4
 475 -172 475 -172 467.5 -162.5 c 128,-1,5
 460 -153 460 -153 459.5 -141.5 c 128,-1,6
 459 -130 459 -130 464 -120.5 c 128,-1,7
 469 -111 469 -111 479 -106 c 128,-1,8
 489 -101 489 -101 503 -104 c 0,9,10
 521 -109 521 -109 537 -111 c 128,-1,11
 553 -113 553 -113 572 -113 c 0,12,13
 633 -113 633 -113 666 -72 c 128,-1,14
 699 -31 699 -31 699 50 c 2,15,-1
 699 140 l 2,16,17
 699 251 699 251 649.5 303 c 128,-1,18
 600 355 600 355 501 355 c 0,19,20
 457 355 457 355 419 346 c 128,-1,21
 381 337 381 337 350 318 c 1,22,-1
 350 41 l 2,23,24
 350 18 350 18 338.5 5.5 c 128,-1,25
 327 -7 327 -7 304 -7 c 256,26,27
 281 -7 281 -7 269 5.5 c 128,-1,28
 257 18 257 18 257 41 c 2,29,-1
 257 626 l 1,30,-1
 38 626 l 2,31,32
 19 626 19 626 8 636.5 c 128,-1,33
 -3 647 -3 647 -3 666 c 256,34,35
 -3 685 -3 685 8 695 c 128,-1,36
 19 705 19 705 38 705 c 2,37,-1
 569 705 l 2,38,39
 589 705 589 705 599.5 695 c 128,-1,40
 610 685 610 685 610 666 c 256,41,42
 610 647 610 647 599.5 636.5 c 128,-1,43
 589 626 589 626 569 626 c 2,44,-1
 350 626 l 1,45,-1
 350 402 l 1,46,47
 377 418 377 418 420.5 427.5 c 128,-1,48
 464 437 464 437 510 437 c 0,49,50
 579 437 579 437 632 418.5 c 128,-1,51
 685 400 685 400 720.5 364 c 128,-1,52
 756 328 756 328 774 273.5 c 128,-1,53
 792 219 792 219 792 146 c 2,54,-1
 792 53 l 2,55,56
 792 -25 792 -25 767 -79 c 128,-1,57
 742 -133 742 -133 694 -161 c 128,-1,58
 646 -189 646 -189 581 -189 c 0,0,1
EndSplineSet
EndChar

StartChar: uni0462
Encoding: 1122 1122 584
Width: 729
GlyphClass: 1
Flags: W
LayerCount: 2
Fore
SplineSet
203 0 m 2,0,1
 179 0 179 0 166 13 c 128,-1,2
 153 26 153 26 153 50 c 2,3,-1
 153 533 l 1,4,-1
 11 533 l 2,5,6
 -8 533 -8 533 -17.5 543 c 128,-1,7
 -27 553 -27 553 -27 569 c 0,8,9
 -27 604 -27 604 11 604 c 2,10,-1
 176 604 l 1,11,-1
 153 562 l 1,12,-1
 153 664 l 2,13,14
 153 688 153 688 165 700 c 128,-1,15
 177 712 177 712 198 712 c 0,16,17
 220 712 220 712 231.5 700 c 128,-1,18
 243 688 243 688 243 664 c 2,19,-1
 243 562 l 1,20,-1
 220 604 l 1,21,-1
 450 604 l 2,22,23
 469 604 469 604 478.5 595 c 128,-1,24
 488 586 488 586 488 569 c 0,25,26
 488 533 488 533 450 533 c 2,27,-1
 243 533 l 1,28,-1
 243 398 l 1,29,-1
 449 398 l 2,30,31
 561 398 561 398 622.5 348 c 128,-1,32
 684 298 684 298 684 200 c 256,33,34
 684 102 684 102 622.5 51 c 128,-1,35
 561 0 561 0 449 0 c 2,36,-1
 203 0 l 2,0,1
243 76 m 1,37,-1
 440 76 l 2,38,39
 517 76 517 76 555.5 106.5 c 128,-1,40
 594 137 594 137 594 199 c 0,41,42
 594 262 594 262 555.5 292 c 128,-1,43
 517 322 517 322 440 322 c 2,44,-1
 243 322 l 1,45,-1
 243 76 l 1,37,-1
EndSplineSet
EndChar

StartChar: uni046A
Encoding: 1130 1130 585
Width: 968
GlyphClass: 1
Flags: W
LayerCount: 2
Fore
SplineSet
484 -7 m 256,0,1
 461 -7 461 -7 449 5.5 c 128,-1,2
 437 18 437 18 437 41 c 2,3,-1
 437 315 l 1,4,-1
 362 315 l 2,5,6
 306 315 306 315 270.5 289.5 c 128,-1,7
 235 264 235 264 208 206 c 2,8,-1
 120 23 l 2,9,10
 112 6 112 6 98.5 -0.5 c 128,-1,11
 85 -7 85 -7 71 -6 c 128,-1,12
 57 -5 57 -5 46 3.5 c 128,-1,13
 35 12 35 12 31.5 26 c 128,-1,14
 28 40 28 40 37 58 c 2,15,-1
 130 248 l 2,16,17
 152 292 152 292 182.5 324.5 c 128,-1,18
 213 357 213 357 257 375 c 128,-1,19
 301 393 301 393 362 393 c 2,20,-1
 416 393 l 1,21,-1
 412 370 l 1,22,-1
 174 644 l 2,23,24
 161 659 161 659 160 673 c 128,-1,25
 159 687 159 687 170.5 696 c 128,-1,26
 182 705 182 705 204 705 c 2,27,-1
 763 705 l 2,28,29
 786 705 786 705 797 696 c 128,-1,30
 808 687 808 687 807 673 c 128,-1,31
 806 659 806 659 793 644 c 2,32,-1
 555 370 l 1,33,-1
 551 393 l 1,34,-1
 605 393 l 2,35,36
 666 393 666 393 709.5 375 c 128,-1,37
 753 357 753 357 784 324.5 c 128,-1,38
 815 292 815 292 837 248 c 2,39,-1
 930 58 l 2,40,41
 939 40 939 40 935.5 26 c 128,-1,42
 932 12 932 12 921 3.5 c 128,-1,43
 910 -5 910 -5 896 -6 c 128,-1,44
 882 -7 882 -7 868.5 -0.5 c 128,-1,45
 855 6 855 6 847 23 c 2,46,-1
 759 206 l 2,47,48
 732 264 732 264 696.5 289.5 c 128,-1,49
 661 315 661 315 605 315 c 2,50,-1
 530 315 l 1,51,-1
 530 41 l 2,52,53
 530 18 530 18 518.5 5.5 c 128,-1,54
 507 -7 507 -7 484 -7 c 256,0,1
483 395 m 1,55,-1
 485 395 l 1,56,-1
 716 668 l 1,57,-1
 716 637 l 1,58,-1
 251 637 l 1,59,-1
 251 668 l 1,60,-1
 483 395 l 1,55,-1
EndSplineSet
EndChar

StartChar: uni0474
Encoding: 1140 1140 587
Width: 749
GlyphClass: 1
Flags: W
LayerCount: 2
Fore
SplineSet
348 -7 m 256,0,1
 327 -7 327 -7 314 2.5 c 128,-1,2
 301 12 301 12 292 32 c 2,3,-1
 21 651 l 2,4,5
 13 670 13 670 16.5 683.5 c 128,-1,6
 20 697 20 697 31.5 704.5 c 128,-1,7
 43 712 43 712 59 712 c 0,8,9
 80 712 80 712 90.5 703 c 128,-1,10
 101 694 101 694 109 676 c 2,11,-1
 366 77 l 1,12,-1
 331 77 l 1,13,-1
 513 521 l 2,14,15
 541 587 541 587 570 628 c 128,-1,16
 599 669 599 669 638 689.5 c 128,-1,17
 677 710 677 710 731 713 c 0,18,19
 750 714 750 714 761 707 c 128,-1,20
 772 700 772 700 776 688.5 c 128,-1,21
 780 677 780 677 777 665.5 c 128,-1,22
 774 654 774 654 765.5 645.5 c 128,-1,23
 757 637 757 637 741 635 c 0,24,25
 706 631 706 631 681.5 616 c 128,-1,26
 657 601 657 601 637 571 c 128,-1,27
 617 541 617 541 595 492 c 2,28,-1
 401 32 l 2,29,30
 394 12 394 12 381.5 2.5 c 128,-1,31
 369 -7 369 -7 348 -7 c 256,0,1
EndSplineSet
EndChar

StartChar: uni0496
Encoding: 1174 1174 588
Width: 988
GlyphClass: 1
Flags: W
LayerCount: 2
Fore
SplineSet
979 -166 m 0,0,1
 958 -166 958 -166 947.5 -154.5 c 128,-1,2
 937 -143 937 -143 937 -123 c 2,3,-1
 937 42 l 1,4,-1
 979 0 l 1,5,-1
 903 0 l 2,6,7
 891 0 891 0 877 7 c 128,-1,8
 863 14 863 14 856 29 c 2,9,-1
 772 206 l 2,10,11
 744 265 744 265 707 290 c 128,-1,12
 670 315 670 315 616 315 c 2,13,-1
 535 315 l 1,14,-1
 535 41 l 2,15,16
 535 18 535 18 523 5.5 c 128,-1,17
 511 -7 511 -7 490 -7 c 0,18,19
 468 -7 468 -7 456.5 5.5 c 128,-1,20
 445 18 445 18 445 41 c 2,21,-1
 445 315 l 1,22,-1
 363 315 l 2,23,24
 308 315 308 315 271 289.5 c 128,-1,25
 234 264 234 264 206 206 c 2,26,-1
 119 23 l 2,27,28
 111 6 111 6 98 -0.5 c 128,-1,29
 85 -7 85 -7 70.5 -6 c 128,-1,30
 56 -5 56 -5 45 3.5 c 128,-1,31
 34 12 34 12 30.5 26 c 128,-1,32
 27 40 27 40 36 58 c 2,33,-1
 128 246 l 2,34,35
 160 311 160 311 205 347 c 128,-1,36
 250 383 250 383 310 391 c 1,37,-1
 275 362 l 1,38,-1
 87 645 l 2,39,40
 76 661 76 661 77.5 674.5 c 128,-1,41
 79 688 79 688 88.5 697.5 c 128,-1,42
 98 707 98 707 111 710 c 128,-1,43
 124 713 124 713 138 708 c 128,-1,44
 152 703 152 703 162 688 c 2,45,-1
 364 378 l 1,46,-1
 341 395 l 1,47,-1
 445 395 l 1,48,-1
 445 665 l 2,49,50
 445 688 445 688 456.5 700 c 128,-1,51
 468 712 468 712 490 712 c 0,52,53
 511 712 511 712 523 700 c 128,-1,54
 535 688 535 688 535 665 c 2,55,-1
 535 395 l 1,56,-1
 640 395 l 1,57,-1
 615 378 l 1,58,-1
 818 688 l 2,59,60
 828 703 828 703 841.5 708 c 128,-1,61
 855 713 855 713 868 710 c 128,-1,62
 881 707 881 707 891 697.5 c 128,-1,63
 901 688 901 688 902 674.5 c 128,-1,64
 903 661 903 661 893 645 c 2,65,-1
 704 362 l 1,66,-1
 669 391 l 1,67,68
 710 386 710 386 743 368 c 128,-1,69
 776 350 776 350 802.5 319.5 c 128,-1,70
 829 289 829 289 849 246 c 2,71,-1
 951 39 l 1,72,-1
 912 77 l 1,73,-1
 974 77 l 2,74,75
 997 77 997 77 1009 65 c 128,-1,76
 1021 53 1021 53 1021 31 c 2,77,-1
 1021 -123 l 2,78,79
 1021 -143 1021 -143 1010 -154.5 c 128,-1,80
 999 -166 999 -166 979 -166 c 0,0,1
EndSplineSet
EndChar

StartChar: uni0498
Encoding: 1176 1176 589
Width: 639
GlyphClass: 2
Flags: W
AnchorPoint: "Anchor-2" 317 0 basechar 0
AnchorPoint: "Anchor-0" 313 705 basechar 0
LayerCount: 2
Fore
SplineSet
316 -166 m 0,0,1
 296 -166 296 -166 285 -154 c 128,-1,2
 274 -142 274 -142 274 -121 c 2,3,-1
 274 41 l 1,4,-1
 358 41 l 1,5,-1
 358 -121 l 2,6,7
 358 -142 358 -142 347.5 -154 c 128,-1,8
 337 -166 337 -166 316 -166 c 0,0,1
310 -9 m 0,9,10
 233 -9 233 -9 168 10 c 128,-1,11
 103 29 103 29 58 64 c 0,12,13
 45 74 45 74 40.5 86.5 c 128,-1,14
 36 99 36 99 39 110.5 c 128,-1,15
 42 122 42 122 50.5 130 c 128,-1,16
 59 138 59 138 71.5 139 c 128,-1,17
 84 140 84 140 99 131 c 0,18,19
 127 111 127 111 159 98 c 128,-1,20
 191 85 191 85 227.5 78.5 c 128,-1,21
 264 72 264 72 304 72 c 0,22,23
 367 72 367 72 407 86 c 128,-1,24
 447 100 447 100 466.5 128.5 c 128,-1,25
 486 157 486 157 486 200 c 0,26,27
 486 261 486 261 448 290 c 128,-1,28
 410 319 410 319 333 319 c 2,29,-1
 194 319 l 2,30,31
 175 319 175 319 164.5 329 c 128,-1,32
 154 339 154 339 154 358 c 0,33,34
 154 375 154 375 164.5 385 c 128,-1,35
 175 395 175 395 194 395 c 2,36,-1
 316 395 l 2,37,38
 392 395 392 395 430.5 424.5 c 128,-1,39
 469 454 469 454 469 512 c 0,40,41
 469 549 469 549 451 576.5 c 128,-1,42
 433 604 433 604 396.5 619 c 128,-1,43
 360 634 360 634 305 634 c 0,44,45
 254 634 254 634 206 620 c 128,-1,46
 158 606 158 606 118 579 c 0,47,48
 102 569 102 569 89.5 570.5 c 128,-1,49
 77 572 77 572 69 580 c 128,-1,50
 61 588 61 588 58 600 c 128,-1,51
 55 612 55 612 59.5 624.5 c 128,-1,52
 64 637 64 637 78 646 c 0,53,54
 126 680 126 680 187.5 697 c 128,-1,55
 249 714 249 714 313 714 c 0,56,57
 396 714 396 714 451 690 c 128,-1,58
 506 666 506 666 534 622.5 c 128,-1,59
 562 579 562 579 562 521 c 0,60,61
 562 456 562 456 523.5 412 c 128,-1,62
 485 368 485 368 420 353 c 1,63,-1
 420 368 l 1,64,65
 494 359 494 359 536.5 313.5 c 128,-1,66
 579 268 579 268 579 195 c 0,67,68
 579 132 579 132 550 86 c 128,-1,69
 521 40 521 40 461.5 15.5 c 128,-1,70
 402 -9 402 -9 310 -9 c 0,9,10
EndSplineSet
Substitution2: "'locl' Localized Forms in Cyrillic lookup 17 subtable" uni0498.loclCHU
Substitution2: "'locl' Localized Forms in Cyrillic lookup 16 subtable" uni0498.loclBSH
AlternateSubs2: "'aalt' Access All Alternates lookup 1 subtable" uni0498.loclBSH uni0498.loclCHU
EndChar

StartChar: uni049A
Encoding: 1178 1178 590
Width: 658
GlyphClass: 1
Flags: W
LayerCount: 2
Fore
SplineSet
648 -166 m 0,0,1
 628 -166 628 -166 617.5 -154.5 c 128,-1,2
 607 -143 607 -143 607 -123 c 2,3,-1
 607 20 l 1,4,-1
 624 0 l 1,5,-1
 573 0 l 2,6,7
 561 0 561 0 547.5 6.5 c 128,-1,8
 534 13 534 13 526 29 c 2,9,-1
 442 206 l 2,10,11
 414 265 414 265 377 290 c 128,-1,12
 340 315 340 315 286 315 c 2,13,-1
 178 315 l 1,14,-1
 178 41 l 2,15,16
 178 18 178 18 166.5 5.5 c 128,-1,17
 155 -7 155 -7 131 -7 c 0,18,19
 109 -7 109 -7 97 5.5 c 128,-1,20
 85 18 85 18 85 41 c 2,21,-1
 85 665 l 2,22,23
 85 688 85 688 97 700 c 128,-1,24
 109 712 109 712 131 712 c 0,25,26
 154 712 154 712 166 700 c 128,-1,27
 178 688 178 688 178 665 c 2,28,-1
 178 395 l 1,29,-1
 310 395 l 1,30,-1
 285 378 l 1,31,-1
 488 688 l 2,32,33
 498 703 498 703 511.5 708 c 128,-1,34
 525 713 525 713 538 710 c 128,-1,35
 551 707 551 707 561 697.5 c 128,-1,36
 571 688 571 688 572 674.5 c 128,-1,37
 573 661 573 661 563 645 c 2,38,-1
 374 362 l 1,39,-1
 339 391 l 1,40,41
 400 383 400 383 444 346.5 c 128,-1,42
 488 310 488 310 520 246 c 2,43,-1
 621 39 l 1,44,-1
 582 77 l 1,45,-1
 644 77 l 2,46,47
 666 77 666 77 678 65 c 128,-1,48
 690 53 690 53 690 31 c 2,49,-1
 690 -123 l 2,50,51
 690 -143 690 -143 679.5 -154.5 c 128,-1,52
 669 -166 669 -166 648 -166 c 0,0,1
EndSplineSet
EndChar

StartChar: uni049C
Encoding: 1180 1180 591
Width: 684
GlyphClass: 1
Flags: W
LayerCount: 2
Fore
SplineSet
131 -7 m 0,0,1
 109 -7 109 -7 97 5.5 c 128,-1,2
 85 18 85 18 85 41 c 2,3,-1
 85 665 l 2,4,5
 85 688 85 688 97 700 c 128,-1,6
 109 712 109 712 131 712 c 0,7,8
 154 712 154 712 166 700 c 128,-1,9
 178 688 178 688 178 665 c 2,10,-1
 178 394 l 1,11,-1
 245 394 l 1,12,-1
 245 530 l 2,13,14
 245 567 245 567 279 567 c 0,15,16
 296 567 296 567 305 558 c 128,-1,17
 314 549 314 549 314 530 c 2,18,-1
 314 394 l 1,19,-1
 340 394 l 1,20,-1
 324 384 l 1,21,-1
 523 688 l 2,22,23
 533 703 533 703 546.5 708 c 128,-1,24
 560 713 560 713 573.5 710 c 128,-1,25
 587 707 587 707 596 697.5 c 128,-1,26
 605 688 605 688 606.5 674.5 c 128,-1,27
 608 661 608 661 598 645 c 2,28,-1
 409 362 l 1,29,-1
 373 391 l 1,30,31
 414 386 414 386 447 368.5 c 128,-1,32
 480 351 480 351 507 320.5 c 128,-1,33
 534 290 534 290 555 246 c 2,34,-1
 647 58 l 2,35,36
 656 40 656 40 652.5 26 c 128,-1,37
 649 12 649 12 638 3.5 c 128,-1,38
 627 -5 627 -5 613 -6 c 128,-1,39
 599 -7 599 -7 585.5 -0.5 c 128,-1,40
 572 6 572 6 564 23 c 2,41,-1
 476 206 l 2,42,43
 448 265 448 265 411.5 291 c 128,-1,44
 375 317 375 317 321 317 c 2,45,-1
 296 317 l 1,46,-1
 314 326 l 1,47,-1
 314 183 l 2,48,49
 314 145 314 145 279 145 c 0,50,51
 245 145 245 145 245 183 c 2,52,-1
 245 317 l 1,53,-1
 178 317 l 1,54,-1
 178 41 l 2,55,56
 178 18 178 18 166.5 5.5 c 128,-1,57
 155 -7 155 -7 131 -7 c 0,0,1
EndSplineSet
EndChar

StartChar: uni049E
Encoding: 1182 1182 592
Width: 690
GlyphClass: 1
Flags: W
LayerCount: 2
Fore
SplineSet
175 -7 m 256,0,1
 152 -7 152 -7 140 5.5 c 128,-1,2
 128 18 128 18 128 41 c 2,3,-1
 128 536 l 1,4,-1
 18 536 l 2,5,6
 0 536 0 536 -10 545.5 c 128,-1,7
 -20 555 -20 555 -20 572 c 0,8,9
 -20 588 -20 588 -10 597 c 128,-1,10
 0 606 0 606 18 606 c 2,11,-1
 140 606 l 1,12,-1
 128 572 l 1,13,-1
 128 665 l 2,14,15
 128 688 128 688 140 700 c 128,-1,16
 152 712 152 712 175 712 c 0,17,18
 197 712 197 712 209 700 c 128,-1,19
 221 688 221 688 221 665 c 2,20,-1
 221 572 l 1,21,-1
 209 606 l 1,22,-1
 331 606 l 2,23,24
 349 606 349 606 358.5 597 c 128,-1,25
 368 588 368 588 368 572 c 0,26,27
 368 555 368 555 358.5 545.5 c 128,-1,28
 349 536 349 536 331 536 c 2,29,-1
 221 536 l 1,30,-1
 221 395 l 1,31,-1
 358 395 l 1,32,-1
 329 372 l 1,33,-1
 539 688 l 2,34,35
 550 704 550 704 563.5 709 c 128,-1,36
 577 714 577 714 590.5 710.5 c 128,-1,37
 604 707 604 707 612.5 697.5 c 128,-1,38
 621 688 621 688 622.5 674.5 c 128,-1,39
 624 661 624 661 614 645 c 2,40,-1
 418 356 l 1,41,-1
 375 391 l 1,42,43
 416 386 416 386 449 368.5 c 128,-1,44
 482 351 482 351 508.5 320.5 c 128,-1,45
 535 290 535 290 556 246 c 2,46,-1
 648 58 l 2,47,48
 657 40 657 40 653.5 26 c 128,-1,49
 650 12 650 12 639 3.5 c 128,-1,50
 628 -5 628 -5 614 -6 c 128,-1,51
 600 -7 600 -7 586.5 -0.5 c 128,-1,52
 573 6 573 6 565 23 c 2,53,-1
 478 206 l 2,54,55
 450 265 450 265 413 290 c 128,-1,56
 376 315 376 315 323 315 c 2,57,-1
 221 315 l 1,58,-1
 221 41 l 2,59,60
 221 18 221 18 209.5 5.5 c 128,-1,61
 198 -7 198 -7 175 -7 c 256,0,1
EndSplineSet
EndChar

StartChar: uni04A0
Encoding: 1184 1184 593
Width: 780
GlyphClass: 1
Flags: W
LayerCount: 2
Fore
SplineSet
262 -7 m 0,0,1
 240 -7 240 -7 228 5.5 c 128,-1,2
 216 18 216 18 216 41 c 2,3,-1
 216 627 l 1,4,-1
 39 627 l 2,5,6
 19 627 19 627 8 637 c 128,-1,7
 -3 647 -3 647 -3 666 c 256,8,9
 -3 685 -3 685 8 695 c 128,-1,10
 19 705 19 705 39 705 c 2,11,-1
 262 705 l 2,12,13
 285 705 285 705 297 693 c 128,-1,14
 309 681 309 681 309 658 c 2,15,-1
 309 395 l 1,16,-1
 441 395 l 1,17,-1
 417 378 l 1,18,-1
 619 688 l 2,19,20
 629 703 629 703 642.5 708 c 128,-1,21
 656 713 656 713 669.5 710 c 128,-1,22
 683 707 683 707 692.5 697.5 c 128,-1,23
 702 688 702 688 703 674.5 c 128,-1,24
 704 661 704 661 694 645 c 2,25,-1
 505 362 l 1,26,-1
 470 391 l 1,27,28
 532 383 532 383 575.5 346.5 c 128,-1,29
 619 310 619 310 651 246 c 2,30,-1
 743 58 l 2,31,32
 752 40 752 40 748.5 26 c 128,-1,33
 745 12 745 12 734 3.5 c 128,-1,34
 723 -5 723 -5 708.5 -6 c 128,-1,35
 694 -7 694 -7 681 -0.5 c 128,-1,36
 668 6 668 6 660 23 c 2,37,-1
 573 206 l 2,38,39
 545 265 545 265 508 290 c 128,-1,40
 471 315 471 315 417 315 c 2,41,-1
 309 315 l 1,42,-1
 309 41 l 2,43,44
 309 18 309 18 297.5 5.5 c 128,-1,45
 286 -7 286 -7 262 -7 c 0,0,1
EndSplineSet
EndChar

StartChar: uni04A2
Encoding: 1186 1186 594
Width: 804
GlyphClass: 1
Flags: W
LayerCount: 2
Fore
SplineSet
738 -166 m 0,0,1
 717 -166 717 -166 706.5 -154.5 c 128,-1,2
 696 -143 696 -143 696 -123 c 2,3,-1
 696 0 l 1,4,-1
 633 0 l 2,5,6
 610 0 610 0 598 12 c 128,-1,7
 586 24 586 24 586 48 c 2,8,-1
 586 318 l 1,9,-1
 178 318 l 1,10,-1
 178 41 l 2,11,12
 178 18 178 18 166.5 5.5 c 128,-1,13
 155 -7 155 -7 131 -7 c 0,14,15
 109 -7 109 -7 97 5.5 c 128,-1,16
 85 18 85 18 85 41 c 2,17,-1
 85 664 l 2,18,19
 85 688 85 688 97 700 c 128,-1,20
 109 712 109 712 131 712 c 0,21,22
 154 712 154 712 166 700 c 128,-1,23
 178 688 178 688 178 664 c 2,24,-1
 178 397 l 1,25,-1
 586 397 l 1,26,-1
 586 664 l 2,27,28
 586 688 586 688 598 700 c 128,-1,29
 610 712 610 712 633 712 c 0,30,31
 655 712 655 712 667 700 c 128,-1,32
 679 688 679 688 679 664 c 2,33,-1
 679 35 l 1,34,-1
 637 77 l 1,35,-1
 734 77 l 2,36,37
 756 77 756 77 767.5 65 c 128,-1,38
 779 53 779 53 779 31 c 2,39,-1
 779 -123 l 2,40,41
 779 -143 779 -143 768.5 -154.5 c 128,-1,42
 758 -166 758 -166 738 -166 c 0,0,1
EndSplineSet
EndChar

StartChar: uni04A4
Encoding: 1188 1188 595
Width: 936
GlyphClass: 1
Flags: W
LayerCount: 2
Fore
SplineSet
131 -7 m 0,0,1
 109 -7 109 -7 97 5.5 c 128,-1,2
 85 18 85 18 85 41 c 2,3,-1
 85 664 l 2,4,5
 85 688 85 688 97 700 c 128,-1,6
 109 712 109 712 131 712 c 0,7,8
 154 712 154 712 166 700 c 128,-1,9
 178 688 178 688 178 664 c 2,10,-1
 178 397 l 1,11,-1
 586 397 l 1,12,-1
 586 657 l 2,13,14
 586 680 586 680 598.5 692.5 c 128,-1,15
 611 705 611 705 634 705 c 2,16,-1
 898 705 l 2,17,18
 918 705 918 705 928.5 695 c 128,-1,19
 939 685 939 685 939 666 c 256,20,21
 939 647 939 647 928.5 636.5 c 128,-1,22
 918 626 918 626 898 626 c 2,23,-1
 679 626 l 1,24,-1
 679 41 l 2,25,26
 679 18 679 18 667 5.5 c 128,-1,27
 655 -7 655 -7 633 -7 c 0,28,29
 610 -7 610 -7 598 5.5 c 128,-1,30
 586 18 586 18 586 41 c 2,31,-1
 586 318 l 1,32,-1
 178 318 l 1,33,-1
 178 41 l 2,34,35
 178 18 178 18 166.5 5.5 c 128,-1,36
 155 -7 155 -7 131 -7 c 0,0,1
EndSplineSet
EndChar

StartChar: uni0524
Encoding: 1316 1316 596
Width: 798
GlyphClass: 1
Flags: W
LayerCount: 2
Fore
SplineSet
732 -166 m 256,0,1
 712 -166 712 -166 701 -154.5 c 128,-1,2
 690 -143 690 -143 690 -123 c 2,3,-1
 690 0 l 1,4,-1
 627 0 l 2,5,6
 605 0 605 0 593 12 c 128,-1,7
 581 24 581 24 581 48 c 2,8,-1
 581 626 l 1,9,-1
 178 626 l 1,10,-1
 178 41 l 2,11,12
 178 18 178 18 166.5 5.5 c 128,-1,13
 155 -7 155 -7 131 -7 c 0,14,15
 109 -7 109 -7 97 5.5 c 128,-1,16
 85 18 85 18 85 41 c 2,17,-1
 85 655 l 2,18,19
 85 679 85 679 98 692 c 128,-1,20
 111 705 111 705 135 705 c 2,21,-1
 623 705 l 2,22,23
 648 705 648 705 661 692 c 128,-1,24
 674 679 674 679 674 655 c 2,25,-1
 674 35 l 1,26,-1
 632 77 l 1,27,-1
 728 77 l 2,28,29
 750 77 750 77 762 65 c 128,-1,30
 774 53 774 53 774 31 c 2,31,-1
 774 -123 l 2,32,33
 774 -143 774 -143 763 -154.5 c 128,-1,34
 752 -166 752 -166 732 -166 c 256,0,1
EndSplineSet
EndChar

StartChar: uni04A8
Encoding: 1192 1192 597
Width: 817
GlyphClass: 1
Flags: W
LayerCount: 2
Fore
SplineSet
384 -9 m 0,0,1
 284 -9 284 -9 211 35 c 128,-1,2
 138 79 138 79 98.5 159.5 c 128,-1,3
 59 240 59 240 59 350 c 0,4,5
 59 436 59 436 82 503.5 c 128,-1,6
 105 571 105 571 147.5 618 c 128,-1,7
 190 665 190 665 249.5 689.5 c 128,-1,8
 309 714 309 714 384 714 c 0,9,10
 393 714 393 714 402 714 c 128,-1,11
 411 714 411 714 420 712 c 0,12,13
 441 711 441 711 450.5 699 c 128,-1,14
 460 687 460 687 459 670 c 0,15,16
 458 657 458 657 451 648.5 c 128,-1,17
 444 640 444 640 434 636.5 c 128,-1,18
 424 633 424 633 413 633 c 0,19,20
 404 634 404 634 393 634 c 128,-1,21
 382 634 382 634 374 634 c 0,22,23
 304 631 304 631 255 597 c 128,-1,24
 206 563 206 563 181 501.5 c 128,-1,25
 156 440 156 440 156 353 c 0,26,27
 156 260 156 260 183.5 196.5 c 128,-1,28
 211 133 211 133 263.5 100 c 128,-1,29
 316 67 316 67 392 67 c 0,30,31
 451 67 451 67 497.5 84.5 c 128,-1,32
 544 102 544 102 576.5 135 c 128,-1,33
 609 168 609 168 626 215.5 c 128,-1,34
 643 263 643 263 643 323 c 0,35,36
 643 399 643 399 614.5 439 c 128,-1,37
 586 479 586 479 535 479 c 0,38,39
 502 479 502 479 478.5 461 c 128,-1,40
 455 443 455 443 441.5 408.5 c 128,-1,41
 428 374 428 374 428 323 c 0,42,43
 428 242 428 242 458 185 c 128,-1,44
 488 128 488 128 544 97.5 c 128,-1,45
 600 67 600 67 680 67 c 0,46,47
 708 67 708 67 734 71.5 c 128,-1,48
 760 76 760 76 782 85 c 0,49,50
 797 91 797 91 808.5 87.5 c 128,-1,51
 820 84 820 84 826 74 c 128,-1,52
 832 64 832 64 832.5 52 c 128,-1,53
 833 40 833 40 826.5 29.5 c 128,-1,54
 820 19 820 19 807 13 c 0,55,56
 780 1 780 1 747.5 -4 c 128,-1,57
 715 -9 715 -9 677 -9 c 0,58,59
 606 -9 606 -9 544.5 14.5 c 128,-1,60
 483 38 483 38 437 82.5 c 128,-1,61
 391 127 391 127 365 188.5 c 128,-1,62
 339 250 339 250 339 324 c 0,63,64
 339 394 339 394 362 446 c 128,-1,65
 385 498 385 498 429 527 c 128,-1,66
 473 556 473 556 535 556 c 0,67,68
 598 556 598 556 642 527 c 128,-1,69
 686 498 686 498 709.5 446 c 128,-1,70
 733 394 733 394 733 324 c 0,71,72
 733 249 733 249 706.5 187.5 c 128,-1,73
 680 126 680 126 632.5 82 c 128,-1,74
 585 38 585 38 521.5 14.5 c 128,-1,75
 458 -9 458 -9 384 -9 c 0,0,1
EndSplineSet
EndChar

StartChar: uni04AA
Encoding: 1194 1194 598
Width: 675
GlyphClass: 2
Flags: W
AnchorPoint: "Anchor-2" 387 0 basechar 0
AnchorPoint: "Anchor-0" 388 705 basechar 0
LayerCount: 2
Fore
SplineSet
382 -166 m 256,0,1
 361 -166 361 -166 350.5 -154 c 128,-1,2
 340 -142 340 -142 340 -121 c 2,3,-1
 340 41 l 1,4,-1
 424 41 l 1,5,-1
 424 -121 l 2,6,7
 424 -142 424 -142 413.5 -154 c 128,-1,8
 403 -166 403 -166 382 -166 c 256,0,1
395 -9 m 0,9,10
 290 -9 290 -9 215 35 c 128,-1,11
 140 79 140 79 99.5 160.5 c 128,-1,12
 59 242 59 242 59 353 c 0,13,14
 59 436 59 436 82 502.5 c 128,-1,15
 105 569 105 569 148 616.5 c 128,-1,16
 191 664 191 664 253.5 689 c 128,-1,17
 316 714 316 714 395 714 c 0,18,19
 455 714 455 714 510.5 697 c 128,-1,20
 566 680 566 680 606 649 c 0,21,22
 622 638 622 638 627 624 c 128,-1,23
 632 610 632 610 628.5 597.5 c 128,-1,24
 625 585 625 585 615.5 576.5 c 128,-1,25
 606 568 606 568 592 567.5 c 128,-1,26
 578 567 578 567 562 578 c 0,27,28
 527 605 527 605 485.5 617.5 c 128,-1,29
 444 630 444 630 397 630 c 0,30,31
 320 630 320 630 266.5 597.5 c 128,-1,32
 213 565 213 565 185.5 503.5 c 128,-1,33
 158 442 158 442 158 353 c 0,34,35
 158 265 158 265 185.5 202.5 c 128,-1,36
 213 140 213 140 266.5 107.5 c 128,-1,37
 320 75 320 75 397 75 c 0,38,39
 444 75 444 75 486.5 88 c 128,-1,40
 529 101 529 101 565 128 c 0,41,42
 581 139 581 139 594.5 138 c 128,-1,43
 608 137 608 137 617 129.5 c 128,-1,44
 626 122 626 122 629.5 109.5 c 128,-1,45
 633 97 633 97 629 84 c 128,-1,46
 625 71 625 71 611 61 c 0,47,48
 570 26 570 26 513.5 8.5 c 128,-1,49
 457 -9 457 -9 395 -9 c 0,9,10
EndSplineSet
Substitution2: "'locl' Localized Forms in Cyrillic lookup 17 subtable" uni04AA.loclCHU
Substitution2: "'locl' Localized Forms in Cyrillic lookup 16 subtable" uni04AA.loclBSH
AlternateSubs2: "'aalt' Access All Alternates lookup 1 subtable" uni04AA.loclBSH uni04AA.loclCHU
EndChar

StartChar: uni04AC
Encoding: 1196 1196 599
Width: 585
GlyphClass: 1
Flags: W
LayerCount: 2
Fore
SplineSet
397 -166 m 0,0,1
 376 -166 376 -166 365.5 -154.5 c 128,-1,2
 355 -143 355 -143 355 -123 c 2,3,-1
 355 0 l 1,4,-1
 296 0 l 2,5,6
 272 0 272 0 259 13 c 128,-1,7
 246 26 246 26 246 50 c 2,8,-1
 246 626 l 1,9,-1
 35 626 l 2,10,11
 15 626 15 626 4 636.5 c 128,-1,12
 -7 647 -7 647 -7 666 c 256,13,14
 -7 685 -7 685 4 695 c 128,-1,15
 15 705 15 705 35 705 c 2,16,-1
 558 705 l 2,17,18
 578 705 578 705 588.5 695 c 128,-1,19
 599 685 599 685 599 666 c 256,20,21
 599 647 599 647 588.5 636.5 c 128,-1,22
 578 626 578 626 558 626 c 2,23,-1
 339 626 l 1,24,-1
 339 37 l 1,25,-1
 297 77 l 1,26,-1
 394 77 l 2,27,28
 416 77 416 77 427.5 66.5 c 128,-1,29
 439 56 439 56 439 33 c 2,30,-1
 439 -123 l 2,31,32
 439 -166 439 -166 397 -166 c 0,0,1
EndSplineSet
EndChar

StartChar: uni04B2
Encoding: 1202 1202 602
Width: 665
GlyphClass: 1
Flags: W
LayerCount: 2
Fore
SplineSet
638 -166 m 0,0,1
 617 -166 617 -166 606.5 -154.5 c 128,-1,2
 596 -143 596 -143 596 -123 c 2,3,-1
 596 17 l 1,4,-1
 613 0 l 1,5,-1
 572 0 l 2,6,7
 559 0 559 0 546.5 4.5 c 128,-1,8
 534 9 534 9 522 25 c 2,9,-1
 310 314 l 1,10,-1
 345 314 l 1,11,-1
 133 23 l 2,12,13
 121 7 121 7 109 0 c 128,-1,14
 97 -7 97 -7 83 -7 c 0,15,16
 65 -7 65 -7 53 2.5 c 128,-1,17
 41 12 41 12 39.5 27 c 128,-1,18
 38 42 38 42 49 57 c 2,19,-1
 289 378 l 1,20,-1
 289 342 l 1,21,-1
 63 646 l 2,22,23
 51 663 51 663 52.5 678 c 128,-1,24
 54 693 54 693 65.5 702.5 c 128,-1,25
 77 712 77 712 94 712 c 0,26,27
 109 712 109 712 120 706 c 128,-1,28
 131 700 131 700 143 683 c 2,29,-1
 343 409 l 1,30,-1
 314 409 l 1,31,-1
 512 682 l 2,32,33
 523 699 523 699 534.5 705.5 c 128,-1,34
 546 712 546 712 562 712 c 0,35,36
 580 712 580 712 591.5 702.5 c 128,-1,37
 603 693 603 693 604.5 678 c 128,-1,38
 606 663 606 663 593 646 c 2,39,-1
 367 342 l 1,40,-1
 367 378 l 1,41,-1
 617 43 l 1,42,-1
 567 77 l 1,43,-1
 634 77 l 2,44,45
 656 77 656 77 668 65 c 128,-1,46
 680 53 680 53 680 31 c 2,47,-1
 680 -123 l 2,48,49
 680 -143 680 -143 669 -154.5 c 128,-1,50
 658 -166 658 -166 638 -166 c 0,0,1
EndSplineSet
EndChar

StartChar: uni04B4
Encoding: 1204 1204 603
Width: 927
GlyphClass: 1
Flags: W
LayerCount: 2
Fore
SplineSet
862 -166 m 0,0,1
 842 -166 842 -166 831 -154.5 c 128,-1,2
 820 -143 820 -143 820 -122 c 2,3,-1
 820 0 l 1,4,-1
 264 0 l 2,5,6
 240 0 240 0 227 13 c 128,-1,7
 214 26 214 26 214 51 c 2,8,-1
 214 626 l 1,9,-1
 37 626 l 2,10,11
 17 626 17 626 6 637 c 128,-1,12
 -5 648 -5 648 -5 666 c 0,13,14
 -5 685 -5 685 6 695 c 128,-1,15
 17 705 17 705 37 705 c 2,16,-1
 484 705 l 2,17,18
 504 705 504 705 514.5 695 c 128,-1,19
 525 685 525 685 525 666 c 256,20,21
 525 647 525 647 514.5 636.5 c 128,-1,22
 504 626 504 626 484 626 c 2,23,-1
 307 626 l 1,24,-1
 307 80 l 1,25,-1
 711 80 l 1,26,-1
 711 662 l 2,27,28
 711 686 711 686 723 698 c 128,-1,29
 735 710 735 710 757 710 c 0,30,31
 780 710 780 710 792 698 c 128,-1,32
 804 686 804 686 804 662 c 2,33,-1
 804 38 l 1,34,-1
 761 80 l 1,35,-1
 858 80 l 2,36,37
 880 80 880 80 892 68.5 c 128,-1,38
 904 57 904 57 904 34 c 2,39,-1
 904 -122 l 2,40,41
 904 -166 904 -166 862 -166 c 0,0,1
EndSplineSet
EndChar

StartChar: uni04B6
Encoding: 1206 1206 604
Width: 721
GlyphClass: 1
Flags: W
LayerCount: 2
Fore
SplineSet
503 293 m 1,0,1
 473 276 473 276 426.5 267 c 128,-1,2
 380 258 380 258 334 258 c 0,3,4
 245 258 245 258 183 290.5 c 128,-1,5
 121 323 121 323 89 387.5 c 128,-1,6
 57 452 57 452 57 549 c 2,7,-1
 57 664 l 2,8,9
 57 688 57 688 69 700 c 128,-1,10
 81 712 81 712 103 712 c 256,11,12
 125 712 125 712 137 700 c 128,-1,13
 149 688 149 688 149 664 c 2,14,-1
 149 555 l 2,15,16
 149 444 149 444 198 392 c 128,-1,17
 247 340 247 340 343 340 c 0,18,19
 385 340 385 340 426.5 348.5 c 128,-1,20
 468 357 468 357 503 378 c 1,21,-1
 503 664 l 2,22,23
 503 688 503 688 515 700 c 128,-1,24
 527 712 527 712 549 712 c 0,25,26
 572 712 572 712 584 700 c 128,-1,27
 596 688 596 688 596 664 c 2,28,-1
 596 35 l 1,29,-1
 554 77 l 1,30,-1
 650 77 l 2,31,32
 672 77 672 77 684 65 c 128,-1,33
 696 53 696 53 696 31 c 2,34,-1
 696 -123 l 2,35,36
 696 -143 696 -143 685.5 -154.5 c 128,-1,37
 675 -166 675 -166 655 -166 c 0,38,39
 634 -166 634 -166 623 -154.5 c 128,-1,40
 612 -143 612 -143 612 -123 c 2,41,-1
 612 0 l 1,42,-1
 549 0 l 2,43,44
 527 0 527 0 515 12 c 128,-1,45
 503 24 503 24 503 48 c 2,46,-1
 503 293 l 1,0,1
EndSplineSet
EndChar

StartChar: uni04B8
Encoding: 1208 1208 605
Width: 680
GlyphClass: 1
Flags: W
LayerCount: 2
Fore
SplineSet
549 -7 m 0,0,1
 527 -7 527 -7 515 5.5 c 128,-1,2
 503 18 503 18 503 41 c 2,3,-1
 503 293 l 1,4,5
 474 276 474 276 431 267.5 c 128,-1,6
 388 259 388 259 348 259 c 1,7,-1
 368 273 l 1,8,-1
 368 140 l 2,9,10
 368 103 368 103 333 103 c 0,11,12
 317 103 317 103 307.5 112 c 128,-1,13
 298 121 298 121 298 140 c 2,14,-1
 298 273 l 1,15,-1
 317 258 l 1,16,17
 234 263 234 263 176 294.5 c 128,-1,18
 118 326 118 326 87.5 389 c 128,-1,19
 57 452 57 452 57 549 c 2,20,-1
 57 664 l 2,21,22
 57 688 57 688 69 700 c 128,-1,23
 81 712 81 712 103 712 c 256,24,25
 125 712 125 712 137 700 c 128,-1,26
 149 688 149 688 149 664 c 2,27,-1
 149 555 l 2,28,29
 149 448 149 448 194 397 c 128,-1,30
 239 346 239 346 323 341 c 1,31,-1
 298 330 l 1,32,-1
 298 482 l 2,33,34
 298 519 298 519 333 519 c 0,35,36
 350 519 350 519 359 509.5 c 128,-1,37
 368 500 368 500 368 482 c 2,38,-1
 368 330 l 1,39,-1
 344 340 l 1,40,41
 385 340 385 340 427 348.5 c 128,-1,42
 469 357 469 357 503 378 c 1,43,-1
 503 664 l 2,44,45
 503 688 503 688 515 700 c 128,-1,46
 527 712 527 712 549 712 c 0,47,48
 572 712 572 712 584 700 c 128,-1,49
 596 688 596 688 596 664 c 2,50,-1
 596 41 l 2,51,52
 596 18 596 18 584.5 5.5 c 128,-1,53
 573 -7 573 -7 549 -7 c 0,0,1
EndSplineSet
EndChar

StartChar: uni04BA
Encoding: 1210 1210 606
Width: 680
GlyphClass: 2
Flags: W
LayerCount: 2
Fore
SplineSet
131 -7 m 0,0,1
 109 -7 109 -7 97 5.5 c 128,-1,2
 85 18 85 18 85 41 c 2,3,-1
 85 664 l 2,4,5
 85 688 85 688 97 700 c 128,-1,6
 109 712 109 712 131 712 c 0,7,8
 154 712 154 712 166 700 c 128,-1,9
 178 688 178 688 178 664 c 2,10,-1
 178 412 l 1,11,12
 208 429 208 429 254 438 c 128,-1,13
 300 447 300 447 346 447 c 0,14,15
 436 447 436 447 498 414.5 c 128,-1,16
 560 382 560 382 592 318 c 128,-1,17
 624 254 624 254 624 156 c 2,18,-1
 624 41 l 2,19,20
 624 18 624 18 611.5 5.5 c 128,-1,21
 599 -7 599 -7 577 -7 c 256,22,23
 555 -7 555 -7 543 5.5 c 128,-1,24
 531 18 531 18 531 41 c 2,25,-1
 531 150 l 2,26,27
 531 263 531 263 482 314 c 128,-1,28
 433 365 433 365 337 365 c 0,29,30
 295 365 295 365 254 357 c 128,-1,31
 213 349 213 349 178 328 c 1,32,-1
 178 41 l 2,33,34
 178 18 178 18 166 5.5 c 128,-1,35
 154 -7 154 -7 131 -7 c 0,0,1
EndSplineSet
EndChar

StartChar: uni0526
Encoding: 1318 1318 607
Width: 721
GlyphClass: 1
Flags: W
LayerCount: 2
Fore
SplineSet
531 150 m 2,0,1
 531 263 531 263 482 314 c 128,-1,2
 433 365 433 365 337 365 c 0,3,4
 295 365 295 365 254 357 c 128,-1,5
 213 349 213 349 178 328 c 1,6,-1
 178 41 l 2,7,8
 178 18 178 18 166 5.5 c 128,-1,9
 154 -7 154 -7 131 -7 c 0,10,11
 109 -7 109 -7 97 5.5 c 128,-1,12
 85 18 85 18 85 41 c 2,13,-1
 85 664 l 2,14,15
 85 688 85 688 97 700 c 128,-1,16
 109 712 109 712 131 712 c 0,17,18
 154 712 154 712 166 700 c 128,-1,19
 178 688 178 688 178 664 c 2,20,-1
 178 412 l 1,21,22
 208 429 208 429 254 438 c 128,-1,23
 300 447 300 447 346 447 c 0,24,25
 436 447 436 447 498 414.5 c 128,-1,26
 560 382 560 382 592 318 c 128,-1,27
 624 254 624 254 624 156 c 2,28,-1
 624 35 l 1,29,-1
 582 77 l 1,30,-1
 678 77 l 2,31,32
 700 77 700 77 712 65 c 128,-1,33
 724 53 724 53 724 31 c 2,34,-1
 724 -123 l 2,35,36
 724 -143 724 -143 713.5 -154.5 c 128,-1,37
 703 -166 703 -166 683 -166 c 0,38,39
 662 -166 662 -166 651 -154.5 c 128,-1,40
 640 -143 640 -143 640 -123 c 2,41,-1
 640 0 l 1,42,-1
 578 0 l 2,43,44
 555 0 555 0 543 12 c 128,-1,45
 531 24 531 24 531 48 c 2,46,-1
 531 150 l 2,0,1
EndSplineSet
EndChar

StartChar: uni04BC
Encoding: 1212 1212 608
Width: 932
GlyphClass: 2
Flags: W
AnchorPoint: "Anchor-3" 629 0 basechar 0
LayerCount: 2
Fore
SplineSet
590 -9 m 0,0,1
 475 -9 475 -9 393 33.5 c 128,-1,2
 311 76 311 76 266.5 154.5 c 128,-1,3
 222 233 222 233 220 342 c 1,4,-1
 237 311 l 1,5,-1
 198 311 l 2,6,7
 139 311 139 311 98.5 331.5 c 128,-1,8
 58 352 58 352 38.5 389 c 128,-1,9
 19 426 19 426 19 475 c 2,10,-1
 19 506 l 2,11,12
 19 552 19 552 65 552 c 0,13,14
 91 552 91 552 101 540.5 c 128,-1,15
 111 529 111 529 111 512 c 0,16,17
 111 502 111 502 111 493 c 128,-1,18
 111 484 111 484 111 476 c 0,19,20
 114 428 114 428 138 408.5 c 128,-1,21
 162 389 162 389 207 389 c 2,22,-1
 237 389 l 1,23,-1
 220 356 l 1,24,25
 221 438 221 438 244.5 504.5 c 128,-1,26
 268 571 268 571 311.5 618 c 128,-1,27
 355 665 355 665 416 689.5 c 128,-1,28
 477 714 477 714 553 714 c 0,29,30
 618 714 618 714 670 696.5 c 128,-1,31
 722 679 722 679 760 646 c 128,-1,32
 798 613 798 613 823 568.5 c 128,-1,33
 848 524 848 524 860.5 470.5 c 128,-1,34
 873 417 873 417 873 358 c 0,35,36
 873 340 873 340 867.5 330 c 128,-1,37
 862 320 862 320 850.5 315.5 c 128,-1,38
 839 311 839 311 821 311 c 2,39,-1
 304 311 l 1,40,-1
 318 344 l 1,41,42
 320 257 320 257 351.5 196.5 c 128,-1,43
 383 136 383 136 443.5 104.5 c 128,-1,44
 504 73 504 73 593 73 c 0,45,46
 645 73 645 73 691.5 85.5 c 128,-1,47
 738 98 738 98 783 127 c 0,48,49
 799 137 799 137 812 136 c 128,-1,50
 825 135 825 135 833 126 c 128,-1,51
 841 117 841 117 843 104 c 128,-1,52
 845 91 845 91 839.5 78 c 128,-1,53
 834 65 834 65 820 56 c 0,54,55
 772 24 772 24 714 7.5 c 128,-1,56
 656 -9 656 -9 590 -9 c 0,0,1
555 635 m 0,57,58
 480 635 480 635 426.5 602 c 128,-1,59
 373 569 373 569 345 506 c 128,-1,60
 317 443 317 443 317 353 c 1,61,-1
 304 389 l 1,62,-1
 803 389 l 1,63,-1
 781 352 l 1,64,65
 781 445 781 445 755.5 508 c 128,-1,66
 730 571 730 571 679.5 603 c 128,-1,67
 629 635 629 635 555 635 c 0,57,58
EndSplineSet
EndChar

StartChar: uni04C3
Encoding: 1219 1219 612
Width: 676
GlyphClass: 1
Flags: W
LayerCount: 2
Fore
SplineSet
410 -189 m 0,0,1
 388 -189 388 -189 363 -186 c 128,-1,2
 338 -183 338 -183 318 -177 c 0,3,4
 303 -173 303 -173 295.5 -163.5 c 128,-1,5
 288 -154 288 -154 287.5 -142.5 c 128,-1,6
 287 -131 287 -131 292 -121.5 c 128,-1,7
 297 -112 297 -112 307 -106.5 c 128,-1,8
 317 -101 317 -101 332 -104 c 0,9,10
 348 -109 348 -109 364.5 -111 c 128,-1,11
 381 -113 381 -113 400 -113 c 0,12,13
 460 -113 460 -113 493.5 -72 c 128,-1,14
 527 -31 527 -31 527 50 c 2,15,-1
 527 101 l 2,16,17
 527 175 527 175 504.5 223.5 c 128,-1,18
 482 272 482 272 435.5 295.5 c 128,-1,19
 389 319 389 319 316 319 c 2,20,-1
 178 319 l 1,21,-1
 178 41 l 2,22,23
 178 18 178 18 166.5 5.5 c 128,-1,24
 155 -7 155 -7 131 -7 c 0,25,26
 109 -7 109 -7 97 5.5 c 128,-1,27
 85 18 85 18 85 41 c 2,28,-1
 85 665 l 2,29,30
 85 688 85 688 97 700 c 128,-1,31
 109 712 109 712 131 712 c 0,32,33
 154 712 154 712 166 700 c 128,-1,34
 178 688 178 688 178 665 c 2,35,-1
 178 398 l 1,36,-1
 318 398 l 1,37,-1
 290 378 l 1,38,-1
 492 688 l 2,39,40
 503 703 503 703 516.5 708 c 128,-1,41
 530 713 530 713 543 710 c 128,-1,42
 556 707 556 707 565.5 697.5 c 128,-1,43
 575 688 575 688 576.5 674.5 c 128,-1,44
 578 661 578 661 567 645 c 2,45,-1
 378 362 l 1,46,-1
 364 395 l 1,47,48
 449 391 449 391 505.5 357.5 c 128,-1,49
 562 324 562 324 591 261.5 c 128,-1,50
 620 199 620 199 620 107 c 2,51,-1
 620 53 l 2,52,53
 620 -25 620 -25 595 -79 c 128,-1,54
 570 -133 570 -133 523 -161 c 128,-1,55
 476 -189 476 -189 410 -189 c 0,0,1
EndSplineSet
EndChar

StartChar: uni04C5
Encoding: 1221 1221 613
Width: 763
GlyphClass: 1
Flags: W
LayerCount: 2
Fore
SplineSet
701 -137 m 2,0,1
 696 -152 696 -152 685.5 -159 c 128,-1,2
 675 -166 675 -166 663.5 -166 c 128,-1,3
 652 -166 652 -166 642 -160 c 128,-1,4
 632 -154 632 -154 627.5 -143 c 128,-1,5
 623 -132 623 -132 629 -115 c 2,6,-1
 672 16 l 1,7,-1
 682 0 l 1,8,-1
 612 0 l 2,9,10
 590 0 590 0 578 10.5 c 128,-1,11
 566 21 566 21 566 43 c 2,12,-1
 566 626 l 1,13,-1
 270 626 l 1,14,-1
 270 469 l 2,15,16
 270 370 270 370 258.5 294.5 c 128,-1,17
 247 219 247 219 224.5 163.5 c 128,-1,18
 202 108 202 108 168.5 68 c 128,-1,19
 135 28 135 28 91 1 c 0,20,21
 74 -11 74 -11 57 -7.5 c 128,-1,22
 40 -4 40 -4 29 12 c 0,23,24
 17 30 17 30 21.5 46 c 128,-1,25
 26 62 26 62 44 74 c 0,26,27
 78 95 78 95 104 126.5 c 128,-1,28
 130 158 130 158 148 206 c 128,-1,29
 166 254 166 254 175 324.5 c 128,-1,30
 184 395 184 395 184 493 c 2,31,-1
 184 655 l 2,32,33
 184 679 184 679 197 692 c 128,-1,34
 210 705 210 705 235 705 c 2,35,-1
 608 705 l 2,36,37
 633 705 633 705 646 692 c 128,-1,38
 659 679 659 679 659 655 c 2,39,-1
 659 52 l 1,40,-1
 634 77 l 1,41,-1
 712 77 l 2,42,43
 740 77 740 77 751.5 62.5 c 128,-1,44
 763 48 763 48 755 22 c 2,45,-1
 701 -137 l 2,0,1
EndSplineSet
EndChar

StartChar: uni04C7
Encoding: 1223 1223 614
Width: 764
GlyphClass: 1
Flags: W
LayerCount: 2
Fore
SplineSet
495 -191 m 0,0,1
 474 -192 474 -192 463 -182 c 128,-1,2
 452 -172 452 -172 451 -158.5 c 128,-1,3
 450 -145 450 -145 458 -133.5 c 128,-1,4
 466 -122 466 -122 482 -121 c 0,5,6
 535 -118 535 -118 560.5 -93.5 c 128,-1,7
 586 -69 586 -69 586 -13 c 2,8,-1
 586 318 l 1,9,-1
 178 318 l 1,10,-1
 178 41 l 2,11,12
 178 18 178 18 166.5 5.5 c 128,-1,13
 155 -7 155 -7 131 -7 c 0,14,15
 109 -7 109 -7 97 5.5 c 128,-1,16
 85 18 85 18 85 41 c 2,17,-1
 85 664 l 2,18,19
 85 688 85 688 97 700 c 128,-1,20
 109 712 109 712 131 712 c 0,21,22
 154 712 154 712 166 700 c 128,-1,23
 178 688 178 688 178 664 c 2,24,-1
 178 397 l 1,25,-1
 586 397 l 1,26,-1
 586 664 l 2,27,28
 586 688 586 688 598 700 c 128,-1,29
 610 712 610 712 633 712 c 0,30,31
 655 712 655 712 667 700 c 128,-1,32
 679 688 679 688 679 664 c 2,33,-1
 679 -7 l 2,34,35
 679 -70 679 -70 657.5 -109.5 c 128,-1,36
 636 -149 636 -149 595 -168.5 c 128,-1,37
 554 -188 554 -188 495 -191 c 0,0,1
EndSplineSet
EndChar

StartChar: uni04C9
Encoding: 1225 1225 615
Width: 783
GlyphClass: 1
Flags: W
LayerCount: 2
Fore
SplineSet
722 -137 m 2,0,1
 717 -152 717 -152 706.5 -159 c 128,-1,2
 696 -166 696 -166 684 -166 c 128,-1,3
 672 -166 672 -166 662 -160 c 128,-1,4
 652 -154 652 -154 648 -143 c 128,-1,5
 644 -132 644 -132 649 -115 c 2,6,-1
 693 16 l 1,7,-1
 703 0 l 1,8,-1
 633 0 l 2,9,10
 610 0 610 0 598 10.5 c 128,-1,11
 586 21 586 21 586 43 c 2,12,-1
 586 318 l 1,13,-1
 178 318 l 1,14,-1
 178 41 l 2,15,16
 178 18 178 18 166.5 5.5 c 128,-1,17
 155 -7 155 -7 131 -7 c 0,18,19
 109 -7 109 -7 97 5.5 c 128,-1,20
 85 18 85 18 85 41 c 2,21,-1
 85 664 l 2,22,23
 85 688 85 688 97 700 c 128,-1,24
 109 712 109 712 131 712 c 0,25,26
 154 712 154 712 166 700 c 128,-1,27
 178 688 178 688 178 664 c 2,28,-1
 178 397 l 1,29,-1
 586 397 l 1,30,-1
 586 664 l 2,31,32
 586 688 586 688 598 700 c 128,-1,33
 610 712 610 712 633 712 c 0,34,35
 655 712 655 712 667 700 c 128,-1,36
 679 688 679 688 679 664 c 2,37,-1
 679 35 l 1,38,-1
 637 77 l 1,39,-1
 733 77 l 2,40,41
 761 77 761 77 772.5 62.5 c 128,-1,42
 784 48 784 48 775 22 c 2,43,-1
 722 -137 l 2,0,1
EndSplineSet
EndChar

StartChar: uni04CB
Encoding: 1227 1227 616
Width: 689
GlyphClass: 1
Flags: W
LayerCount: 2
Fore
SplineSet
444 -166 m 0,0,1
 424 -166 424 -166 413.5 -154.5 c 128,-1,2
 403 -143 403 -143 403 -123 c 2,3,-1
 403 31 l 2,4,5
 403 53 403 53 415 65 c 128,-1,6
 427 77 427 77 449 77 c 2,7,-1
 545 77 l 1,8,-1
 503 35 l 1,9,-1
 503 293 l 1,10,11
 473 276 473 276 426.5 267 c 128,-1,12
 380 258 380 258 334 258 c 0,13,14
 245 258 245 258 183 290.5 c 128,-1,15
 121 323 121 323 89 387.5 c 128,-1,16
 57 452 57 452 57 549 c 2,17,-1
 57 664 l 2,18,19
 57 688 57 688 69 700 c 128,-1,20
 81 712 81 712 103 712 c 256,21,22
 125 712 125 712 137 700 c 128,-1,23
 149 688 149 688 149 664 c 2,24,-1
 149 555 l 2,25,26
 149 444 149 444 198 392 c 128,-1,27
 247 340 247 340 343 340 c 0,28,29
 385 340 385 340 426.5 348.5 c 128,-1,30
 468 357 468 357 503 378 c 1,31,-1
 503 664 l 2,32,33
 503 688 503 688 515 700 c 128,-1,34
 527 712 527 712 549 712 c 0,35,36
 572 712 572 712 584 700 c 128,-1,37
 596 688 596 688 596 664 c 2,38,-1
 596 48 l 2,39,40
 596 24 596 24 584 12 c 128,-1,41
 572 0 572 0 549 0 c 2,42,-1
 487 0 l 1,43,-1
 487 -123 l 2,44,45
 487 -143 487 -143 476 -154.5 c 128,-1,46
 465 -166 465 -166 444 -166 c 0,0,1
EndSplineSet
EndChar

StartChar: uni04CD
Encoding: 1229 1229 617
Width: 878
GlyphClass: 1
Flags: W
LayerCount: 2
Fore
SplineSet
815 -137 m 2,0,1
 809 -152 809 -152 799 -159 c 128,-1,2
 789 -166 789 -166 777 -166 c 128,-1,3
 765 -166 765 -166 755 -160 c 128,-1,4
 745 -154 745 -154 741 -143 c 128,-1,5
 737 -132 737 -132 742 -115 c 2,6,-1
 786 16 l 1,7,-1
 796 0 l 1,8,-1
 734 0 l 2,9,10
 712 0 712 0 700 10.5 c 128,-1,11
 688 21 688 21 688 43 c 2,12,-1
 688 576 l 1,13,-1
 710 576 l 1,14,-1
 470 127 l 2,15,16
 462 114 462 114 453.5 107.5 c 128,-1,17
 445 101 445 101 430 101 c 0,18,19
 416 101 416 101 406.5 108 c 128,-1,20
 397 115 397 115 390 127 c 2,21,-1
 147 577 l 1,22,-1
 171 577 l 1,23,-1
 171 37 l 2,24,25
 171 17 171 17 160.5 5 c 128,-1,26
 150 -7 150 -7 129 -7 c 0,27,28
 109 -7 109 -7 98 5 c 128,-1,29
 87 17 87 17 87 37 c 2,30,-1
 87 668 l 2,31,32
 87 689 87 689 98.5 700.5 c 128,-1,33
 110 712 110 712 130 712 c 0,34,35
 148 712 148 712 158.5 705 c 128,-1,36
 169 698 169 698 178 681 c 2,37,-1
 446 178 l 1,38,-1
 415 178 l 1,39,-1
 682 681 l 2,40,41
 692 698 692 698 702 705 c 128,-1,42
 712 712 712 712 730 712 c 0,43,44
 750 712 750 712 761 700.5 c 128,-1,45
 772 689 772 689 772 668 c 2,46,-1
 772 52 l 1,47,-1
 747 77 l 1,48,-1
 826 77 l 2,49,50
 854 77 854 77 865.5 62.5 c 128,-1,51
 877 48 877 48 868 22 c 2,52,-1
 815 -137 l 2,0,1
EndSplineSet
EndChar

StartChar: uni04E0
Encoding: 1248 1248 626
Width: 639
GlyphClass: 1
Flags: W
LayerCount: 2
Fore
SplineSet
310 -9 m 0,0,1
 233 -9 233 -9 168.5 10 c 128,-1,2
 104 29 104 29 61 63 c 0,3,4
 47 73 47 73 42.5 85.5 c 128,-1,5
 38 98 38 98 41 110 c 128,-1,6
 44 122 44 122 52 130.5 c 128,-1,7
 60 139 60 139 72.5 140.5 c 128,-1,8
 85 142 85 142 100 132 c 0,9,10
 144 102 144 102 193.5 86.5 c 128,-1,11
 243 71 243 71 304 71 c 0,12,13
 367 71 367 71 407 85.5 c 128,-1,14
 447 100 447 100 466.5 128 c 128,-1,15
 486 156 486 156 486 198 c 256,16,17
 486 240 486 240 468.5 266.5 c 128,-1,18
 451 293 451 293 413 306 c 128,-1,19
 375 319 375 319 313 319 c 2,20,-1
 235 319 l 2,21,22
 221 319 221 319 212.5 325.5 c 128,-1,23
 204 332 204 332 200.5 343 c 128,-1,24
 197 354 197 354 201 366 c 128,-1,25
 205 378 205 378 216 390 c 2,26,-1
 459 653 l 1,27,-1
 459 626 l 1,28,-1
 88 626 l 2,29,30
 68 626 68 626 57 636.5 c 128,-1,31
 46 647 46 647 46 666 c 256,32,33
 46 685 46 685 57 695 c 128,-1,34
 68 705 68 705 88 705 c 2,35,-1
 520 705 l 2,36,37
 535 705 535 705 544.5 698 c 128,-1,38
 554 691 554 691 556.5 680 c 128,-1,39
 559 669 559 669 555 655 c 128,-1,40
 551 641 551 641 538 628 c 2,41,-1
 298 369 l 1,42,-1
 282 394 l 1,43,-1
 339 394 l 2,44,45
 415 394 415 394 468.5 372 c 128,-1,46
 522 350 522 350 550.5 307.5 c 128,-1,47
 579 265 579 265 579 202 c 0,48,49
 579 136 579 136 550 88.5 c 128,-1,50
 521 41 521 41 461.5 16 c 128,-1,51
 402 -9 402 -9 310 -9 c 0,0,1
EndSplineSet
EndChar

StartChar: uni04E8
Encoding: 1256 1256 630
Width: 772
GlyphClass: 2
Flags: W
AnchorPoint: "Anchor-5" 386 353 basechar 0
AnchorPoint: "Anchor-3" 443 0 basechar 0
AnchorPoint: "Anchor-2" 385 0 basechar 0
AnchorPoint: "Anchor-1" 456 705 basechar 0
AnchorPoint: "Anchor-0" 384 705 basechar 0
LayerCount: 2
Fore
SplineSet
114 322 m 1,0,-1
 114 394 l 1,1,-1
 662 394 l 1,2,-1
 662 322 l 1,3,-1
 114 322 l 1,0,-1
386 -9 m 0,4,5
 286 -9 286 -9 213 35.5 c 128,-1,6
 140 80 140 80 99.5 161.5 c 128,-1,7
 59 243 59 243 59 353 c 0,8,9
 59 436 59 436 82 502.5 c 128,-1,10
 105 569 105 569 147.5 616.5 c 128,-1,11
 190 664 190 664 250.5 689 c 128,-1,12
 311 714 311 714 386 714 c 0,13,14
 486 714 486 714 559 670 c 128,-1,15
 632 626 632 626 672 545 c 128,-1,16
 712 464 712 464 712 354 c 0,17,18
 712 271 712 271 689 204 c 128,-1,19
 666 137 666 137 623.5 89 c 128,-1,20
 581 41 581 41 521 16 c 128,-1,21
 461 -9 461 -9 386 -9 c 0,4,5
386 73 m 0,22,23
 458 73 458 73 509 106 c 128,-1,24
 560 139 560 139 587.5 202 c 128,-1,25
 615 265 615 265 615 353 c 0,26,27
 615 486 615 486 555.5 559 c 128,-1,28
 496 632 496 632 386 632 c 0,29,30
 314 632 314 632 262.5 599.5 c 128,-1,31
 211 567 211 567 184 504.5 c 128,-1,32
 157 442 157 442 157 353 c 0,33,34
 157 221 157 221 217 147 c 128,-1,35
 277 73 277 73 386 73 c 0,22,23
EndSplineSet
EndChar

StartChar: uni04FA
Encoding: 1274 1274 638
Width: 583
GlyphClass: 1
Flags: W
LayerCount: 2
Fore
SplineSet
122 -181 m 2,0,1
 104 -182 104 -182 93 -174 c 128,-1,2
 82 -166 82 -166 81 -151 c 256,3,4
 80 -136 80 -136 88 -125.5 c 128,-1,5
 96 -115 96 -115 117 -113 c 2,6,-1
 129 -112 l 2,7,8
 185 -107 185 -107 207.5 -80 c 128,-1,9
 230 -53 230 -53 230 0 c 1,10,-1
 167 0 l 2,11,12
 146 0 146 0 134 12 c 128,-1,13
 122 24 122 24 122 46 c 2,14,-1
 122 316 l 1,15,-1
 64 316 l 2,16,17
 45 316 45 316 35 325.5 c 128,-1,18
 25 335 25 335 25 352 c 256,19,20
 25 369 25 369 35 378 c 128,-1,21
 45 387 45 387 64 387 c 2,22,-1
 122 387 l 1,23,-1
 122 657 l 2,24,25
 122 680 122 680 134.5 692.5 c 128,-1,26
 147 705 147 705 170 705 c 2,27,-1
 534 705 l 2,28,29
 555 705 555 705 565.5 695 c 128,-1,30
 576 685 576 685 576 666 c 256,31,32
 576 647 576 647 565.5 636.5 c 128,-1,33
 555 626 555 626 534 626 c 2,34,-1
 215 626 l 1,35,-1
 215 387 l 1,36,-1
 361 387 l 2,37,38
 379 387 379 387 389 378 c 128,-1,39
 399 369 399 369 399 352 c 256,40,41
 399 335 399 335 389 325.5 c 128,-1,42
 379 316 379 316 361 316 c 2,43,-1
 215 316 l 1,44,-1
 215 35 l 1,45,-1
 173 77 l 1,46,-1
 270 77 l 2,47,48
 292 77 292 77 303.5 65.5 c 128,-1,49
 315 54 315 54 315 32 c 2,50,-1
 315 15 l 2,51,52
 315 -48 315 -48 296 -90.5 c 128,-1,53
 277 -133 277 -133 238 -155 c 128,-1,54
 199 -177 199 -177 140 -180 c 2,55,-1
 122 -181 l 2,0,1
EndSplineSet
EndChar

StartChar: uni04FC
Encoding: 1276 1276 639
Width: 655
GlyphClass: 1
Flags: W
LayerCount: 2
Fore
SplineSet
450 -179 m 0,0,1
 429 -184 429 -184 414 -175.5 c 128,-1,2
 399 -167 399 -167 395 -149 c 0,3,4
 392 -130 392 -130 399.5 -119.5 c 128,-1,5
 407 -109 407 -109 425 -106 c 0,6,7
 473 -96 473 -96 493 -72.5 c 128,-1,8
 513 -49 513 -49 513 -8 c 0,9,10
 513 13 513 13 498 45.5 c 128,-1,11
 483 78 483 78 454 118 c 2,12,-1
 310 314 l 1,13,-1
 345 314 l 1,14,-1
 133 23 l 2,15,16
 121 7 121 7 109 0 c 128,-1,17
 97 -7 97 -7 83 -7 c 0,18,19
 65 -7 65 -7 53 2.5 c 128,-1,20
 41 12 41 12 39.5 27 c 128,-1,21
 38 42 38 42 49 57 c 2,22,-1
 289 378 l 1,23,-1
 289 342 l 1,24,-1
 63 646 l 2,25,26
 51 663 51 663 52.5 678 c 128,-1,27
 54 693 54 693 65.5 702.5 c 128,-1,28
 77 712 77 712 94 712 c 0,29,30
 110 712 110 712 121 705.5 c 128,-1,31
 132 699 132 699 143 682 c 2,32,-1
 343 409 l 1,33,-1
 314 409 l 1,34,-1
 512 682 l 2,35,36
 523 699 523 699 534.5 705.5 c 128,-1,37
 546 712 546 712 562 712 c 0,38,39
 580 712 580 712 591.5 702.5 c 128,-1,40
 603 693 603 693 604.5 678 c 128,-1,41
 606 663 606 663 593 646 c 2,42,-1
 367 342 l 1,43,-1
 367 378 l 1,44,-1
 536 151 l 2,45,46
 574 99 574 99 590.5 58 c 128,-1,47
 607 17 607 17 607 -17 c 0,48,49
 607 -83 607 -83 569.5 -123 c 128,-1,50
 532 -163 532 -163 450 -179 c 0,0,1
EndSplineSet
EndChar

StartChar: uni0510
Encoding: 1296 1296 641
Width: 639
GlyphClass: 1
Flags: W
LayerCount: 2
Fore
SplineSet
328 -9 m 0,0,1
 237 -9 237 -9 177.5 15.5 c 128,-1,2
 118 40 118 40 89 86 c 128,-1,3
 60 132 60 132 60 195 c 0,4,5
 60 244 60 244 79 280.5 c 128,-1,6
 98 317 98 317 133.5 339 c 128,-1,7
 169 361 169 361 218 368 c 1,8,-1
 218 353 l 1,9,10
 154 368 154 368 115 412 c 128,-1,11
 76 456 76 456 76 521 c 0,12,13
 76 579 76 579 105 622.5 c 128,-1,14
 134 666 134 666 190.5 690 c 128,-1,15
 247 714 247 714 330 714 c 0,16,17
 373 714 373 714 413.5 706.5 c 128,-1,18
 454 699 454 699 492 683.5 c 128,-1,19
 530 668 530 668 563 644 c 0,20,21
 577 635 577 635 581.5 623 c 128,-1,22
 586 611 586 611 583 598.5 c 128,-1,23
 580 586 580 586 571.5 578 c 128,-1,24
 563 570 563 570 550.5 569 c 128,-1,25
 538 568 538 568 523 578 c 0,26,27
 482 606 482 606 433.5 620 c 128,-1,28
 385 634 385 634 334 634 c 0,29,30
 251 634 251 634 210 601 c 128,-1,31
 169 568 169 568 169 512 c 0,32,33
 169 454 169 454 207.5 424.5 c 128,-1,34
 246 395 246 395 322 395 c 2,35,-1
 444 395 l 2,36,37
 464 395 464 395 474.5 385 c 128,-1,38
 485 375 485 375 485 358 c 0,39,40
 485 339 485 339 474.5 329 c 128,-1,41
 464 319 464 319 444 319 c 2,42,-1
 306 319 l 2,43,44
 229 319 229 319 190.5 290 c 128,-1,45
 152 261 152 261 152 200 c 0,46,47
 152 136 152 136 196.5 104 c 128,-1,48
 241 72 241 72 334 72 c 0,49,50
 396 72 396 72 445.5 86 c 128,-1,51
 495 100 495 100 540 131 c 0,52,53
 555 140 555 140 567.5 138.5 c 128,-1,54
 580 137 580 137 588 129.5 c 128,-1,55
 596 122 596 122 598 109.5 c 128,-1,56
 600 97 600 97 595.5 85 c 128,-1,57
 591 73 591 73 578 63 c 0,58,59
 535 29 535 29 470.5 10 c 128,-1,60
 406 -9 406 -9 328 -9 c 0,0,1
EndSplineSet
EndChar

